<?xml version="1.0" encoding="utf-8"?>
<!-- Generator: Adobe Illustrator 17.0.0, SVG Export Plug-In . SVG Version: 6.00 Build 0)  -->
<!DOCTYPE svg PUBLIC "-//W3C//DTD SVG 1.1//EN" "http://www.w3.org/Graphics/SVG/1.1/DTD/svg11.dtd">
<svg version="1.1" xmlns="http://www.w3.org/2000/svg" xmlns:xlink="http://www.w3.org/1999/xlink" x="0px" y="0px"
	 width="577.028px" height="353.23px" viewBox="0 0 577.028 353.23" enable-background="new 0 0 577.028 353.23"
	 xml:space="preserve">
<g id="Layer_1">
</g>
<g id="Layer_2">
	<path fill="#221E20" d="M574.981,177.638c-8.783-31.24-38.089-59.644-109.369-59.644c-58.858,0-87.321,11.144-95.887,18.587
		c-5.646,4.906-8.049,8.024-8.049,17.289v168.453c0,15.655,12.691,28.346,28.346,28.346h33.464
		c15.655,0,28.346-12.691,28.346-28.346V175.08c0-12.205,35.236-16.929,35.236,9.055c0,7.545-0.197,138.188-0.197,138.188
		c0,15.655,12.691,28.346,28.346,28.346h33.464c15.655,0,28.346-12.691,28.346-28.346V200.432
		C577.028,188.769,575.583,179.781,574.981,177.638z"/>
	<path fill="#221E20" d="M98.292,115.432c-69.684,0-92.011,21.433-95.306,27.154c-5.802,10.074,2.905,29.732,17.846,30.818
		c12.07,0.877,53.129-21.842,100.294-8.366c16.535,4.724,13.976,25.197,13.976,31.693s-4.134,8.858-12.992,8.858
		S0,192.006,0,278.226c0,65.551,76.574,74.999,108.201,74.999c31.626,0,108.201,1.181,108.201-33.071v-129.92
		C216.401,153.227,178.606,115.432,98.292,115.432z M132.995,295.653c0,8.948-5.546,17.339-22.477,17.339
		c-12.844,0-23.936-11.384-23.936-36.636c0-22.621,10.801-36.632,23.936-36.632c15.471,0,22.477,9.633,22.477,16.075V295.653z"/>
	<g>
		<path fill="#DE4536" d="M345.597,0H224.673c-12.83,0-13.649,13.284-13.649,13.284v91.159c0,17.953,18.289,17.544,18.289,17.544
			v18.433c0,8.97,12.929,11.954,25.386,4.88l41.742-23.584h48.338c13.375,0,15.559-14.368,15.559-14.368V16.265
			C360.338,1.357,345.597,0,345.597,0z M341.23,102.739h-35.486c-13.102,0-21.565,5.422-21.565,5.422l-36.578,21.958v-10.902
			c0-17.579-18.289-17.29-18.289-17.29V17.892H341.23V102.739z"/>
		<path fill="#DE4536" d="M324.033,65.601h-74.52v17.892h74.52V65.601z"/>
		<path fill="#DE4536" d="M324.033,38.179h-74.52v17.89h74.52V38.179z"/>
	</g>
	<path fill="#221E20" d="M308.406,144.721c-10.54,0-16.237,2.564-16.237,2.564s-35.126,18.627-38.808,20.58
		c-9.49,5.034-9.008,13.783-9.008,13.783v140.676c0,15.655,12.691,28.346,28.346,28.346h33.464
		c15.655,0,28.346-12.691,28.346-28.346V159.332c0-8.212-3.838-14.611-11.85-14.611H308.406z"/>
</g>
</svg>
