<?xml version="1.0" standalone="no"?>
<!DOCTYPE svg PUBLIC "-//W3C//DTD SVG 1.1//EN" "http://www.w3.org/Graphics/SVG/1.1/DTD/svg11.dtd" >
<svg xmlns="http://www.w3.org/2000/svg">
<metadata></metadata>
<defs>
<font id="gt_pressuraregular" horiz-adv-x="1054" >
<font-face units-per-em="2048" ascent="1638" descent="-410" />
<missing-glyph horiz-adv-x="471" />
<glyph unicode=" "  horiz-adv-x="471" />
<glyph unicode="&#x09;" horiz-adv-x="471" />
<glyph unicode="&#xa0;" horiz-adv-x="471" />
<glyph unicode="!" horiz-adv-x="538" d="M143 41v170q0 16 12.5 28.5t28.5 12.5h170q16 0 28.5 -12.5t12.5 -28.5v-170q0 -16 -12 -28.5t-29 -12.5h-170q-16 0 -28.5 12.5t-12.5 28.5zM170 430v963q0 16 12.5 28.5t28.5 12.5h115q16 0 28.5 -12.5t12.5 -28.5v-963q0 -16 -12.5 -28.5t-28.5 -12.5h-115 q-16 0 -28.5 12.5t-12.5 28.5z" />
<glyph unicode="&#x22;" horiz-adv-x="833" d="M90 923.5q-10 22.5 2 45.5l94 172q6 10 -1 18t-17 8h-35q-16 0 -28.5 12.5t-12.5 28.5v185q0 16 12.5 28.5t28.5 12.5h184q16 0 28.5 -12.5t12.5 -28.5v-185q0 -41 -11 -70.5t-30 -56.5l-106 -149q-6 -10 -18.5 -20.5t-34.5 -10.5h-29q-29 0 -39 22.5zM499.5 923.5 q-10.5 22.5 2.5 45.5l94 172q6 10 -1 18t-17 8h-35q-16 0 -28.5 12.5t-12.5 28.5v185q0 16 12 28.5t29 12.5h184q16 0 28.5 -12.5t12.5 -28.5v-185q0 -41 -11.5 -70.5t-29.5 -56.5l-106 -149q-6 -10 -18.5 -20.5t-35.5 -10.5h-28q-29 0 -39.5 22.5z" />
<glyph unicode="#" horiz-adv-x="1181" d="M84 375l12 76q4 16 18.5 28.5t30.5 12.5h103q20 0 24 20l66 369q4 20 -16 20h-103q-16 0 -27.5 12.5t-7.5 28.5l13 76q4 16 18 28.5t31 12.5h102q20 0 25 20l55 314q4 16 17.5 28.5t29.5 12.5h86q16 0 27.5 -12.5t7.5 -28.5l-55 -314q-4 -20 16 -20h197q20 0 24 20 l56 314q4 16 17 28.5t30 12.5h86q16 0 27.5 -12.5t6.5 -28.5l-55 -314q-4 -20 17 -20h102q16 0 26.5 -12.5t6.5 -28.5l-13 -76q-4 -16 -17 -28.5t-30 -12.5h-102q-20 0 -25 -20l-65 -369q-4 -20 16 -20h103q16 0 26 -12.5t6 -28.5l-12 -76q-4 -16 -17.5 -28.5t-29.5 -12.5 h-102q-20 0 -25 -21l-49 -272q-4 -16 -17.5 -28.5t-29.5 -12.5h-86q-16 0 -27.5 12.5t-7.5 28.5l49 272q4 20 -16 21h-187q-10 0 -21 -5t-13 -16l-50 -272q-4 -16 -17 -28.5t-30 -12.5h-86q-16 0 -27.5 12.5t-7.5 28.5l50 272q4 20 -17 21h-102q-16 0 -27.5 12t-7.5 29z M440 512q-4 -20 17 -20h196q20 0 25 20l65 369q4 20 -16 20h-197q-20 0 -24 -20z" />
<glyph unicode="$" horiz-adv-x="1044" d="M61 410v32q0 16 12.5 28.5t28.5 12.5h115q16 0 28.5 -12t12.5 -29v-32q0 -49 19.5 -92.5t55.5 -74t84 -48t105 -17.5t105.5 17.5t84.5 49t55 73.5t19 92q0 72 -24.5 114.5t-69.5 70.5t-108.5 44t-141.5 35q-74 16 -136 48t-108 80t-72 113.5t-26 149.5q0 76 25 138.5 t68 110.5t100 79.5t121 48.5q20 6 20 20v74q0 16 12.5 28.5t28.5 12.5h92q16 0 28.5 -12.5t12.5 -28.5v-74q1 -14 21 -20q70 -16 127 -52t98 -86.5t64.5 -110.5t23.5 -128v-27q0 -16 -12 -28.5t-29 -12.5h-113q-16 0 -28 12.5t-12 28.5v27q0 51 -20.5 87t-53.5 59.5 t-73 33.5t-79 10q-100 0 -163.5 -51t-61.5 -139q0 -68 29.5 -107.5t74.5 -63.5t99.5 -36t103.5 -24q174 -39 276.5 -146.5t102.5 -277.5q0 -86 -28.5 -156t-77 -124t-113 -89t-135.5 -49q-20 -6 -21 -21v-73q0 -16 -12 -28.5t-29 -12.5h-92q-16 0 -28.5 12t-12.5 29v73 q0 14 -20 21q-78 18 -142.5 58t-111.5 94.5t-73 122t-26 143.5z" />
<glyph unicode="%" horiz-adv-x="1325" d="M123 1095.5q0 41.5 8 102.5q6 41 23.5 80t47 68.5t69.5 48t91 18.5q92 0 155 -58.5t75 -156.5q8 -61 8 -102t-8 -103q-4 -43 -21.5 -82t-47 -68.5t-69.5 -47t-92 -17.5q-92 0 -155.5 57.5t-75.5 157.5q-8 61 -8 102.5zM147 57l875 1346q18 31 45 31h78q20 0 33.5 -18.5 t-0.5 -39.5l-873 -1345q-18 -31 -43 -31h-82q-20 0 -32.5 17.5t-0.5 39.5zM272 1096q0 -47 4 -88q4 -29 25.5 -53.5t60.5 -24.5q33 0 57.5 21.5t29.5 56.5q6 41 6 88t-6 88q-4 29 -26 51t-61 22q-33 0 -57 -19t-29 -54q-4 -41 -4 -88zM725 338q0 41 8 102q6 41 23.5 80 t47.5 68.5t70 48t91 18.5q92 0 154.5 -58t74.5 -157q8 -61 8 -102t-8 -102q-4 -43 -21.5 -82t-47 -69t-69.5 -47.5t-91 -17.5q-92 0 -156 57.5t-76 158.5q-8 61 -8 102zM874.5 338q-0.5 -47 4.5 -88q4 -29 25.5 -53.5t60.5 -24.5q33 0 57.5 21.5t28.5 56.5q6 41 5 88t-5 88 q-4 29 -25.5 51.5t-60.5 22.5q-33 0 -57.5 -19.5t-28.5 -54.5q-4 -41 -4.5 -88z" />
<glyph unicode="&#x26;" horiz-adv-x="1239" d="M102 416q0 94 51 184t117 156q14 12 11.5 25.5t-11.5 23.5q-41 59 -67.5 119.5t-26.5 134.5q0 82 26.5 150.5t76 118.5t121 78t161.5 28q82 0 148.5 -28t113.5 -78t74 -118.5t27 -150.5v-31q0 -16 -12.5 -28.5t-28.5 -12.5h-105q-16 0 -28.5 12.5t-12.5 28.5v31 q0 90 -45 145.5t-133 55.5q-104 0 -151.5 -55.5t-47.5 -145.5q0 -37 23 -82t53.5 -88t60 -80t46.5 -55l272 -334q4 -6 10 -6t9 8q2 16 4 43q2 23 3 59.5t1 89.5q0 16 12 28.5t29 12.5h92q16 0 28.5 -12t12.5 -29q0 -84 -3 -140t-8.5 -92t-11.5 -56.5t-12 -34.5 q-2 -4 -4 -14.5t8 -20.5l158 -180q16 -20 7 -48t-44 -28h-100q-23 0 -31 7t-14 13l-76 82q-10 12 -17.5 8t-11.5 -8q-59 -55 -136 -86.5t-171 -31.5q-96 0 -178 34.5t-141.5 93t-93.5 137.5t-34 167zM293 416q0 -49 18.5 -94.5t52 -79t81 -54t104.5 -20.5q53 0 98 17.5 t80 45.5q4 4 7 8.5t-3 12.5l-317 385q-4 6 -8.5 4t-6.5 -4q-41 -41 -73.5 -98.5t-32.5 -122.5z" />
<glyph unicode="'" horiz-adv-x="423" d="M90 923.5q-10 22.5 2 45.5l94 172q6 10 -1 18t-17 8h-35q-16 0 -28.5 12.5t-12.5 28.5v185q0 16 12.5 28.5t28.5 12.5h184q16 0 28.5 -12.5t12.5 -28.5v-185q0 -41 -11 -70.5t-30 -56.5l-106 -149q-6 -10 -18.5 -20.5t-34.5 -10.5h-29q-29 0 -39 22.5z" />
<glyph unicode="(" horiz-adv-x="698" d="M119 646q0 81 2 156t5 138.5t9 103.5q10 84 45 162t93.5 137.5t139.5 95.5t183 36h25q16 0 28.5 -12.5t12.5 -28.5v-99q0 -16 -12.5 -28.5t-28.5 -12.5h-25q-100 0 -179 -68.5t-98 -181.5q-10 -63 -15 -171.5t-5 -227.5t5 -227.5t15 -171.5q6 -45 28 -89t57.5 -80 t84 -58.5t107.5 -22.5h37q16 0 28.5 -12.5t12.5 -28.5v-98q0 -16 -12.5 -28.5t-28.5 -12.5h-37q-92 0 -171 29.5t-139.5 86t-99.5 136t-51 178.5q-6 41 -9 105.5t-5 139t-2 155.5z" />
<glyph unicode=")" horiz-adv-x="698" d="M20 -45q0 16 12.5 28.5t28.5 12.5h37q59 0 107.5 22.5t84.5 58.5t57.5 80t27.5 89q10 63 15 171.5t5 227.5t-5 227.5t-15 171.5q-18 113 -97 181.5t-180 68.5h-24q-16 0 -28.5 12.5t-12.5 28.5v99q0 16 12 28.5t29 12.5h24q100 0 182 -36t140.5 -95.5t93.5 -137.5 t45 -162q6 -41 9 -104t5 -138t1 -156t-2 -155.5t-5 -139t-8 -105.5q-12 -98 -51 -178t-99.5 -136.5t-139.5 -86t-171 -29.5h-37q-16 0 -28.5 12t-12.5 29v98z" />
<glyph unicode="*" horiz-adv-x="741" d="M104.5 1267.5q-4.5 16.5 6.5 30.5l43 76q8 14 23.5 19.5t31.5 -4.5l80 -52l-2 97q0 16 12 28.5t29 12.5h86q16 0 28.5 -12.5t12.5 -28.5l-4 -97l81 52q14 10 31 5t25 -22l43 -74q10 -14 6 -29.5t-21 -25.5l-86 -45l86 -45q16 -8 20.5 -24.5t-5.5 -30.5l-43 -76 q-8 -14 -23.5 -19.5t-32.5 5.5l-81 49l4 -94q0 -16 -12.5 -28.5t-28.5 -12.5h-86q-16 0 -28.5 12t-12.5 29l2 96l-80 -51q-14 -10 -30.5 -5t-24.5 21l-43 74q-10 14 -6 29.5t20 25.5l84 45l-84 45q-16 8 -20.5 24.5z" />
<glyph unicode="+" horiz-adv-x="1105" d="M102 459v106q0 16 12.5 28.5t28.5 12.5h295q20 0 21 21v295q0 16 12 28.5t29 12.5h106q16 0 28.5 -12.5t12.5 -28.5v-295q0 -20 21 -21h295q16 0 28.5 -12t12.5 -29v-106q0 -16 -12.5 -28.5t-28.5 -12.5h-295q-20 0 -21 -21v-295q0 -16 -12 -28.5t-29 -12.5h-106 q-16 0 -28.5 12.5t-12.5 28.5v295q0 20 -21 21h-295q-16 0 -28.5 12t-12.5 29z" />
<glyph unicode="," horiz-adv-x="581" d="M172 -243.5q-10 22.5 2 44.5l94 172q6 10 -1 18.5t-17 8.5h-35q-16 0 -28.5 12.5t-12.5 28.5v184q0 16 12.5 28.5t28.5 12.5h184q16 0 28.5 -12t12.5 -29v-184q0 -41 -11 -70.5t-30 -56.5l-106 -150q-6 -10 -18.5 -20t-34.5 -10h-29q-29 0 -39 22.5z" />
<glyph unicode="-" horiz-adv-x="927" d="M143 477v139q0 16 12.5 28.5t28.5 12.5h559q16 0 28.5 -12t12.5 -29v-139q0 -16 -12 -28.5t-29 -12.5h-559q-16 0 -28.5 12.5t-12.5 28.5z" />
<glyph unicode="." horiz-adv-x="579" d="M154 41v184q0 16 12 28.5t29 12.5h184q16 0 28.5 -12t12.5 -29v-184q0 -16 -12.5 -28.5t-28.5 -12.5h-184q-16 0 -28.5 12.5t-12.5 28.5z" />
<glyph unicode="/" horiz-adv-x="937" d="M106 33l545 1390q10 31 39 31h107q20 0 31.5 -17.5t0.5 -39.5l-540 -1391q-10 -31 -43 -31h-107q-20 0 -31.5 17.5t-1.5 40.5z" />
<glyph unicode="0" horiz-adv-x="1064" d="M76 718q0 85 4 165t12 141q10 84 42 161t87 136t132 94t179 35q186 0 301 -113.5t140 -312.5q8 -61 11 -142t3 -165t-4 -165t-10 -142q-10 -84 -42 -162t-86 -136.5t-133 -93t-180 -34.5q-186 0 -300.5 113.5t-139.5 312.5q-8 61 -12 142t-4 166zM260 716q0 -83 4 -163 t12 -143q6 -45 23.5 -89.5t49.5 -78t77 -54t106 -20.5q104 0 172 64.5t84 177.5q8 63 13.5 143t5.5 163t-5 162.5t-14 145.5q-6 45 -23 89t-48 78t-77 54.5t-108 20.5q-102 0 -171.5 -63.5t-84.5 -178.5q-8 -66 -12 -145.5t-4 -162.5z" />
<glyph unicode="1" horiz-adv-x="743" d="M68 926v125q0 45 22 67l311 297q18 18 41 19h127q16 0 28.5 -12.5t12.5 -28.5v-1352q0 -16 -12 -28.5t-29 -12.5h-108q-16 0 -28.5 12.5t-12.5 28.5v1124q0 10 -7 11.5t-12 -2.5l-288 -265q-14 -12 -29.5 -6t-15.5 23z" />
<glyph unicode="2" horiz-adv-x="946" d="M61 41v133q0 23 6.5 34t12.5 17l463 533q127 145 127 301q0 88 -56.5 147.5t-146.5 59.5q-41 0 -77 -17.5t-63.5 -46t-44 -65.5t-16.5 -78v-31q0 -16 -12 -28.5t-29 -12.5h-106q-16 0 -28.5 9.5t-12.5 31.5v31q0 82 29.5 153.5t82 124t124 83t153.5 30.5t152.5 -30.5 t122 -83t81 -124t29.5 -153.5q0 -119 -39 -215t-117 -189l-385 -440q-8 -10 -4 -21.5t21 -11.5h516q16 0 28.5 -9t12.5 -32v-100q0 -16 -9.5 -28.5t-31.5 -12.5h-742q-16 0 -28.5 12.5t-12.5 28.5z" />
<glyph unicode="3" horiz-adv-x="995" d="M61 406v14q0 16 12.5 28.5t28.5 12.5h113q16 0 28.5 -12.5t12.5 -28.5v-14q0 -47 17.5 -88.5t48 -72t74.5 -49t98 -18.5q51 0 95 18.5t74.5 49t48 71.5t17.5 89q0 43 -11 87t-37 79.5t-71 58t-112 22.5h-25q-16 0 -28.5 12.5t-12.5 28.5v109q0 16 12.5 28.5t28.5 12.5h25 q51 0 89 18.5t62.5 49t36.5 69.5t12 78t-15 74.5t-42 62.5t-64.5 43t-82.5 16q-47 0 -85 -16t-65 -43t-42 -62.5t-15 -74.5v-31q0 -16 -12.5 -28.5t-28.5 -12.5h-111q-16 0 -28.5 12.5t-12.5 28.5v31q0 82 31 153.5t84 124t127 83t158 30.5t156.5 -30.5t126.5 -83t85 -124 t31 -153.5q0 -86 -31 -158t-88 -123q-29 -25 -2 -49q68 -59 110 -142t42 -181q0 -88 -34 -165t-92.5 -134.5t-137 -90t-166.5 -32.5q-90 0 -169 32.5t-137.5 90t-92.5 134t-34 165.5z" />
<glyph unicode="4" horiz-adv-x="1005" d="M31 307v90q0 23 10 40.5t22 37.5l531 930q10 16 18.5 22.5t24.5 6.5h127q16 0 28.5 -12.5t12.5 -28.5v-932q0 -20 20 -21h99q16 0 28.5 -12t12.5 -29v-92q0 -16 -12.5 -28.5t-28.5 -12.5h-99q-20 0 -20 -20v-205q0 -16 -12.5 -28.5t-28.5 -12.5h-96q-16 0 -28.5 12.5 t-12.5 28.5v205q0 20 -21 20h-534q-16 0 -28.5 12.5t-12.5 28.5zM252 457q-10 -16 8 -17h346q20 0 21 21v643q0 10 -6.5 10t-10.5 -6z" />
<glyph unicode="5" horiz-adv-x="1024" d="M102 358q0 20 12.5 30.5t28.5 10.5h105q16 0 28.5 -12t12.5 -29q0 -43 19.5 -77.5t51 -59t73.5 -39t87 -14.5q115 0 177.5 86t62.5 215q0 131 -63.5 216t-176.5 85q-63 0 -111.5 -35t-72.5 -88q-10 -23 -39 -22h-111q-16 0 -28.5 12t-12.5 29v727q0 16 12.5 28.5 t28.5 12.5h662q16 0 28.5 -12.5t12.5 -28.5v-103q0 -16 -12.5 -28.5t-28.5 -12.5h-508q-20 0 -21 -20v-307q0 -16 11.5 -24.5t34.5 7.5q31 25 77.5 37t77.5 12q96 0 174 -38.5t133.5 -105.5t85 -155t29.5 -186t-28.5 -186t-84 -155t-133.5 -105.5t-176 -38.5 q-82 0 -156.5 28.5t-133 78.5t-93.5 118.5t-35 148.5z" />
<glyph unicode="6" horiz-adv-x="1036" d="M88 717q0 84 4 165t10 142q10 88 43 166t87.5 135t126 91t161.5 34q82 0 153.5 -30.5t125 -83t84 -124t30.5 -153.5q0 -16 -12 -28.5t-29 -12.5h-106q-16 0 -28.5 12t-12.5 29q0 39 -13.5 75.5t-39 66.5t-63.5 47.5t-89 17.5q-104 0 -157.5 -58.5t-75.5 -171.5 q-6 -31 -10.5 -83t-2.5 -93q0 -12 10.5 -18t22.5 4q31 23 89 51.5t136 28.5q86 0 161 -33t130.5 -90.5t89 -134t39.5 -162.5q4 -49 0 -107q-4 -86 -37.5 -161.5t-90 -132t-131.5 -89t-161 -32.5q-90 0 -163.5 32.5t-129 91t-91 135t-46.5 167.5q-8 61 -11 142t-3 165z M303 397q12 -94 70.5 -159.5t158.5 -65.5t159 65.5t71 159.5q6 59 0 111q-12 94 -70.5 161.5t-159.5 67.5q-100 0 -158.5 -59.5t-70.5 -169.5q-6 -52 0 -111z" />
<glyph unicode="7" horiz-adv-x="860" d="M20 1290v103q0 16 12.5 28.5t28.5 12.5h738q16 0 28.5 -12.5t12.5 -28.5v-138q0 -18 -11 -41l-495 -1183q-14 -31 -39 -31h-123q-29 0 -36 17.5t-1 31.5l502 1180q8 20 -14 20h-562q-16 0 -28.5 12.5t-12.5 28.5z" />
<glyph unicode="8" horiz-adv-x="1064" d="M86 406q0 98 41 181t111 142q14 12 11 25.5t-13 23.5q-53 53 -85 125t-32 156q0 82 30.5 153.5t86 124t132 83t167.5 30.5q88 0 163.5 -30.5t131 -83t87 -124t31.5 -153.5q0 -86 -31.5 -157t-87.5 -124q-10 -10 -13 -23.5t11 -25.5q68 -59 110 -142t42 -181 q0 -88 -34 -165t-94 -134.5t-142 -90t-177 -32.5q-96 0 -178 32.5t-141 90t-93 134t-34 165.5zM276 406q0 -100 70.5 -167t185.5 -67q113 0 184.5 66.5t71.5 167.5q0 49 -19 93t-53 75.5t-81 50t-103 18.5q-115 0 -185.5 -68.5t-70.5 -168.5zM303 1059q0 -90 62.5 -150.5 t166.5 -60.5t167 60.5t63 150.5t-62.5 148.5t-167.5 58.5q-104 0 -166.5 -58.5t-62.5 -148.5z" />
<glyph unicode="9" horiz-adv-x="1026" d="M74 928q-4 49 0 106q4 86 37.5 162t90 132t131.5 89t161 33q88 0 162.5 -33t130 -91t91 -136t46.5 -166q8 -61 11 -142t3 -165t-4 -165t-10 -142q-10 -88 -44 -166t-88.5 -135.5t-128 -91t-161.5 -33.5q-82 0 -158 30.5t-133 83t-91 124t-34 153.5q0 16 12.5 28.5 t28.5 12.5h106q16 0 28.5 -12.5t12.5 -28.5q0 -39 19.5 -76t51.5 -66.5t73 -47t84 -17.5q104 0 164.5 65.5t83.5 176.5q14 70 14 170q0 14 -11.5 18t-25.5 -6q-31 -25 -93.5 -54.5t-139.5 -29.5q-86 0 -161 32.5t-130.5 90t-89 134.5t-39.5 163zM264 926q12 -94 70.5 -162 t159.5 -68q100 0 158.5 59.5t70.5 170.5q6 51 0 110q-12 94 -70.5 160t-158.5 66t-159 -66t-71 -160q-6 -59 0 -110z" />
<glyph unicode=":" horiz-adv-x="579" d="M170 41v184q0 16 12.5 28.5t28.5 12.5h184q16 0 28.5 -12t12.5 -29v-184q0 -16 -12 -28.5t-29 -12.5h-184q-16 0 -28.5 12.5t-12.5 28.5zM170 778v185q0 16 12.5 28.5t28.5 12.5h184q16 0 28.5 -12.5t12.5 -28.5v-185q0 -16 -12 -28.5t-29 -12.5h-184q-16 0 -28.5 12.5 t-12.5 28.5z" />
<glyph unicode=";" horiz-adv-x="581" d="M168 -243.5q-10 22.5 2 44.5l94 172q6 10 -1 18.5t-17 8.5h-35q-16 0 -28.5 12.5t-12.5 28.5v184q0 16 12.5 28.5t28.5 12.5h184q16 0 28.5 -12t12.5 -29v-184q0 -41 -11 -70.5t-30 -56.5l-106 -150q-6 -10 -18.5 -20t-34.5 -10h-29q-29 0 -39 22.5zM170 778v185 q0 16 12.5 28.5t28.5 12.5h184q16 0 28.5 -12.5t12.5 -28.5v-185q0 -16 -12 -28.5t-29 -12.5h-184q-16 0 -28.5 12.5t-12.5 28.5z" />
<glyph unicode="&#x3c;" horiz-adv-x="983" d="M61 463v100q0 29 31 45l742 416q14 8 30.5 -3t16.5 -36v-123q0 -25 -31 -43l-547 -299q-6 -2 -6 -8t6 -8l547 -299q31 -18 31 -43v-123q0 -25 -15.5 -35t-31.5 -4l-742 418q-31 16 -31 45z" />
<glyph unicode="=" horiz-adv-x="1105" d="M102 270v107q0 16 12.5 28.5t28.5 12.5h820q16 0 28.5 -12.5t12.5 -28.5v-107q0 -16 -12.5 -28.5t-28.5 -12.5h-820q-16 0 -28.5 12.5t-12.5 28.5zM102 647v107q0 16 12.5 28.5t28.5 12.5h820q16 0 28.5 -12.5t12.5 -28.5v-107q0 -16 -12.5 -28.5t-28.5 -12.5h-820 q-16 0 -28.5 12.5t-12.5 28.5z" />
<glyph unicode="&#x3e;" horiz-adv-x="983" d="M102 39v123q0 25 31 43l547 299q16 8 0 16l-547 299q-31 18 -31 43v123q0 25 16.5 36t31.5 3l741 -416q31 -16 31 -45v-100q0 -29 -31 -45l-741 -418q-14 -8 -31 3t-17 36z" />
<glyph unicode="?" horiz-adv-x="952" d="M92 1028v31q0 82 29 153.5t80 126t121.5 85t152.5 30.5t152.5 -28.5t122 -81t81 -125t29.5 -160.5q0 -111 -48 -187.5t-134 -142.5q-23 -16 -45.5 -31.5t-41 -33t-30.5 -39t-12 -52.5v-143q0 -16 -12.5 -28.5t-28.5 -12.5h-105q-16 0 -28.5 12.5t-12.5 28.5v172 q0 82 37 125q27 31 50.5 50.5t46 34.5t45 31.5t47.5 39.5q33 33 58.5 78t25.5 98q0 84 -51.5 145.5t-145.5 61.5q-43 0 -80 -18.5t-62.5 -47.5t-39.5 -66.5t-14 -74.5v-31q0 -16 -12.5 -28.5t-28.5 -12.5h-105q-16 0 -28.5 12.5t-12.5 28.5zM332 41v170q0 16 12 28.5 t29 12.5h170q16 0 28.5 -12.5t12.5 -28.5v-170q0 -16 -12.5 -28.5t-28.5 -12.5h-170q-16 0 -28.5 12.5t-12.5 28.5z" />
<glyph unicode="@" horiz-adv-x="1669" d="M123 553q0 162 53 300t148.5 239.5t229.5 160t296 58.5q154 0 282 -49.5t220 -139.5t143 -216t51 -281q0 -115 -21.5 -204t-60.5 -150.5t-91 -94.5t-113 -33q-51 0 -78 10.5t-58 30.5q-27 16 -52 17.5t-64 -17.5q-31 -16 -72 -28.5t-88 -12.5q-102 0 -175 33t-118 88 t-65.5 129t-20.5 158q0 88 26.5 165t76 133t119 88t157.5 32q143 0 230 -80t87 -213v-287q0 -47 22.5 -74.5t61.5 -27.5q27 0 51.5 17.5t43 57t28.5 104t10 159.5q0 117 -33.5 215t-101 169.5t-167 112.5t-230.5 41q-117 0 -217.5 -46t-175 -127t-117.5 -193.5t-43 -245.5 q0 -121 40 -227.5t111.5 -186.5t174 -127t225.5 -47q59 0 113.5 10t103.5 33q20 10 34.5 0t14.5 -31v-57q0 -25 -15.5 -36t-33.5 -21q-33 -18 -95.5 -31.5t-121.5 -13.5q-164 0 -298 58t-229.5 157.5t-146.5 233.5t-51 288zM647 551q0 -47 10.5 -94t34 -85t61.5 -61.5 t95 -23.5q66 0 113 40t47 117v232q0 74 -47.5 110.5t-112.5 36.5q-51 0 -89 -23.5t-62.5 -61.5t-37 -87t-12.5 -100z" />
<glyph unicode="A" horiz-adv-x="999" d="M8 41l381 1362q6 31 39 31h143q33 0 39 -31l381 -1362q1 -4 1 -8q0 -9 -7 -19q-10 -14 -35 -14h-112q-29 0 -39 31l-90 313q-6 29 -39 29h-340q-29 0 -39 -29l-90 -313q-10 -31 -39 -31h-113q-25 0 -35 14q-7 10 -7 19q0 4 1 8zM356 586q-1 -5 -1 -9q0 -14 18 -14h254 q18 0 18 14q0 4 -2 9l-133 571q-4 12 -8 12h-4q-6 0 -9 -12z" />
<glyph unicode="B" horiz-adv-x="1034" d="M133 41v1352q0 16 12.5 28.5t28.5 12.5h379q82 0 155.5 -29t128 -79t86 -120.5t31.5 -152.5q0 -72 -28.5 -149t-87.5 -128q-29 -25 0 -45q63 -51 104 -138t41 -175q0 -90 -34 -166t-92 -132.5t-137 -88t-167 -31.5h-379q-16 0 -28.5 12.5t-12.5 28.5zM324 215 q0 -20 20 -20h209q47 0 90 17t75 48t51 71t19 87q0 53 -19 98t-51 77t-75 49t-90 17h-209q-8 4 -14 -3t-6 -17v-424zM324 864q0 -20 20 -20h209q100 0 153.5 59.5t53.5 149.5q0 45 -17.5 79.5t-46 58t-66.5 36t-77 12.5h-209q-20 0 -20 -20v-355z" />
<glyph unicode="C" horiz-adv-x="1112" d="M92 718q0 85 4 165t13 141q10 84 44.5 161t93 136t139.5 94t183 35q92 0 176 -28.5t146.5 -84t100.5 -134.5t38 -179v-29q0 -16 -12 -28.5t-29 -12.5h-112q-16 0 -28.5 12.5t-12.5 28.5v29q0 45 -18.5 87t-53.5 74t-84 51t-111 19q-100 0 -176 -59t-90 -172 q-8 -63 -12 -143t-4 -164t4 -164t12 -143q6 -45 25.5 -87t53.5 -74t81 -51.5t106 -19.5q51 0 99.5 15.5t85.5 44t59.5 72.5t22.5 100v28q0 16 12 28.5t29 12.5h112q16 0 28.5 -12t12.5 -29v-28q0 -86 -33.5 -163t-95 -135.5t-146.5 -93t-186 -34.5q-92 0 -171 29.5t-139 85 t-99 134t-51 177.5q-8 61 -12.5 142t-4.5 166z" />
<glyph unicode="D" horiz-adv-x="1101" d="M133 41v1352q0 16 12.5 28.5t28.5 12.5h389q88 0 163 -34t130 -92.5t91 -137t46 -166.5q8 -61 11.5 -136t3.5 -152t-4.5 -150.5t-10.5 -135.5q-10 -88 -45 -167t-91 -137t-131 -92t-163 -34h-389q-16 0 -28.5 12.5t-12.5 28.5zM328 215q0 -20 20 -20h215q47 0 88 19 t72 52t50.5 75t25.5 89q8 61 11 135t3 151t-3 151.5t-11 136.5q-6 45 -25.5 88t-50.5 75.5t-72 52t-88 19.5h-215q-20 0 -20 -20v-1004z" />
<glyph unicode="E" horiz-adv-x="962" d="M133 41v1352q0 16 12.5 28.5t28.5 12.5h662q16 0 28.5 -12.5t12.5 -28.5v-113q0 -16 -12.5 -28.5t-28.5 -12.5h-488q-20 0 -20 -20v-369q0 -20 20 -21h465q16 0 28.5 -12t12.5 -29v-112q0 -16 -12.5 -28.5t-28.5 -12.5h-465q-20 0 -20 -21v-399q0 -20 20 -20h492 q16 0 28.5 -12.5t12.5 -28.5v-113q0 -16 -12.5 -28.5t-28.5 -12.5h-666q-16 0 -28.5 12.5t-12.5 28.5z" />
<glyph unicode="F" horiz-adv-x="917" d="M133 41v1352q0 16 12.5 28.5t28.5 12.5h662q16 0 28.5 -12.5t12.5 -28.5v-113q0 -16 -12.5 -28.5t-28.5 -12.5h-488q-20 0 -20 -20v-369q0 -20 20 -21h465q16 0 28.5 -12t12.5 -29v-112q0 -16 -12.5 -28.5t-28.5 -12.5h-465q-20 0 -20 -21v-573q0 -16 -12.5 -28.5 t-28.5 -12.5h-113q-16 0 -28.5 12.5t-12.5 28.5z" />
<glyph unicode="G" horiz-adv-x="1118" d="M92 718q0 85 4 165t13 141q10 84 44.5 161t93 136t139.5 94t183 35q92 0 176 -28.5t146.5 -84t100.5 -134.5t38 -179v-29q0 -16 -12 -28.5t-29 -12.5h-112q-16 0 -28.5 12.5t-12.5 28.5v29q0 45 -18.5 87t-53.5 74t-84 51t-111 19q-100 0 -176 -59t-90 -172 q-8 -63 -12 -143t-4 -164t4 -164t12 -143q6 -45 25.5 -87t53.5 -74t81 -51.5t106 -19.5q51 0 99.5 13.5t85.5 42t59.5 72.5t22.5 104v172q0 20 -21 20h-186q-16 0 -28.5 12.5t-12.5 28.5v113q0 16 12 28.5t29 12.5h360q16 0 28.5 -12.5t12.5 -28.5v-346q0 -90 -33.5 -167 t-95 -135.5t-146.5 -91t-186 -32.5q-92 0 -171 29.5t-139 85t-99 134t-51 177.5q-8 61 -12.5 142t-4.5 166z" />
<glyph unicode="H" horiz-adv-x="1146" d="M133 41v1352q0 16 12.5 28.5t28.5 12.5h113q16 0 28.5 -12.5t12.5 -28.5v-543q0 -20 20 -21h451q20 0 20 21v543q0 16 12.5 28.5t28.5 12.5h113q16 0 28.5 -12.5t12.5 -28.5v-1352q0 -16 -12.5 -28.5t-28.5 -12.5h-113q-16 0 -28.5 12.5t-12.5 28.5v573q0 20 -20 21h-451 q-20 0 -20 -21v-573q0 -16 -12.5 -28.5t-28.5 -12.5h-113q-16 0 -28.5 12.5t-12.5 28.5z" />
<glyph unicode="I" horiz-adv-x="460" d="M133 41v1352q0 16 12.5 28.5t28.5 12.5h113q16 0 28.5 -12.5t12.5 -28.5v-1352q0 -16 -12.5 -28.5t-28.5 -12.5h-113q-16 0 -28.5 12.5t-12.5 28.5z" />
<glyph unicode="J" horiz-adv-x="980" d="M10 410v28q0 16 12.5 28.5t28.5 12.5h113q16 0 28.5 -12t12.5 -29v-28q0 -49 18.5 -91.5t51 -73t74.5 -49t91 -18.5t91 16.5t75 48t51.5 79t18.5 108.5v963q0 16 12 28.5t29 12.5h112q16 0 28.5 -12.5t12.5 -28.5v-983q0 -96 -33.5 -175t-92 -134.5t-137.5 -86 t-167 -30.5q-90 0 -167.5 32.5t-136 91t-92.5 135t-34 167.5z" />
<glyph unicode="K" horiz-adv-x="1021" d="M133 41v1352q0 16 12.5 28.5t28.5 12.5h113q16 0 28.5 -12.5t12.5 -28.5v-492q0 -8 6 -8t10 4l397 516q4 6 13.5 13.5t31.5 7.5h113q29 0 40 -26t-5 -48l-467 -596q-10 -12 -12 -23.5t10 -25.5l524 -639q10 -13 10 -29q0 -9 -3 -19q-9 -28 -44 -28h-129q-23 0 -31 7 t-14 13l-434 543q-4 4 -10 4t-6 -8v-518q0 -16 -12.5 -28.5t-28.5 -12.5h-113q-16 0 -28.5 12.5t-12.5 28.5z" />
<glyph unicode="L" horiz-adv-x="868" d="M133 41v1352q0 16 12.5 28.5t28.5 12.5h113q16 0 28.5 -12.5t12.5 -28.5v-1178q0 -20 20 -20h459q16 0 28.5 -12.5t12.5 -28.5v-113q0 -16 -12.5 -28.5t-28.5 -12.5h-633q-16 0 -28.5 12.5t-12.5 28.5z" />
<glyph unicode="M" horiz-adv-x="1437" d="M133 41v1352q0 16 12.5 28.5t28.5 12.5h209q35 0 43 -35l283 -1012q4 -10 10 -10t10 10l283 1012q8 35 43 35h209q16 0 28.5 -12.5t12.5 -28.5v-1352q0 -16 -12.5 -28.5t-28.5 -12.5h-109q-16 0 -28.5 12.5t-12.5 28.5v1024q0 10 -7 10t-9 -6l-293 -1034q-12 -35 -43 -35 h-86q-31 0 -43 35l-293 1034q-2 6 -9 6t-7 -10v-1024q0 -16 -12.5 -28.5t-28.5 -12.5h-109q-16 0 -28.5 12.5t-12.5 28.5z" />
<glyph unicode="N" horiz-adv-x="1126" d="M133 41v1352q0 16 12.5 28.5t28.5 12.5h170q16 0 25.5 -6.5t17.5 -28.5l404 -1010q4 -6 10 -5t6 9v1000q0 16 12 28.5t29 12.5h104q16 0 28.5 -12.5t12.5 -28.5v-1352q0 -16 -12 -28.5t-29 -12.5h-170q-16 0 -25 6t-18 29l-403 1014q-4 6 -10.5 5t-6.5 -10v-1003 q0 -16 -12 -28.5t-28 -12.5h-105q-16 0 -28.5 12.5t-12.5 28.5z" />
<glyph unicode="O" horiz-adv-x="1138" d="M92 718q0 85 4 165t13 141q10 84 44.5 161t93 136t139.5 94t183 35q92 0 171 -29.5t139.5 -85t99.5 -134.5t51 -177q8 -61 11 -142t3 -165t-4 -165t-10 -142q-10 -84 -45 -162t-93 -136.5t-140 -93t-183 -34.5q-92 0 -171 29.5t-139 85t-99 134t-51 177.5 q-8 61 -12.5 142t-4.5 166zM287 717q0 -84 4 -164t12 -143q6 -45 25.5 -87t53.5 -74t81 -51.5t106 -19.5q104 0 177 60.5t90 171.5q8 63 13 143t5 164t-5 164t-13 143q-6 45 -25.5 87t-53.5 74t-80 51t-108 19q-100 0 -176 -59t-90 -172q-8 -63 -12 -143t-4 -164z" />
<glyph unicode="P" horiz-adv-x="993" d="M133 41v1352q0 16 12.5 28.5t28.5 12.5h369q88 0 166.5 -34t137 -92.5t92.5 -137t34 -166.5q0 -90 -34 -168t-92.5 -136.5t-137 -92.5t-166.5 -34h-195q-20 0 -20 -20v-512q0 -16 -12.5 -28.5t-28.5 -12.5h-113q-16 0 -28.5 12.5t-12.5 28.5zM328 788q0 -20 20 -20h195 q49 0 91 18.5t74.5 51t51 74.5t18.5 92q0 49 -18.5 91t-51 74.5t-74.5 51t-91 18.5h-195q-20 0 -20 -20v-431z" />
<glyph unicode="Q" horiz-adv-x="1138" d="M92 718q0 85 4 165t13 141q10 84 44.5 161t93 136t139.5 94t183 35q92 0 171 -29.5t139.5 -85t99.5 -134.5t51 -177q8 -61 11 -142t3 -165t-4 -165t-10 -142q-18 -170 -131 -289q-6 -6 -8 -12.5t2 -16.5l108 -219q10 -23 -1 -40t-31 -17h-125q-25 0 -41 30l-76 146 q-8 12 -23.5 10t-25.5 -6q-49 -12 -109 -12q-92 0 -171 29.5t-139 85t-99 134t-51 177.5q-8 61 -12.5 142t-4.5 166zM287 717q0 -84 4 -164t12 -143q6 -45 25.5 -87t53.5 -74t81 -51.5t106 -19.5q104 0 177 60.5t90 171.5q8 63 13 143t5 164t-5 164t-13 143q-6 45 -25.5 87 t-53.5 74t-80 51t-108 19q-100 0 -176 -59t-90 -172q-8 -63 -12 -143t-4 -164z" />
<glyph unicode="R" horiz-adv-x="1064" d="M133 41v1352q0 16 12.5 28.5t28.5 12.5h369q88 0 166.5 -34t137 -92.5t92.5 -137t34 -166.5q0 -117 -59.5 -214.5t-153.5 -152.5q-29 -16 -39 -32.5t4 -45.5l242 -498q10 -23 0.5 -42t-39.5 -19h-115q-25 0 -37 11.5t-22 29.5l-242 508q-4 10 -13.5 17t-25.5 7h-125 q-20 0 -20 -20v-512q0 -16 -12.5 -28.5t-28.5 -12.5h-113q-16 0 -28.5 12.5t-12.5 28.5zM328 788q0 -20 20 -20h195q49 0 91 18.5t74.5 51t51 74.5t18.5 92q0 49 -18.5 91t-51 74.5t-74.5 51t-91 18.5h-195q-20 0 -20 -20v-431z" />
<glyph unicode="S" horiz-adv-x="1044" d="M61 410v32q0 16 12.5 28.5t28.5 12.5h115q16 0 28.5 -12t12.5 -29v-32q0 -49 19.5 -92.5t55.5 -74t84 -48t105 -17.5t105.5 17.5t84.5 49t55 74t19 91.5q0 72 -24.5 114.5t-69.5 70.5t-108.5 44t-141.5 35q-76 16 -138 48t-107 80t-71 113.5t-26 149.5q0 92 36 163.5 t95.5 121t135 75t155.5 25.5q90 0 167 -30.5t133.5 -83t88 -122t31.5 -149.5v-27q0 -16 -12 -28.5t-29 -12.5h-113q-16 0 -28 12.5t-12 28.5v27q0 51 -20.5 87t-53.5 59.5t-73 33.5t-79 10q-100 0 -162.5 -51t-62.5 -139q0 -68 29.5 -107.5t74.5 -63.5t99.5 -36t103.5 -24 q174 -43 276.5 -145.5t102.5 -278.5q0 -98 -39 -177t-102.5 -134.5t-147.5 -85t-172 -29.5q-98 0 -183 33.5t-146.5 92t-96.5 135.5t-35 165z" />
<glyph unicode="T" horiz-adv-x="868" d="M4 1280v113q0 16 12.5 28.5t28.5 12.5h778q16 0 28.5 -12.5t12.5 -28.5v-113q0 -16 -12 -28.5t-29 -12.5h-270q-20 0 -21 -20v-1178q0 -16 -12 -28.5t-28 -12.5h-113q-16 0 -28.5 12.5t-12.5 28.5v1178q0 20 -21 20h-272q-16 0 -28.5 12.5t-12.5 28.5z" />
<glyph unicode="U" horiz-adv-x="1142" d="M111 410v983q0 16 12 28.5t29 12.5h112q16 0 28.5 -12.5t12.5 -28.5v-983q0 -61 22.5 -105.5t60.5 -72t86 -41t97 -13.5q57 0 106.5 17.5t85.5 49t55.5 73.5t19.5 92v983q0 16 12 28.5t29 12.5h112q16 0 28.5 -12.5t12.5 -28.5v-983q0 -92 -37 -170t-100.5 -135.5 t-147 -89t-176.5 -31.5q-98 0 -183 31.5t-146.5 89t-96 135t-34.5 170.5z" />
<glyph unicode="V" horiz-adv-x="1026" d="M12 1384q-1 5 -1 10q1 11 7 23q10 17 33 17h123q31 0 39 -31l285 -1092q2 -12 12 -12h4q8 0 12 12l285 1092q8 31 39 31h125q25 0 34 -16q6 -11 6 -22q0 -5 -1 -10l-383 -1355q-10 -31 -39 -31h-160q-31 0 -39 31z" />
<glyph unicode="W" horiz-adv-x="1472" d="M12 1393q-1 4 -1 9q-1 12 7 20q10 12 35 12h111q33 0 39 -31l200 -1051q2 -12 13 -12h4q8 0 12 12l176 1051q6 31 39 31h144q33 0 38 -31l193 -1051q2 -12 12 -12h4q8 0 13 12l219 1051q6 31 39 31h110q25 0 35 -12q7 -9 7 -20q0 -4 -1 -9l-291 -1362q-6 -31 -39 -31 h-174q-33 0 -38 31l-189 1022q-2 8 -8 8t-8 -8l-176 -1022q-6 -31 -39 -31h-174q-33 0 -39 31z" />
<glyph unicode="X" horiz-adv-x="1021" d="M37 57l350 684q10 16 2 29l-321 606q-10 23 1 40.5t31 17.5h131q25 0 39 -31l232 -445q8 -20 16 0l232 445q14 31 38 31h132q20 0 31.5 -17.5t0.5 -40.5l-321 -606q-8 -12 2 -29l352 -684q5 -11 5 -21q0 -11 -6 -19q-11 -17 -32 -17h-139q-27 0 -41 31l-254 508 q-8 20 -16 0l-254 -508q-14 -31 -43 -31h-135q-20 0 -32 18q-6 9 -6 20q0 9 5 19z" />
<glyph unicode="Y" horiz-adv-x="937" d="M25 1376q-5 11 -5 21t6 19q11 18 31 18h136q29 0 38 -31l232 -637q8 -20 16 0l228 637q10 31 38 31h136q20 0 31 -18q6 -8 6 -19q0 -10 -5 -21l-344 -882v-453q0 -16 -12 -28.5t-29 -12.5h-114q-16 0 -28.5 12.5t-12.5 28.5v451z" />
<glyph unicode="Z" horiz-adv-x="983" d="M70 41v154q0 16 10 32l602 998q4 8 1 14t-13 6h-539q-16 0 -28.5 12.5t-12.5 28.5v107q0 16 12.5 28.5t28.5 12.5h721q16 0 28.5 -12.5t12.5 -28.5v-148q0 -16 -10 -33l-594 -1001q-4 -8 -1 -14.5t13 -6.5h571q16 0 28.5 -12t12.5 -28v-109q0 -16 -12 -28.5t-29 -12.5 h-761q-16 0 -28.5 12.5t-12.5 28.5z" />
<glyph unicode="[" horiz-adv-x="598" d="M143 -143v1577q0 16 12.5 28.5t28.5 12.5h348q16 0 28.5 -12.5t12.5 -28.5v-97q0 -16 -12 -28.5t-29 -12.5h-190q-20 0 -20 -20v-1262q0 -20 20 -20h195q16 0 28.5 -12.5t12.5 -28.5v-96q0 -16 -12.5 -28.5t-28.5 -12.5h-353q-16 0 -28.5 12t-12.5 29z" />
<glyph unicode="\" horiz-adv-x="937" d="M109 1397q-10 23 1 40t31 17h107q29 0 39 -31l544 -1390q10 -23 -1 -40.5t-31 -17.5h-107q-33 0 -43 31z" />
<glyph unicode="]" horiz-adv-x="598" d="M20 -47q0 16 12.5 28.5t28.5 12.5h195q20 0 20 20v1262q0 20 -20 20h-190q-16 0 -28.5 12.5t-12.5 28.5v97q0 16 12 28.5t29 12.5h348q16 0 28.5 -12.5t12.5 -28.5v-1577q0 -16 -12.5 -28.5t-28.5 -12.5h-353q-16 0 -28.5 12t-12.5 29v96z" />
<glyph unicode="^" horiz-adv-x="1040" d="M194.5 1214.5q-6.5 16.5 4.5 26.5l221 229q10 10 21.5 17.5t39.5 7.5h86q27 0 38 -7t22 -18l221 -229q10 -10 4 -26.5t-27 -16.5h-120q-23 0 -38.5 11.5t-25.5 21.5l-104 100q-14 14 -29 0l-102 -100q-10 -10 -25.5 -21.5t-38.5 -11.5h-121q-20 0 -26.5 16.5z" />
<glyph unicode="_" horiz-adv-x="1249" d="M41 -41q0 16 12.5 28.5t28.5 12.5h1085q16 0 28.5 -12.5t12.5 -28.5v-72q0 -16 -12 -28.5t-29 -12.5h-1085q-16 0 -28.5 12.5t-12.5 28.5v72z" />
<glyph unicode="`" horiz-adv-x="608" d="M105 1478.5q6 16.5 26 16.5h162q23 0 34 -11t19 -22l156 -223q8 -10 0 -25.5t-29 -15.5h-82q-29 0 -40 7t-21 18l-221 229q-10 10 -4 26.5z" />
<glyph unicode="a" horiz-adv-x="997" d="M88 307q0 63 22.5 119.5t65.5 99.5t106.5 67.5t143.5 24.5h250q20 0 20 21v78q0 84 -52 124t-138 40q-27 0 -59.5 -6.5t-62.5 -21.5t-49.5 -40t-19.5 -61q0 -27 -16 -31t-31 -4h-92q-41 0 -41 41q0 72 34 125t87 89t118.5 54t131.5 18q174 0 274.5 -77.5t100.5 -249.5 v-676q0 -16 -12.5 -28.5t-28.5 -12.5h-70q-16 0 -29 14q-10 12 -17 27.5t-24 15.5q-14 0 -31.5 -12t-45 -26.5t-66.5 -26.5t-96 -12q-94 0 -165 26.5t-117 71.5t-68.5 104.5t-22.5 124.5zM272 309q0 -76 46.5 -117.5t136.5 -41.5q141 0 199.5 55t58.5 160v65q0 20 -21 21 h-266q-78 0 -116 -38t-38 -104z" />
<glyph unicode="b" horiz-adv-x="1034" d="M133 41v1366q0 16 12.5 28.5t28.5 12.5h102q16 0 28.5 -12.5t12.5 -28.5v-363q0 -29 11.5 -40t33.5 -11q14 0 33 8.5t42.5 17.5t52 17t63.5 8q80 0 148.5 -30.5t119.5 -82.5t83 -124t38 -152q4 -61 4 -143t-4 -143q-6 -80 -38 -152t-83 -124t-119.5 -82.5t-148.5 -30.5 q-57 0 -92 10t-57.5 23.5t-40 23.5t-39.5 10q-16 0 -28.5 -11t-23.5 -22q-14 -14 -28 -14h-70q-16 0 -28.5 12.5t-12.5 28.5zM293 512q0 -80 4 -143q6 -82 67.5 -143.5t167.5 -61.5t168 61.5t68 143.5q4 63 4 143t-4 143q-6 82 -67.5 143.5t-168.5 61.5q-106 0 -167.5 -61.5 t-67.5 -143.5q-4 -63 -4 -143z" />
<glyph unicode="c" horiz-adv-x="978" d="M88 512q0 82 4 143q6 80 36 152t82 124t126 82.5t166 30.5q86 0 158.5 -26.5t125 -72.5t82 -110.5t29.5 -138.5q0 -16 -9 -28.5t-26 -12.5h-110q-14 0 -26.5 8.5t-12.5 24.5q0 72 -57.5 122t-153.5 50q-106 0 -162.5 -61.5t-63.5 -143.5q-4 -63 -4 -143t4 -143 q6 -82 62.5 -143.5t163.5 -61.5q94 0 151.5 49t57.5 121q0 20 12 27.5t27 7.5h106q16 0 28.5 -12.5t12.5 -28.5q0 -74 -29.5 -138.5t-82 -110.5t-125 -72.5t-158.5 -26.5q-92 0 -166 30.5t-126 82.5t-82 124t-36 152q-4 61 -4 143z" />
<glyph unicode="d" horiz-adv-x="1034" d="M88 512q0 82 4 143q6 80 38 152t83 124t119.5 82.5t148.5 30.5q35 0 63.5 -8t51 -17t41 -17.5t35.5 -8.5q23 0 34 11.5t11 39.5v363q0 16 12 28.5t29 12.5h102q16 0 28.5 -12.5t12.5 -28.5v-1366q0 -16 -12 -28.5t-29 -12.5h-69q-14 0 -29 14q-10 10 -22.5 21.5 t-28.5 11.5q-23 0 -40.5 -10t-40 -23.5t-57.5 -23.5t-92 -10q-80 0 -148.5 30.5t-119.5 82.5t-83 124t-38 152q-4 61 -4 143zM262 512q0 -80 4 -143q6 -82 67.5 -143.5t168.5 -61.5q106 0 167.5 61.5t67.5 143.5q4 63 4 143t-4 143q-6 82 -67.5 143.5t-167.5 61.5 t-168 -61.5t-68 -143.5q-4 -63 -4 -143z" />
<glyph unicode="e" horiz-adv-x="1007" d="M88 512q0 82 4 143q6 80 38 152t86 124t129 82.5t167 30.5q186 0 298 -108.5t112 -300.5v-141q0 -16 -12.5 -28.5t-28.5 -12.5h-586q-20 0 -21 -21q0 -141 66 -204.5t172 -63.5q80 0 136.5 36t74.5 93q6 20 19.5 27.5t27.5 7.5h104q16 0 27.5 -9.5t7.5 -31.5 q-10 -68 -42.5 -124.5t-85 -97t-121 -63t-148.5 -22.5q-92 0 -167 30.5t-129 82.5t-86 124t-38 152q-4 61 -4 143zM279 637q0 -20 20 -21h426q20 0 20 21q0 106 -67.5 164.5t-163.5 58.5q-106 0 -170.5 -64.5t-64.5 -158.5z" />
<glyph unicode="f" horiz-adv-x="700" d="M10 870v103q0 16 12.5 28.5t28.5 12.5h154q20 0 20 20v31q0 80 29 150.5t80 122t120.5 81t149.5 29.5h21q16 0 28.5 -12.5t12.5 -28.5v-96q0 -16 -12.5 -28.5t-28.5 -12.5h-21q-41 0 -76.5 -17.5t-61.5 -46t-41 -65.5t-15 -76v-31q0 -20 20 -20h209q16 0 28.5 -12.5 t12.5 -28.5v-103q0 -16 -12.5 -28.5t-28.5 -12.5h-209q-20 0 -20 -20v-768q0 -16 -12.5 -28.5t-28.5 -12.5h-103q-16 0 -28.5 12.5t-12.5 28.5v768q0 20 -20 20h-154q-16 0 -28.5 12.5t-12.5 28.5z" />
<glyph unicode="g" horiz-adv-x="1028" d="M88 512q0 82 4 143q6 80 38 152t83 124t119.5 82.5t148.5 30.5q57 0 92 -10t57.5 -23.5t40 -23.5t40.5 -10q16 0 28.5 11t22.5 22q14 14 29 14h69q16 0 28.5 -12.5t12.5 -28.5v-1044q0 -74 -27.5 -141.5t-78 -118t-119 -80t-150.5 -29.5q-68 0 -131 17.5t-113.5 53 t-84 88t-43.5 121.5q-1 6 -1 11q0 36 37 37h99q33 0 40 -12.5t13 -28.5q20 -51 63.5 -77t120.5 -26q78 0 134.5 50.5t56.5 134.5v45q0 29 -11.5 39t-33.5 8q-16 0 -35 -8.5t-41.5 -17.5t-51 -17t-63.5 -8q-80 0 -148.5 30.5t-119.5 82.5t-83 124t-38 152q-4 61 -4 143z M262 512q0 -80 4 -143q6 -82 67.5 -143.5t168.5 -61.5q106 0 167.5 61.5t67.5 143.5q4 63 4 143t-4 143q-6 82 -67.5 143.5t-167.5 61.5t-168 -61.5t-68 -143.5q-4 -63 -4 -143z" />
<glyph unicode="h" horiz-adv-x="1052" d="M133 41v1366q0 16 12.5 28.5t28.5 12.5h102q16 0 28.5 -12.5t12.5 -28.5v-371q0 -14 11.5 -28.5t33.5 -14.5q14 0 33 8.5t41.5 17.5t51 17t63.5 8q80 0 151.5 -30.5t124 -82.5t83 -124t30.5 -152v-614q0 -16 -12.5 -28.5t-28.5 -12.5h-102q-16 0 -28.5 12.5t-12.5 28.5 v614q0 39 -16.5 77t-46 65.5t-69.5 45t-87 17.5t-88 -15.5t-70 -42t-45.5 -62t-16.5 -74.5v-625q0 -16 -12 -28.5t-29 -12.5h-102q-16 0 -28.5 12.5t-12.5 28.5z" />
<glyph unicode="i" horiz-adv-x="471" d="M133 1274v141q0 12 9.5 22.5t23.5 10.5h139q14 0 23.5 -10.5t9.5 -22.5v-141q0 -33 -33 -33h-139q-33 0 -33 33zM143 41v942q0 16 12.5 28.5t28.5 12.5h107q16 0 28.5 -12.5t12.5 -28.5v-942q0 -16 -12.5 -28.5t-28.5 -12.5h-107q-16 0 -28.5 12.5t-12.5 28.5z" />
<glyph unicode="j" horiz-adv-x="509" d="M-154 -287q0 16 12.5 28.5t28.5 12.5h107q78 0 131 50.5t53 134.5v1044q0 16 12.5 28.5t28.5 12.5h109q16 0 28.5 -12.5t12.5 -28.5v-1044q0 -74 -28 -141.5t-78 -118t-118.5 -80t-150.5 -29.5h-107q-16 0 -28.5 12t-12.5 29v102zM172 1274v141q0 12 9 22.5t24 10.5h139 q14 0 23.5 -10.5t9.5 -22.5v-141q0 -33 -33 -33h-139q-33 0 -33 33z" />
<glyph unicode="k" horiz-adv-x="899" d="M133 41v1366q0 16 12.5 28.5t28.5 12.5h102q16 0 28.5 -12.5t12.5 -28.5v-713q0 -8 6.5 -9t10.5 5l293 307q8 8 18 17.5t33 9.5h117q33 0 41 -25.5t-9 -42.5l-370 -395q-23 -23 0 -49l409 -444q11 -12 11 -26q0 -9 -4 -18q-11 -24 -39 -24h-138q-23 0 -34 11.5t-19 19.5 l-309 336q-4 4 -10.5 4t-6.5 -9v-321q0 -16 -12 -28.5t-29 -12.5h-102q-16 0 -28.5 12.5t-12.5 28.5z" />
<glyph unicode="l" horiz-adv-x="450" d="M133 41v1366q0 16 12.5 28.5t28.5 12.5h102q16 0 28.5 -12.5t12.5 -28.5v-1366q0 -16 -12 -28.5t-29 -12.5h-102q-16 0 -28.5 12.5t-12.5 28.5z" />
<glyph unicode="m" horiz-adv-x="1574" d="M123 41v942q0 16 12 28.5t29 12.5h90q14 0 29 -14q10 -10 21 -21.5t30 -11.5q25 0 45 10t45 23.5t55.5 23.5t77.5 10q41 0 75 -10t61.5 -25.5t49 -31.5t37.5 -31q23 -18 40.5 -18t39.5 18q16 14 40 30.5t52.5 32t65.5 25.5t82 10q88 0 155.5 -28.5t113.5 -80.5t69.5 -123 t23.5 -157v-614q0 -16 -12 -28.5t-29 -12.5h-102q-16 0 -28.5 12.5t-12.5 28.5v614q0 39 -13.5 77t-39 65.5t-62.5 45t-84 17.5t-82.5 -17.5t-60.5 -45t-38 -62.5t-13 -69v-625q0 -16 -12.5 -28.5t-28.5 -12.5h-101q-16 0 -28.5 12.5t-12.5 28.5v614q0 39 -14 77t-40.5 65.5 t-62.5 45t-79 17.5q-47 0 -84 -17.5t-62.5 -45t-39 -62.5t-13.5 -69v-625q0 -16 -12 -28.5t-29 -12.5h-102q-16 0 -28.5 12.5t-12.5 28.5z" />
<glyph unicode="n" d="M123 41v942q0 16 12 28.5t29 12.5h90q14 0 29 -14q10 -10 22 -21.5t29 -11.5q23 0 39 10t38.5 23.5t55.5 23.5t86 10q86 0 157.5 -26.5t123 -76.5t80 -123t28.5 -163v-614q0 -16 -12 -28.5t-29 -12.5h-102q-16 0 -28.5 12.5t-12.5 28.5v614q0 98 -64.5 151.5t-161.5 53.5 q-96 0 -160.5 -52t-64.5 -142v-625q0 -16 -12 -28.5t-29 -12.5h-102q-16 0 -28.5 12.5t-12.5 28.5z" />
<glyph unicode="o" horiz-adv-x="1024" d="M88 512q0 82 4 143q6 80 38 152t86 124t129 82.5t167 30.5t167 -30.5t129 -82.5t86 -124t38 -152q4 -61 4 -143t-4 -143q-6 -80 -38 -152t-86 -124t-129 -82.5t-167 -30.5t-167 30.5t-129 82.5t-86 124t-38 152q-4 61 -4 143zM272 512q0 -80 4 -143q6 -82 68 -143.5 t168 -61.5t167.5 61.5t68.5 143.5q4 63 4 143t-4 143q-6 82 -68 143.5t-168 61.5t-168 -61.5t-68 -143.5q-4 -63 -4 -143z" />
<glyph unicode="p" horiz-adv-x="1028" d="M127 -369v1352q0 16 12.5 28.5t28.5 12.5h70q14 0 28 -14q10 -10 22.5 -21.5t28.5 -11.5q23 0 40.5 10t40 23.5t57.5 23.5t92 10q80 0 148.5 -30.5t119.5 -82.5t83 -124t38 -152q4 -61 4 -143t-4 -143q-6 -80 -38 -152t-83 -124t-119.5 -82.5t-148.5 -30.5q-35 0 -63.5 8 t-52 17t-42 17.5t-33.5 8.5q-23 0 -34 -11.5t-11 -39.5v-349q0 -16 -12 -28.5t-29 -12.5h-102q-16 0 -28.5 12.5t-12.5 28.5zM287 512q0 -80 4 -143q6 -82 67.5 -143.5t167.5 -61.5t168 61.5t68 143.5q4 63 4 143t-4 143q-6 82 -67.5 143.5t-168.5 61.5q-106 0 -167.5 -61.5 t-67.5 -143.5q-4 -63 -4 -143z" />
<glyph unicode="q" horiz-adv-x="1028" d="M88 512q0 82 4 143q6 80 38 152t83 124t119.5 82.5t148.5 30.5q57 0 92 -10t57.5 -23.5t40 -23.5t40.5 -10q16 0 28.5 11t22.5 22q14 14 29 14h69q16 0 28.5 -12.5t12.5 -28.5v-1352q0 -16 -12 -28.5t-29 -12.5h-102q-16 0 -28.5 12.5t-12.5 28.5v349q0 29 -11.5 40 t-33.5 11q-16 0 -35 -8.5t-41.5 -17.5t-51 -17t-63.5 -8q-80 0 -148.5 30.5t-119.5 82.5t-83 124t-38 152q-4 61 -4 143zM262 512q0 -80 4 -143q6 -82 67.5 -143.5t168.5 -61.5q106 0 167.5 61.5t67.5 143.5q4 63 4 143t-4 143q-6 82 -67.5 143.5t-167.5 61.5t-168 -61.5 t-68 -143.5q-4 -63 -4 -143z" />
<glyph unicode="r" horiz-adv-x="706" d="M123 41v942q0 16 12 28.5t29 12.5h69q33 0 41 -41q4 -20 9.5 -46t27.5 -26q18 0 37 17.5t50.5 39t82.5 39t133 17.5h41q16 0 28.5 -12.5t12.5 -28.5v-100q0 -16 -12 -28.5t-29 -12.5h-41q-61 0 -116.5 -16.5t-97.5 -53.5t-67.5 -96.5t-25.5 -143.5v-491q0 -16 -12 -28.5 t-29 -12.5h-102q-16 0 -28.5 12.5t-12.5 28.5z" />
<glyph unicode="s" horiz-adv-x="940" d="M66 307v27q0 16 12 28.5t28 12.5h103q16 0 28.5 -12.5t12.5 -28.5v-27q0 -47 21.5 -75.5t54 -46t71.5 -23.5t74 -6q41 0 81 6t70.5 23.5t49 46t18.5 75.5q0 31 -17.5 52.5t-47 36t-69.5 23.5t-85 19q-63 12 -129 29.5t-120 51.5t-88 88.5t-34 140.5q0 70 32 124t84 93 t118.5 59t136.5 20q72 0 139.5 -20t119.5 -60t84 -96.5t32 -130.5q0 -16 -12.5 -28.5t-28.5 -12.5h-103q-16 0 -28 12.5t-12 28.5q0 53 -44.5 93t-146.5 40q-96 0 -138 -38.5t-42 -83.5q0 -59 52 -85t128 -40q63 -12 135 -27.5t131.5 -48.5t98 -89.5t38.5 -150.5 q0 -82 -32.5 -143.5t-89 -102.5t-129 -61t-152.5 -20q-78 0 -150.5 19t-129 59t-91 102.5t-34.5 146.5z" />
<glyph unicode="t" horiz-adv-x="737" d="M10 870v103q0 16 12.5 28.5t28.5 12.5h144q20 0 20 20v318q0 16 12.5 28.5t28.5 12.5h102q16 0 28.5 -12.5t12.5 -28.5v-318q0 -20 21 -20h235q16 0 28.5 -12.5t12.5 -28.5v-103q0 -16 -12 -28.5t-29 -12.5h-235q-20 0 -21 -20v-481q0 -68 35 -109t129 -41h113 q16 0 28.5 -12t12.5 -29v-96q0 -16 -12.5 -28.5t-28.5 -12.5h-113q-160 0 -254 76t-94 252v481q0 20 -20 20h-144q-16 0 -28.5 12.5t-12.5 28.5z" />
<glyph unicode="u" d="M113 369v614q0 16 12 28.5t29 12.5h102q16 0 28.5 -12.5t12.5 -28.5v-614q0 -90 59.5 -147.5t165.5 -57.5q96 0 161 52t65 142v625q0 16 12 28.5t28 12.5h103q16 0 28.5 -12.5t12.5 -28.5v-942q0 -16 -12.5 -28.5t-28.5 -12.5h-90q-14 0 -29 14q-10 10 -22.5 21.5 t-28.5 11.5q-23 0 -38 -10t-36.5 -23.5t-54.5 -23.5t-90 -10q-86 0 -158 28.5t-123 80.5t-79.5 124t-28.5 156z" />
<glyph unicode="v" horiz-adv-x="962" d="M25 977q-2 6 -2 12q0 9 6 19q10 16 34 16h127q29 0 39 -31l238 -682q4 -10 14.5 -10t14.5 10l237 682q10 31 39 31h127q25 0 35 -16q6 -10 6 -19q0 -6 -2 -12l-360 -946q-12 -31 -39 -31h-113q-27 0 -39 31z" />
<glyph unicode="w" horiz-adv-x="1368" d="M33 977q-1 5 -1 10q0 11 6 21q9 16 34 16h116q31 0 39 -31l158 -663q4 -12 13.5 -12.5t13.5 12.5l180 663q8 31 39 31h106q31 0 39 -31l180 -663q4 -12 13.5 -12.5t13.5 12.5l158 663q8 31 39 31h116q25 0 34 -16q6 -11 6 -21q0 -5 -1 -10l-266 -946q-10 -31 -39 -31 h-112q-31 0 -39 31l-187 676q-2 6 -8 6t-8 -6l-187 -676q-10 -31 -38 -31h-113q-31 0 -39 31z" />
<glyph unicode="x" horiz-adv-x="946" d="M55 22q-4 8 -4 17q0 14 10 29l289 458q8 14 2 27l-256 403q-16 25 -6 46.5t39 21.5h115q23 0 32 -6t13 -14l176 -297q8 -16 16 0l176 297q4 8 13.5 14t31.5 6h115q29 0 39 -21.5t-6 -46.5l-256 -403q-6 -12 2 -27l289 -458q10 -15 10 -29q0 -9 -4 -17q-10 -22 -39 -22 h-119q-23 0 -32 6t-13 14l-207 349q-8 16 -16 0l-207 -349q-4 -8 -13 -14t-32 -6h-119q-29 0 -39 22z" />
<glyph unicode="y" horiz-adv-x="946" d="M14 977q-2 6 -2 12q0 10 6 19q11 16 35 16h125q29 0 39 -31l252 -665q8 -20 16 0l238 665q10 31 39 31h121q25 0 35 -16q6 -9 6 -19q0 -6 -2 -12l-521 -1356q-10 -31 -39 -31h-110q-25 0 -35 15.5t-4 32.5l152 417q6 16 2 27z" />
<glyph unicode="z" horiz-adv-x="942" d="M61 41v121q0 20 4.5 30.5t22.5 32.5l539 602q6 8 3 14.5t-14 6.5h-493q-16 0 -28.5 12t-12.5 29v94q0 16 12 28.5t29 12.5h696q16 0 28.5 -12.5t12.5 -28.5v-117q0 -29 -13 -48t-28 -36l-516 -585q-6 -8 -3 -14.5t13 -6.5h527q16 0 28.5 -12t12.5 -29v-94 q0 -16 -12.5 -28.5t-28.5 -12.5h-738q-16 0 -28.5 12.5t-12.5 28.5z" />
<glyph unicode="{" horiz-adv-x="708" d="M82 614v82q0 16 12 25.5t29 15.5l22 11q14 6 25.5 15t11.5 25v256q0 84 28 162t81 137.5t131 95.5t180 36h25q16 0 28.5 -12.5t12.5 -28.5v-99q0 -16 -12.5 -28.5t-28.5 -12.5h-25q-100 0 -167.5 -67.5t-67.5 -182.5v-256q0 -27 -9.5 -48t-22.5 -38.5t-27.5 -28.5 t-24.5 -18q10 -6 24.5 -18t27.5 -28.5t22.5 -38t9.5 -48.5v-276q0 -115 67.5 -182.5t167.5 -67.5h45q16 0 28.5 -12.5t12.5 -28.5v-98q0 -16 -12 -28.5t-29 -12.5h-45q-102 0 -180 35.5t-131 95t-81 137.5t-28 162v276q0 16 -11 25.5t-26 15.5l-22 10q-16 6 -28.5 15.5 t-12.5 25.5z" />
<glyph unicode="|" horiz-adv-x="460" d="M143 -102v1536q0 16 12.5 28.5t28.5 12.5h92q16 0 28.5 -12.5t12.5 -28.5v-1536q0 -16 -12 -28.5t-29 -12.5h-92q-16 0 -28.5 12t-12.5 29z" />
<glyph unicode="}" horiz-adv-x="708" d="M20 -45q0 16 12.5 28.5t28.5 12.5h45q100 0 168 67.5t68 182.5v276q0 27 9 48.5t22.5 38t28 28.5t24.5 18q-10 6 -24.5 17.5t-28 29t-22.5 39t-9 47.5v256q0 115 -67.5 182.5t-168.5 67.5h-24q-16 0 -28.5 12.5t-12.5 28.5v99q0 16 12.5 28.5t28.5 12.5h24 q100 0 179.5 -36t132.5 -95.5t80.5 -137.5t27.5 -162v-256q0 -16 11.5 -25t25.5 -15l23 -11q16 -6 28.5 -15t12.5 -26v-82q0 -16 -12.5 -25t-28.5 -16l-23 -10q-14 -6 -25.5 -15t-11.5 -26v-276q0 -84 -27.5 -162t-80.5 -137.5t-132 -95t-180 -35.5h-45q-16 0 -28.5 12 t-12.5 29v98z" />
<glyph unicode="~" horiz-adv-x="1122" d="M143 446v103q0 55 54.5 90t132.5 35q80 0 132 -14.5t98 -32t99.5 -31.5t137.5 -14q35 0 72.5 15t54.5 38q16 20 37.5 16t21.5 -35v-102q0 -55 -54.5 -90t-131.5 -35q-80 0 -132.5 14.5t-98.5 32t-100 31.5t-136 14q-35 0 -73 -15t-54 -38q-16 -20 -38 -16t-22 34z" />
<glyph unicode="&#xa1;" horiz-adv-x="538" d="M143 834v170q0 16 12.5 28t28.5 12h170q16 0 28.5 -12t12.5 -28v-170q0 -16 -12 -28.5t-29 -12.5h-170q-16 0 -28.5 12t-12.5 29zM170 -348v962q0 16 12.5 28.5t28.5 12.5h115q16 0 28.5 -12t12.5 -29v-962q0 -16 -12.5 -28.5t-28.5 -12.5h-115q-16 0 -28.5 12t-12.5 29z " />
<glyph unicode="&#xa2;" horiz-adv-x="978" d="M88 512q0 82 4 143q10 137 89 241.5t216 135.5q23 6 23 21v73q0 16 12 28.5t29 12.5h92q16 0 28.5 -12t12.5 -29v-73q0 -15 20 -21q129 -35 206 -124t77 -212q0 -16 -9 -28.5t-26 -12.5h-110q-14 0 -26.5 8.5t-12.5 24.5q0 72 -57.5 122t-153.5 50q-106 0 -162.5 -61.5 t-63.5 -143.5q-4 -63 -4 -143t4 -143q6 -82 62.5 -143.5t163.5 -61.5q94 0 151.5 49t57.5 121q0 20 12 27.5t27 7.5h106q16 0 28.5 -12.5t12.5 -28.5q0 -123 -77 -214t-206 -122q-20 -6 -20 -21v-73q0 -16 -12.5 -28.5t-28.5 -12.5h-92q-16 0 -28.5 12t-12.5 29v71 q0 14 -21 21q-139 31 -218 135t-89 244q-4 61 -4 143z" />
<glyph unicode="&#xa3;" horiz-adv-x="1075" d="M82 41v113q0 16 12 28.5t29 12.5h10q61 0 103.5 62t42.5 173v184q0 10 -5.5 17.5t-15.5 7.5h-117q-16 0 -28.5 12.5t-12.5 28.5v104q0 16 12.5 28.5t28.5 12.5h117q20 0 21 21v260q0 72 26.5 135.5t73.5 110.5t110.5 74.5t135.5 27.5t135 -27.5t110.5 -74.5t75 -110.5 t27.5 -135.5v-21q0 -16 -12.5 -28.5t-28.5 -12.5h-111q-16 0 -28.5 12.5t-12.5 28.5v21q0 66 -45 110t-110 44q-66 0 -109 -44.5t-43 -109.5v-260q0 -20 21 -21h278q16 0 28.5 -12t12.5 -29v-104q0 -16 -12.5 -28.5t-28.5 -12.5h-278q-10 0 -15.5 -7t-5.5 -18v-184 q0 -29 -2 -60.5t-8 -61t-15.5 -56.5t-23.5 -41q-6 -6 -4 -11t12 -5h520q16 0 28.5 -12.5t12.5 -28.5v-113q0 -16 -12 -28.5t-29 -12.5h-827q-18 0 -30.5 12.5t-12.5 28.5z" />
<glyph unicode="&#xa4;" horiz-adv-x="1359" d="M144.5 206.5q-1.5 16.5 11.5 29.5l153 153q-35 53 -53 113.5t-18 128.5q0 66 17 125t50 110l-147 150q-12 12 -11.5 28.5t11.5 28.5l75 76q12 10 29 11t29 -11l147 -148q53 35 113.5 53.5t128.5 18.5q66 0 126 -18.5t114 -53.5l151 150q12 12 28.5 11t26.5 -13l76 -76 q12 -10 13.5 -26.5t-11.5 -28.5l-151 -150q33 -53 51 -112.5t18 -124.5q0 -133 -73 -242l153 -151q12 -12 11 -28.5t-11 -29.5l-76 -76q-12 -10 -28.5 -11t-28.5 11l-154 152q-109 -68 -235 -68q-129 0 -238 68l-153 -154q-12 -12 -28.5 -11t-27.5 13l-75 76 q-12 10 -13.5 26.5zM422 631q0 -53 20.5 -100.5t55 -82t82 -55t100.5 -20.5t100 20.5t82 55t55.5 82t20.5 100.5t-20.5 100t-55.5 82t-82 55.5t-100 20.5t-100.5 -20.5t-82 -55.5t-55 -82t-20.5 -100z" />
<glyph unicode="&#xa5;" horiz-adv-x="937" d="M25 1376q-10 23 1 40.5t31 17.5h136q29 0 38 -31l232 -637q8 -20 16 0l228 637q10 31 38 31h136q20 0 31.5 -17.5t0.5 -40.5l-168 -434q-4 -10 0.5 -17t14.5 -7h78q16 0 28.5 -12.5t12.5 -28.5v-91q0 -16 -12.5 -28.5t-28.5 -12.5h-156q-14 0 -18 -10l-27 -76 q-4 -10 0 -17t14 -7h187q16 0 28.5 -12.5t12.5 -28.5v-88q0 -16 -12.5 -28.5t-28.5 -12.5h-248q-20 0 -21 -21v-403q0 -16 -12 -28.5t-29 -12.5h-114q-16 0 -28.5 12.5t-12.5 28.5v403q0 20 -21 21h-252q-16 0 -28.5 12t-12.5 29v88q0 16 12.5 28.5t28.5 12.5h189q10 0 14 7 t0 17l-27 76q-4 10 -18 10h-158q-16 0 -28.5 12.5t-12.5 28.5v91q0 16 12.5 28.5t28.5 12.5h80q10 0 14.5 7t0.5 17z" />
<glyph unicode="&#xa6;" horiz-adv-x="442" d="M133 41v547q0 16 12.5 28.5t28.5 12.5h94q16 0 28.5 -12.5t12.5 -28.5v-547q0 -16 -12 -28.5t-29 -12.5h-94q-16 0 -28.5 12.5t-12.5 28.5zM133 860v547q0 16 12.5 28.5t28.5 12.5h94q16 0 28.5 -12.5t12.5 -28.5v-547q0 -16 -12 -28.5t-29 -12.5h-94q-16 0 -28.5 12.5 t-12.5 28.5z" />
<glyph unicode="&#xa7;" horiz-adv-x="1085" d="M109 625q0 78 42.5 139t108.5 110q27 18 4 48q-66 90 -65 190q0 80 31.5 141.5t84 103.5t118 63.5t132.5 21.5q74 0 139.5 -23.5t113.5 -67.5t76 -107.5t28 -141.5v-37q0 -16 -12.5 -28.5t-28.5 -12.5h-111q-16 0 -28.5 12.5t-12.5 28.5v37q0 66 -44 108.5t-120 42.5 q-72 0 -117 -33.5t-45 -99.5q0 -90 68 -145l387 -332q41 -35 66.5 -67.5t39 -64.5t18.5 -66.5t5 -73.5q0 -82 -41 -148.5t-100 -113.5q-25 -18 -2 -48q55 -70 55 -178q0 -78 -31.5 -137t-83 -100t-118 -62.5t-134.5 -21.5q-74 0 -140 20.5t-115.5 62.5t-79 105.5 t-29.5 149.5v59q0 16 12.5 28.5t28.5 12.5h110q16 0 28.5 -12.5t12.5 -28.5v-59q0 -78 47.5 -115t124.5 -37q72 0 116 32t44 103q0 45 -21.5 75t-54.5 58l-352 303q-51 45 -81.5 84t-47 75t-21.5 72t-5 75zM301 616q0 -29 14.5 -59.5t49.5 -60.5l307 -258q8 -10 19 -9.5 t22 9.5q39 31 61.5 64.5t22.5 74.5q0 27 -13.5 58.5t-48.5 60.5l-309 266q-20 16 -41 0q-35 -31 -59.5 -68t-24.5 -78z" />
<glyph unicode="&#xa8;" horiz-adv-x="815" d="M131 1274v141q0 12 9.5 22.5t23.5 10.5h139q14 0 23.5 -10.5t9.5 -22.5v-141q0 -33 -33 -33h-139q-33 0 -33 33zM481 1274v141q0 12 9.5 22.5t23.5 10.5h139q14 0 23.5 -10.5t9.5 -22.5v-141q0 -33 -33 -33h-139q-33 0 -33 33z" />
<glyph unicode="&#xa9;" horiz-adv-x="1597" d="M82 717q0 147 56.5 278t153.5 228.5t228 154t279 56.5q147 0 278 -56.5t228.5 -154t154 -228.5t56.5 -278t-56.5 -278.5t-154 -228.5t-228.5 -153.5t-278 -56.5t-278.5 56.5t-228.5 153.5t-153.5 228.5t-56.5 278.5zM246 717q0 -115 43 -215.5t118.5 -176t176 -118.5 t215.5 -43t215 43t176 118.5t119 176t43 215.5t-43 215t-119 176t-176 119t-215 43t-215.5 -43t-176 -119t-118.5 -176.5t-43 -214.5zM459 710.5q0 65.5 4 116.5q6 63 29.5 121t65.5 101t101.5 68.5t135.5 25.5q70 0 128 -21.5t101 -59.5t66.5 -90t23.5 -112q0 -33 -27 -33 h-110q-12 0 -22.5 5.5t-10.5 19.5q0 121 -149 121q-86 0 -122 -40t-42 -106q-2 -53 -2 -116.5t2 -116.5q6 -66 42 -105.5t122 -39.5q147 0 147 118q0 16 10.5 21.5t22.5 5.5h106q33 0 33 -33q0 -59 -23.5 -111.5t-66.5 -90t-101.5 -59t-127.5 -21.5q-76 0 -135.5 24.5 t-101.5 67.5t-65.5 100t-29.5 123q-4 51 -4 116.5z" />
<glyph unicode="&#xaa;" horiz-adv-x="641" d="M102 1081q0 63 44 116.5t135 53.5h125q10 0 10 11v18q0 35 -22.5 48t-61.5 13q-88 0 -88 -38q0 -12 -8.5 -14.5t-14.5 -2.5h-76q-20 0 -20 21q0 35 17.5 61.5t46 45t65.5 27.5t78 9q37 0 74.5 -11.5t66.5 -34t47.5 -57t18.5 -81.5v-318q0 -20 -21 -20h-55q-8 0 -14 6 q-4 6 -8.5 14t-12.5 8q-14 0 -43 -19t-86 -19q-96 0 -146.5 49t-50.5 114zM225 1085q0 -55 90 -55q41 0 75 20.5t34 63.5v19q0 10 -10 10h-113q-35 0 -55.5 -14.5t-20.5 -43.5z" />
<glyph unicode="&#xab;" horiz-adv-x="1007" d="M104.5 532.5q-0.5 12.5 10.5 28.5l196 330q4 8 16.5 19.5t34.5 11.5h93q29 0 41 -18.5t-9 -49.5l-174 -297q-16 -23 0 -49l174 -297q20 -31 8 -49.5t-40 -18.5h-93q-23 0 -35 11.5t-16 19.5l-196 330q-10 16 -10.5 28.5zM469 532.5q0 12.5 10 28.5l197 330q4 8 16.5 19.5 t34.5 11.5h92q29 0 41 -18.5t-8 -49.5l-174 -297q-16 -23 0 -49l174 -297q20 -31 8 -49.5t-41 -18.5h-92q-23 0 -35 11.5t-16 19.5l-197 330q-10 16 -10 28.5z" />
<glyph unicode="&#xac;" horiz-adv-x="1085" d="M102 471v102q0 16 12.5 28.5t28.5 12.5h799q16 0 28.5 -12t12.5 -29v-348q0 -16 -12.5 -28.5t-28.5 -12.5h-102q-16 0 -28.5 12.5t-12.5 28.5v185q0 20 -21 20h-635q-16 0 -28.5 12.5t-12.5 28.5z" />
<glyph unicode="&#xad;" horiz-adv-x="927" d="M143 477v139q0 16 12.5 28.5t28.5 12.5h559q16 0 28.5 -12t12.5 -29v-139q0 -16 -12 -28.5t-29 -12.5h-559q-16 0 -28.5 12.5t-12.5 28.5z" />
<glyph unicode="&#xae;" horiz-adv-x="1597" d="M82 717q0 147 56.5 278t153.5 228.5t228 154t279 56.5q147 0 278 -56.5t228.5 -154t154 -228.5t56.5 -278t-56.5 -278.5t-154 -228.5t-228.5 -153.5t-278 -56.5t-278.5 56.5t-228.5 153.5t-153.5 228.5t-56.5 278.5zM246 717q0 -115 43 -215.5t118.5 -176t176 -118.5 t215.5 -43t215 43t176 118.5t119 176t43 215.5t-43 215t-119 176t-176 119t-215 43t-215.5 -43t-176 -119t-118.5 -176.5t-43 -214.5zM543 332v772q0 14 10 23.5t22 9.5h275q55 0 104.5 -21.5t86 -58.5t58 -86t21.5 -105q0 -74 -36 -135t-95 -96q-23 -14 -34 -21.5t3 -29.5 l138 -236q10 -18 2 -33.5t-33 -15.5h-90q-20 0 -28.5 8t-18.5 25l-140 239q-8 20 -30 21h-43q-16 0 -17 -17v-243q0 -33 -32 -33h-91q-12 0 -22 9t-10 24zM698 764q0 -16 17 -16h135q47 0 82 34.5t35 81.5t-35 82t-82 35h-135q-16 0 -17 -16v-201z" />
<glyph unicode="&#xaf;" horiz-adv-x="823" d="M123 1303v77q0 16 12 28.5t29 12.5h495q16 0 28.5 -12t12.5 -29v-77q0 -16 -12 -28.5t-29 -12.5h-495q-16 0 -28.5 12t-12.5 29z" />
<glyph unicode="&#xb0;" horiz-adv-x="757" d="M74 1198q0 63 23.5 118.5t65.5 96.5t97 64.5t119 23.5q63 0 118.5 -23.5t96.5 -64.5t64.5 -96t23.5 -119q0 -63 -23.5 -118.5t-64.5 -97.5t-96.5 -65.5t-118.5 -23.5t-118.5 23.5t-97.5 65.5t-65.5 97.5t-23.5 118.5zM240 1198q0 -57 41 -98t98 -41t98 41t41 98t-41 98 t-98 41t-98 -41t-41 -98z" />
<glyph unicode="&#xb1;" horiz-adv-x="1105" d="M102 803v106q0 16 12.5 28.5t28.5 12.5h295q20 0 21 21v295q0 16 12 28.5t29 12.5h106q16 0 28.5 -12.5t12.5 -28.5v-295q0 -20 21 -21h295q16 0 28.5 -12t12.5 -29v-106q0 -16 -12.5 -28.5t-28.5 -12.5h-295q-20 0 -21 -21v-295q0 -16 -12 -28t-29 -12h-106 q-16 0 -28.5 12t-12.5 28v295q0 20 -21 21h-295q-16 0 -28.5 12t-12.5 29zM109 41v106q0 16 12 28.5t29 12.5h806q16 0 28.5 -12t12.5 -29v-106q0 -16 -12 -28.5t-29 -12.5h-806q-16 0 -28.5 12.5t-12.5 28.5z" />
<glyph unicode="&#xb2;" horiz-adv-x="552" d="M51 729v135q0 16 8 25l275 285q4 4 12 16.5t8 30.5q0 29 -17.5 48t-49.5 19q-80 0 -80 -67v-19q0 -20 -21 -20h-108q-20 0 -21 20v17q0 45 17.5 86t48.5 69.5t72 46t88 17.5q45 0 86 -17.5t70.5 -46t47 -69.5t17.5 -86q0 -39 -16.5 -75t-43.5 -65l-192 -198 q-4 -4 -4 -13.5t14 -9.5h219q20 0 21 -20v-109q0 -20 -21 -20h-409q-20 0 -21 20z" />
<glyph unicode="&#xb3;" horiz-adv-x="557" d="M43 924v12q0 20 20 20h109q20 0 21 -20v-12q0 -78 81 -78q37 0 59.5 19.5t22.5 58.5q0 41 -24.5 58t-57.5 17h-12q-20 0 -20 21v106q0 20 20 21h12q31 0 52.5 18.5t21.5 53.5q0 33 -20.5 51t-53.5 18t-53 -18.5t-20 -50.5v-17q0 -20 -21 -20h-108q-20 0 -21 20v17 q0 45 17.5 84.5t48 69.5t71.5 47.5t86 17.5t86 -17.5t72 -47.5t48.5 -69.5t17.5 -84.5q0 -39 -15.5 -74t-38.5 -60q-10 -10 0 -16q29 -23 45.5 -63.5t16.5 -81.5q0 -47 -18.5 -89t-50 -73t-73.5 -48.5t-90 -17.5q-47 0 -89 17.5t-73.5 48.5t-50 73t-18.5 89z" />
<glyph unicode="&#xb4;" horiz-adv-x="608" d="M106 1239l156 223q8 10 19.5 21.5t33.5 11.5h162q20 0 26.5 -16.5t-3.5 -26.5l-221 -229q-10 -10 -21.5 -17.5t-40.5 -7.5h-82q-20 0 -28.5 15.5t-0.5 25.5z" />
<glyph unicode="&#xb5;" horiz-adv-x="1069" d="M127 -369v1352q0 16 12.5 28.5t28.5 12.5h102q16 0 28.5 -12.5t12.5 -28.5v-614q0 -90 64.5 -147.5t161.5 -57.5q96 0 160.5 52t64.5 142v625q0 16 12 28.5t29 12.5h102q16 0 28.5 -12.5t12.5 -28.5v-942q0 -16 -12 -28.5t-29 -12.5h-90q-14 0 -29 14q-10 10 -22 21.5 t-29 11.5q-23 0 -38 -10t-36.5 -23.5t-54.5 -23.5t-90 -10q-41 0 -82 17t-78 42q-14 10 -31.5 4t-17.5 -31v-381q0 -16 -12 -28.5t-29 -12.5h-98q-16 0 -28.5 12.5t-12.5 28.5z" />
<glyph unicode="&#xb6;" horiz-adv-x="1126" d="M102 1085q0 72 28 135.5t75 110.5t110.5 75t135.5 28h491q16 0 28.5 -12.5t12.5 -28.5v-1557q0 -16 -12.5 -28.5t-28.5 -12.5h-82q-16 0 -28.5 12.5t-12.5 28.5v1424q0 20 -20 20h-164q-20 0 -21 -20v-1424q0 -16 -12 -28.5t-29 -12.5h-81q-16 0 -28.5 12.5t-12.5 28.5 v881q0 20 -21 20q-68 0 -127 29t-104 76t-71 110.5t-26 132.5z" />
<glyph unicode="&#xb7;" horiz-adv-x="890" d="M246 399v287q0 16 12 28.5t29 12.5h286q16 0 28.5 -12.5t12.5 -28.5v-287q0 -16 -12 -28.5t-29 -12.5h-286q-16 0 -28.5 12.5t-12.5 28.5z" />
<glyph unicode="&#xb8;" horiz-adv-x="1024" d="M381 -373l78 248q8 33 39 33h108q20 0 28.5 -11.5t4.5 -25.5l-57 -248q-8 -33 -39 -33h-129q-20 0 -28.5 11.5t-4.5 25.5z" />
<glyph unicode="&#xb9;" horiz-adv-x="464" d="M10 1063v115q0 12 3 23t14 24l153 172q8 10 23.5 19t38.5 9h129q20 0 20 -20v-676q0 -20 -20 -20h-117q-20 0 -21 20v471q0 10 -8 12t-12 -2l-164 -168q-10 -10 -24.5 -4t-14.5 25z" />
<glyph unicode="&#xba;" horiz-adv-x="675" d="M98 1181.5q0 22.5 4 53.5q6 55 30 97t56.5 70t71.5 41t78 13t78 -13t71.5 -41t56 -70t29.5 -97q4 -31 4.5 -53.5t-4.5 -51.5q-6 -53 -28.5 -94t-55 -68.5t-72.5 -42t-79 -14.5t-79 14.5t-72.5 42t-55.5 68.5t-29 94q-4 29 -4 51.5zM221 1177.5q0 -28.5 4 -51.5 q8 -39 38 -62.5t75 -23.5t74.5 23.5t38.5 62.5q4 23 4 51.5t-4 55.5q-8 43 -36 68.5t-77 25.5t-77 -25.5t-36 -68.5q-4 -27 -4 -55.5z" />
<glyph unicode="&#xbb;" horiz-adv-x="1007" d="M148 160.5q-11 17.5 8 50.5l174 297q16 27 0 49l-174 297q-18 33 -7 50.5t39 17.5h93q23 0 35 -11.5t16 -19.5l196 -330q10 -16 10.5 -28.5t-10.5 -28.5l-196 -330q-4 -8 -16.5 -19.5t-34.5 -11.5h-93q-29 0 -40 17.5zM513 160.5q-11 17.5 7 50.5l174 297q16 27 0 49 l-174 297q-18 33 -7 50.5t40 17.5h92q23 0 35 -11.5t16 -19.5l197 -330q10 -16 10 -28.5t-10 -28.5l-197 -330q-4 -8 -16 -19.5t-35 -11.5h-92q-29 0 -40 17.5z" />
<glyph unicode="&#xbc;" horiz-adv-x="1308" d="M92 1102v119q0 14 7 26.5t14 16.5l176 161q4 4 9 7.5t11 3.5h105q20 0 20 -21v-676q0 -20 -20 -20h-97q-20 0 -20 20v506q0 4 -3 6t-5 -2l-174 -155q-6 -6 -14.5 -3t-8.5 11zM156.5 17.5q-13.5 17.5 1.5 39.5l874 1346q18 31 45 31h78q20 0 33.5 -18.5t-0.5 -39.5 l-873 -1345q-18 -31 -43 -31h-82q-20 0 -33.5 17.5zM729 154v86q0 10 5 19t11 20l285 423q8 14 23 15h104q20 0 21 -21v-426q0 -10 10 -10h49q20 0 20 -20v-86q0 -20 -20 -21h-49q-10 0 -10 -10v-103q0 -20 -21 -20h-90q-20 0 -20 20v103q0 10 -11 10h-286q-20 0 -21 21z M881 268q-8 -8 4 -8h151q10 0 11 10v240q0 4 -3.5 5t-5.5 -3z" />
<glyph unicode="&#xbd;" horiz-adv-x="1351" d="M92 1102v119q0 14 7 26.5t14 16.5l176 161q4 4 9 7.5t11 3.5h105q20 0 20 -21v-676q0 -20 -20 -20h-97q-20 0 -20 20v506q0 4 -3 6t-5 -2l-174 -155q-6 -6 -14.5 -3t-8.5 11zM157.5 17.5q-12.5 17.5 0.5 39.5l874 1346q18 31 45 31h78q20 0 33.5 -18.5t-0.5 -39.5 l-873 -1345q-18 -31 -43 -31h-82q-20 0 -32.5 17.5zM827 20v91q0 12 3.5 17t7.5 9l241 250q35 35 50.5 64.5t15.5 70.5t-27.5 61.5t-56.5 20.5q-25 0 -52.5 -18.5t-27.5 -59.5v-24q0 -20 -20 -21h-95q-20 0 -20 21v35q0 41 18.5 76.5t48 62t68.5 42t80 15.5t80 -15.5 t69.5 -42t49 -62t18.5 -76.5q0 -72 -25.5 -120t-72.5 -102l-154 -168q-4 -4 -2 -10t10 -6h236q20 0 20 -20v-91q0 -20 -20 -20h-422q-20 0 -21 20z" />
<glyph unicode="&#xbe;" horiz-adv-x="1329" d="M41 918v26q0 20 20 21h99q20 0 20 -21v-26q0 -37 32 -58.5t67 -21.5q47 0 71.5 28.5t24.5 63.5t-21.5 67.5t-72.5 32.5h-13q-20 0 -20 21v86q0 20 20 20h13q43 0 61 28.5t18 67.5q0 29 -22.5 52.5t-58.5 23.5q-31 0 -57.5 -21.5t-26.5 -54.5v-34q0 -20 -21 -21h-96 q-20 0 -21 21v34q0 41 18.5 77t49.5 62.5t71 42t83 15.5q41 0 80.5 -15.5t70.5 -42t49.5 -62.5t18.5 -77t-13.5 -79.5t-52.5 -67.5q-12 -10 0 -19q35 -25 58.5 -67.5t23.5 -89.5q0 -45 -15.5 -85t-45 -71t-73.5 -49t-101 -18q-45 0 -88.5 16t-76 45t-53 66.5t-20.5 83.5z M156.5 17.5q-13.5 17.5 1.5 39.5l874 1346q18 31 45 31h78q20 0 33.5 -18.5t-0.5 -39.5l-873 -1345q-18 -31 -43 -31h-82q-20 0 -33.5 17.5zM729 154v86q0 10 5 19t11 20l285 423q8 14 23 15h104q20 0 21 -21v-426q0 -10 10 -10h49q20 0 20 -20v-86q0 -20 -20 -21h-49 q-10 0 -10 -10v-103q0 -20 -21 -20h-90q-20 0 -20 20v103q0 10 -11 10h-286q-20 0 -21 21zM881 268q-8 -8 4 -8h151q10 0 11 10v240q0 4 -3.5 5t-5.5 -3z" />
<glyph unicode="&#xbf;" horiz-adv-x="952" d="M92 -14q0 111 48 187.5t134 141.5q23 16 45.5 31.5t41 33t30.5 39t12 52.5v143q0 16 12.5 28.5t28.5 12.5h105q16 0 28.5 -12t12.5 -29v-172q0 -82 -37 -125q-27 -31 -50.5 -50t-46 -34.5t-45 -32t-46.5 -38.5q-33 -33 -58.5 -78t-25.5 -98q0 -84 51 -145.5t145 -61.5 q43 0 80 18.5t62.5 47t40 66.5t14.5 75v30q0 16 12 28.5t29 12.5h104q16 0 28.5 -12t12.5 -29v-30q0 -82 -28.5 -154t-80 -126t-122 -85t-152.5 -31t-152.5 29t-121.5 81t-81 125t-30 161zM369 834v170q0 16 12 28t29 12h170q16 0 28.5 -12t12.5 -28v-170q0 -16 -12.5 -28.5 t-28.5 -12.5h-170q-16 0 -28.5 12t-12.5 29z" />
<glyph unicode="&#xc0;" horiz-adv-x="999" d="M8 41l381 1362q6 31 39 31h143q33 0 39 -31l381 -1362q4 -14 -6 -27.5t-35 -13.5h-112q-29 0 -39 31l-90 313q-6 29 -39 29h-340q-29 0 -39 -29l-90 -313q-10 -31 -39 -31h-113q-25 0 -35 13.5t-6 27.5zM254 1816.5q6 16.5 27 16.5h161q23 0 34 -11.5t20 -21.5l155 -223 q8 -10 0 -25.5t-28 -15.5h-82q-29 0 -40.5 7t-21.5 18l-221 229q-10 10 -4 26.5zM356 586q-6 -23 17 -23h254q23 0 16 23l-133 571q-4 12 -8 12h-4q-6 0 -9 -12z" />
<glyph unicode="&#xc1;" horiz-adv-x="999" d="M8 41l381 1362q6 31 39 31h143q33 0 39 -31l381 -1362q4 -14 -6 -27.5t-35 -13.5h-112q-29 0 -39 31l-90 313q-6 29 -39 29h-340q-29 0 -39 -29l-90 -313q-10 -31 -39 -31h-113q-25 0 -35 13.5t-6 27.5zM356 586q-6 -23 17 -23h254q23 0 16 23l-133 571q-4 12 -8 12h-4 q-6 0 -9 -12zM362 1577l156 223q8 10 19.5 21.5t33.5 11.5h162q20 0 26.5 -16.5t-3.5 -26.5l-221 -229q-10 -10 -21.5 -17.5t-40.5 -7.5h-82q-20 0 -28.5 15.5t-0.5 25.5z" />
<glyph unicode="&#xc2;" horiz-adv-x="999" d="M8 41l381 1362q6 31 39 31h143q33 0 39 -31l381 -1362q4 -14 -6 -27.5t-35 -13.5h-112q-29 0 -39 31l-90 313q-6 29 -39 29h-340q-29 0 -39 -29l-90 -313q-10 -31 -39 -31h-113q-25 0 -35 13.5t-6 27.5zM172.5 1554.5q-6.5 16.5 3.5 26.5l221 229q10 10 21.5 17.5 t40.5 7.5h86q27 0 38 -7t21 -18l221 -229q10 -10 4 -26.5t-26 -16.5h-121q-23 0 -38 11.5t-26 21.5l-104 100q-14 14 -29 0l-102 -100q-10 -10 -25.5 -21.5t-38.5 -11.5h-120q-20 0 -26.5 16.5zM356 586q-6 -23 17 -23h254q23 0 16 23l-133 571q-4 12 -8 12h-4q-6 0 -9 -12z " />
<glyph unicode="&#xc3;" horiz-adv-x="999" d="M8 41l381 1362q6 31 39 31h143q33 0 39 -31l381 -1362q4 -14 -6 -27.5t-35 -13.5h-112q-29 0 -39 31l-90 313q-6 29 -39 29h-340q-29 0 -39 -29l-90 -313q-10 -31 -39 -31h-113q-25 0 -35 13.5t-6 27.5zM211 1585v82q0 41 42 73t103 32q49 0 81 -8.5t59.5 -17.5 t60.5 -17.5t86 -8.5q39 0 60.5 13.5t33.5 29.5t31.5 8t19.5 -36v-82q0 -41 -41.5 -73t-103.5 -32q-49 0 -81 8.5t-59.5 17.5t-61 17t-85.5 8q-35 0 -56 -11t-38 -32q-12 -14 -31.5 -7t-19.5 36zM356 586q-6 -23 17 -23h254q23 0 16 23l-133 571q-4 12 -8 12h-4q-6 0 -9 -12z " />
<glyph unicode="&#xc4;" horiz-adv-x="999" d="M8 41l381 1362q6 31 39 31h143q33 0 39 -31l381 -1362q4 -14 -6 -27.5t-35 -13.5h-112q-29 0 -39 31l-90 313q-6 29 -39 29h-340q-29 0 -39 -29l-90 -313q-10 -31 -39 -31h-113q-25 0 -35 13.5t-6 27.5zM221 1569v141q0 12 9.5 22.5t23.5 10.5h139q14 0 23.5 -10.5 t9.5 -22.5v-141q0 -33 -33 -33h-139q-33 0 -33 33zM356 586q-6 -23 17 -23h254q23 0 16 23l-133 571q-4 12 -8 12h-4q-6 0 -9 -12zM571 1569v141q0 12 9.5 22.5t23.5 10.5h139q14 0 23.5 -10.5t9.5 -22.5v-141q0 -33 -33 -33h-139q-33 0 -33 33z" />
<glyph unicode="&#xc5;" horiz-adv-x="999" d="M8 41l381 1362q6 31 39 31h143q33 0 39 -31l381 -1362q4 -14 -6 -27.5t-35 -13.5h-112q-29 0 -39 31l-90 313q-6 29 -39 29h-340q-29 0 -39 -29l-90 -313q-10 -31 -39 -31h-113q-25 0 -35 13.5t-6 27.5zM274 1720q0 47 17.5 88t48.5 72t72 48.5t88 17.5t88 -17.5 t71.5 -48.5t48 -72t17.5 -88t-17.5 -88t-48 -71.5t-71.5 -48t-88 -17.5t-88 17.5t-72 48t-48.5 71.5t-17.5 88zM356 586q-6 -23 17 -23h254q23 0 16 23l-133 571q-4 12 -8 12h-4q-6 0 -9 -12zM418 1720q0 -35 23.5 -58.5t58.5 -23.5t58.5 24t23.5 58q0 35 -23.5 58.5 t-58.5 23.5t-58.5 -23.5t-23.5 -58.5z" />
<glyph unicode="&#xc6;" horiz-adv-x="1480" d="M8 41l375 1339q4 14 20.5 34t49.5 20h901q16 0 28.5 -12.5t12.5 -28.5v-113q0 -16 -12.5 -28.5t-28.5 -12.5h-488q-20 0 -20 -20v-369q0 -20 20 -21h465q16 0 28.5 -12t12.5 -29v-112q0 -16 -12 -28.5t-29 -12.5h-465q-20 0 -20 -21v-399q0 -20 20 -20h492 q16 0 28.5 -12.5t12.5 -28.5v-113q0 -16 -12.5 -28.5t-28.5 -12.5h-666q-16 0 -28.5 12.5t-12.5 28.5v299q0 33 -39 33h-282q-33 0 -39 -29l-90 -313q-6 -31 -39 -31h-113q-25 0 -35 13.5t-6 27.5zM356 586q-6 -23 17 -23h258q20 0 20 23v633q0 20 -20 20h-88 q-14 0 -19.5 -7t-7.5 -13z" />
<glyph unicode="&#xc7;" horiz-adv-x="1112" d="M92 718q0 85 4 165t13 141q10 84 44.5 161t93 136t139.5 94t183 35q92 0 176 -28.5t146.5 -84t100.5 -134.5t38 -179v-29q0 -16 -12 -28.5t-29 -12.5h-112q-16 0 -28.5 12.5t-12.5 28.5v29q0 45 -18.5 87t-53.5 74t-84 51t-111 19q-100 0 -176 -59t-90 -172 q-8 -63 -12 -143t-4 -164t4 -164t12 -143q6 -45 25.5 -87t53.5 -74t81 -51.5t106 -19.5q51 0 99.5 15.5t85.5 44t59.5 72.5t22.5 100v28q0 16 12 28.5t29 12.5h112q16 0 28.5 -12t12.5 -29v-28q0 -86 -33.5 -163t-95 -135.5t-146.5 -93t-186 -34.5q-92 0 -171 29.5t-139 85 t-99 134t-51 177.5q-8 61 -12.5 142t-4.5 166zM387 -373l78 248q8 33 39 33h108q20 0 28.5 -11.5t4.5 -25.5l-57 -248q-8 -33 -39 -33h-129q-20 0 -28.5 11.5t-4.5 25.5z" />
<glyph unicode="&#xc8;" horiz-adv-x="962" d="M133 41v1352q0 16 12.5 28.5t28.5 12.5h662q16 0 28.5 -12.5t12.5 -28.5v-113q0 -16 -12.5 -28.5t-28.5 -12.5h-488q-20 0 -20 -20v-369q0 -20 20 -21h465q16 0 28.5 -12t12.5 -29v-112q0 -16 -12.5 -28.5t-28.5 -12.5h-465q-20 0 -20 -21v-399q0 -20 20 -20h492 q16 0 28.5 -12.5t12.5 -28.5v-113q0 -16 -12.5 -28.5t-28.5 -12.5h-666q-16 0 -28.5 12.5t-12.5 28.5zM219 1816.5q6 16.5 27 16.5h162q23 0 34 -11.5t19 -21.5l155 -223q8 -10 0 -25.5t-28 -15.5h-82q-29 0 -40 7t-22 18l-221 229q-10 10 -4 26.5z" />
<glyph unicode="&#xc9;" horiz-adv-x="962" d="M133 41v1352q0 16 12.5 28.5t28.5 12.5h662q16 0 28.5 -12.5t12.5 -28.5v-113q0 -16 -12.5 -28.5t-28.5 -12.5h-488q-20 0 -20 -20v-369q0 -20 20 -21h465q16 0 28.5 -12t12.5 -29v-112q0 -16 -12.5 -28.5t-28.5 -12.5h-465q-20 0 -20 -21v-399q0 -20 20 -20h492 q16 0 28.5 -12.5t12.5 -28.5v-113q0 -16 -12.5 -28.5t-28.5 -12.5h-666q-16 0 -28.5 12.5t-12.5 28.5zM373 1551.5q-8 15.5 0 25.5l155 223q8 10 19.5 21.5t34.5 11.5h161q20 0 26.5 -16.5t-3.5 -26.5l-221 -229q-10 -10 -21.5 -17.5t-40.5 -7.5h-82q-20 0 -28 15.5z" />
<glyph unicode="&#xca;" horiz-adv-x="962" d="M133 41v1352q0 16 12.5 28.5t28.5 12.5h662q16 0 28.5 -12.5t12.5 -28.5v-113q0 -16 -12.5 -28.5t-28.5 -12.5h-488q-20 0 -20 -20v-369q0 -20 20 -21h465q16 0 28.5 -12t12.5 -29v-112q0 -16 -12.5 -28.5t-28.5 -12.5h-465q-20 0 -20 -21v-399q0 -20 20 -20h492 q16 0 28.5 -12.5t12.5 -28.5v-113q0 -16 -12.5 -28.5t-28.5 -12.5h-666q-16 0 -28.5 12.5t-12.5 28.5zM176.5 1552.5q-6.5 16.5 3.5 26.5l221 229q10 10 21.5 17.5t40.5 7.5h86q27 0 38 -7t21 -18l221 -229q10 -10 4 -26.5t-26 -16.5h-121q-23 0 -38 11.5t-25 21.5l-105 100 q-14 14 -29 0l-102 -100q-10 -10 -25.5 -21.5t-37.5 -11.5h-121q-20 0 -26.5 16.5z" />
<glyph unicode="&#xcb;" horiz-adv-x="962" d="M133 41v1352q0 16 12.5 28.5t28.5 12.5h662q16 0 28.5 -12.5t12.5 -28.5v-113q0 -16 -12.5 -28.5t-28.5 -12.5h-488q-20 0 -20 -20v-369q0 -20 20 -21h465q16 0 28.5 -12t12.5 -29v-112q0 -16 -12.5 -28.5t-28.5 -12.5h-465q-20 0 -20 -21v-399q0 -20 20 -20h492 q16 0 28.5 -12.5t12.5 -28.5v-113q0 -16 -12.5 -28.5t-28.5 -12.5h-666q-16 0 -28.5 12.5t-12.5 28.5zM219 1569v141q0 12 9.5 22.5t23.5 10.5h139q14 0 23.5 -10.5t9.5 -22.5v-141q0 -33 -33 -33h-139q-33 0 -33 33zM569 1569v141q0 12 9.5 22.5t23.5 10.5h139 q14 0 23.5 -10.5t9.5 -22.5v-141q0 -33 -33 -33h-139q-33 0 -33 33z" />
<glyph unicode="&#xcc;" horiz-adv-x="460" d="M-22 1816.5q6 16.5 26 16.5h162q23 0 34 -11.5t19 -21.5l156 -223q8 -10 0 -25.5t-29 -15.5h-82q-29 0 -40 7t-21 18l-221 229q-10 10 -4 26.5zM133 41v1352q0 16 12.5 28.5t28.5 12.5h113q16 0 28.5 -12.5t12.5 -28.5v-1352q0 -16 -12.5 -28.5t-28.5 -12.5h-113 q-16 0 -28.5 12.5t-12.5 28.5z" />
<glyph unicode="&#xcd;" horiz-adv-x="460" d="M114.5 1551.5q-8.5 15.5 0.5 25.5l155 223q8 10 19.5 21.5t34.5 11.5h161q20 0 26.5 -16.5t-3.5 -26.5l-221 -229q-10 -10 -21.5 -17.5t-40.5 -7.5h-82q-20 0 -28.5 15.5zM133 41v1352q0 16 12.5 28.5t28.5 12.5h113q16 0 28.5 -12.5t12.5 -28.5v-1352q0 -16 -12.5 -28.5 t-28.5 -12.5h-113q-16 0 -28.5 12.5t-12.5 28.5z" />
<glyph unicode="&#xce;" horiz-adv-x="460" d="M-98 1552.5q-6 16.5 4 26.5l221 229q10 10 21.5 17.5t39.5 7.5h86q27 0 38.5 -7t21.5 -18l221 -229q10 -10 4 -26.5t-27 -16.5h-120q-23 0 -38.5 11.5t-25.5 21.5l-104 100q-14 14 -29 0l-102 -100q-10 -10 -25.5 -21.5t-38.5 -11.5h-121q-20 0 -26 16.5zM133 41v1352 q0 16 12.5 28.5t28.5 12.5h113q16 0 28.5 -12.5t12.5 -28.5v-1352q0 -16 -12.5 -28.5t-28.5 -12.5h-113q-16 0 -28.5 12.5t-12.5 28.5z" />
<glyph unicode="&#xcf;" horiz-adv-x="460" d="M-47 1569v141q0 12 9 22.5t24 10.5h139q14 0 23.5 -10.5t9.5 -22.5v-141q0 -33 -33 -33h-139q-33 0 -33 33zM133 41v1352q0 16 12.5 28.5t28.5 12.5h113q16 0 28.5 -12.5t12.5 -28.5v-1352q0 -16 -12.5 -28.5t-28.5 -12.5h-113q-16 0 -28.5 12.5t-12.5 28.5zM303 1569 v141q0 12 9.5 22.5t23.5 10.5h139q14 0 23.5 -10.5t9.5 -22.5v-141q0 -33 -33 -33h-139q-33 0 -33 33z" />
<glyph unicode="&#xd0;" horiz-adv-x="1101" d="M6 676v112q0 16 12.5 28.5t28.5 12.5h66q20 0 20 21v543q0 16 12.5 28.5t28.5 12.5h389q88 0 163 -34t130 -92.5t91 -137t46 -166.5q8 -61 11.5 -136t3.5 -152t-4.5 -150.5t-10.5 -135.5q-10 -88 -45 -167t-91 -137t-131 -92t-163 -34h-389q-16 0 -28.5 12.5t-12.5 28.5 v573q0 20 -20 21h-66q-16 0 -28.5 12t-12.5 29zM328 215q0 -20 20 -20h215q47 0 88 19t72 52t50.5 75t25.5 89q8 61 11 135t3 151t-3 151.5t-11 136.5q-6 45 -25.5 88t-50.5 75.5t-72 52t-88 19.5h-215q-20 0 -20 -20v-369q0 -20 20 -21h205q16 0 28.5 -12t12.5 -29v-112 q0 -16 -12.5 -28.5t-28.5 -12.5h-205q-20 0 -20 -21v-399z" />
<glyph unicode="&#xd1;" horiz-adv-x="1126" d="M133 41v1352q0 16 12.5 28.5t28.5 12.5h170q16 0 25.5 -6.5t17.5 -28.5l404 -1010q4 -6 10 -5t6 9v1000q0 16 12 28.5t29 12.5h104q16 0 28.5 -12.5t12.5 -28.5v-1352q0 -16 -12 -28.5t-29 -12.5h-170q-16 0 -25 6t-18 29l-403 1014q-4 6 -10.5 5t-6.5 -10v-1003 q0 -16 -12 -28.5t-28 -12.5h-105q-16 0 -28.5 12.5t-12.5 28.5zM272 1585v82q0 41 42 73t104 32q49 0 80.5 -8.5t59.5 -17.5t61 -17.5t86 -8.5q39 0 60 13.5t34 29.5q12 16 31.5 8t19.5 -36v-82q0 -41 -42 -73t-103 -32q-49 0 -81 8.5t-59.5 17.5t-61.5 17t-85 8 q-35 0 -56.5 -11t-37.5 -32q-12 -14 -32 -7t-20 36z" />
<glyph unicode="&#xd2;" horiz-adv-x="1138" d="M92 718q0 85 4 165t13 141q10 84 44.5 161t93 136t139.5 94t183 35q92 0 171 -29.5t139.5 -85t99.5 -134.5t51 -177q8 -61 11 -142t3 -165t-4 -165t-10 -142q-10 -84 -45 -162t-93 -136.5t-140 -93t-183 -34.5q-92 0 -171 29.5t-139 85t-99 134t-51 177.5 q-8 61 -12.5 142t-4.5 166zM287 717q0 -84 4 -164t12 -143q6 -45 25.5 -87t53.5 -74t81 -51.5t106 -19.5q104 0 177 60.5t90 171.5q8 63 13 143t5 164t-5 164t-13 143q-6 45 -25.5 87t-53.5 74t-80 51t-108 19q-100 0 -176 -59t-90 -172q-8 -63 -12 -143t-4 -164z M287 1816.5q6 16.5 26 16.5h162q23 0 34 -11.5t19 -21.5l156 -223q8 -10 0 -25.5t-29 -15.5h-82q-29 0 -40 7t-21 18l-221 229q-10 10 -4 26.5z" />
<glyph unicode="&#xd3;" horiz-adv-x="1138" d="M92 718q0 85 4 165t13 141q10 84 44.5 161t93 136t139.5 94t183 35q92 0 171 -29.5t139.5 -85t99.5 -134.5t51 -177q8 -61 11 -142t3 -165t-4 -165t-10 -142q-10 -84 -45 -162t-93 -136.5t-140 -93t-183 -34.5q-92 0 -171 29.5t-139 85t-99 134t-51 177.5 q-8 61 -12.5 142t-4.5 166zM287 717q0 -84 4 -164t12 -143q6 -45 25.5 -87t53.5 -74t81 -51.5t106 -19.5q104 0 177 60.5t90 171.5q8 63 13 143t5 164t-5 164t-13 143q-6 45 -25.5 87t-53.5 74t-80 51t-108 19q-100 0 -176 -59t-90 -172q-8 -63 -12 -143t-4 -164z M452.5 1551.5q-8.5 15.5 0.5 25.5l155 223q8 10 19.5 21.5t34.5 11.5h161q20 0 26.5 -16.5t-3.5 -26.5l-221 -229q-10 -10 -21.5 -17.5t-40.5 -7.5h-82q-20 0 -28.5 15.5z" />
<glyph unicode="&#xd4;" horiz-adv-x="1138" d="M92 718q0 85 4 165t13 141q10 84 44.5 161t93 136t139.5 94t183 35q92 0 171 -29.5t139.5 -85t99.5 -134.5t51 -177q8 -61 11 -142t3 -165t-4 -165t-10 -142q-10 -84 -45 -162t-93 -136.5t-140 -93t-183 -34.5q-92 0 -171 29.5t-139 85t-99 134t-51 177.5 q-8 61 -12.5 142t-4.5 166zM242 1552.5q-6 16.5 4 26.5l221 229q10 10 21.5 17.5t39.5 7.5h86q27 0 38.5 -7t21.5 -18l221 -229q10 -10 4 -26.5t-27 -16.5h-120q-23 0 -38.5 11.5t-25.5 21.5l-104 100q-14 14 -29 0l-102 -100q-10 -10 -25.5 -21.5t-38.5 -11.5h-121 q-20 0 -26 16.5zM287 717q0 -84 4 -164t12 -143q6 -45 25.5 -87t53.5 -74t81 -51.5t106 -19.5q104 0 177 60.5t90 171.5q8 63 13 143t5 164t-5 164t-13 143q-6 45 -25.5 87t-53.5 74t-80 51t-108 19q-100 0 -176 -59t-90 -172q-8 -63 -12 -143t-4 -164z" />
<glyph unicode="&#xd5;" horiz-adv-x="1138" d="M92 718q0 85 4 165t13 141q10 84 44.5 161t93 136t139.5 94t183 35q92 0 171 -29.5t139.5 -85t99.5 -134.5t51 -177q8 -61 11 -142t3 -165t-4 -165t-10 -142q-10 -84 -45 -162t-93 -136.5t-140 -93t-183 -34.5q-92 0 -171 29.5t-139 85t-99 134t-51 177.5 q-8 61 -12.5 142t-4.5 166zM281 1585v82q0 41 42 73t103 32q49 0 81 -8.5t59.5 -17.5t60.5 -17.5t86 -8.5q39 0 60.5 13.5t33.5 29.5t31.5 8t19.5 -36v-82q0 -41 -42 -73t-103 -32q-49 0 -81 8.5t-59.5 17.5t-61.5 17t-85 8q-35 0 -56.5 -11t-37.5 -32q-12 -14 -31.5 -7 t-19.5 36zM287 717q0 -84 4 -164t12 -143q6 -45 25.5 -87t53.5 -74t81 -51.5t106 -19.5q104 0 177 60.5t90 171.5q8 63 13 143t5 164t-5 164t-13 143q-6 45 -25.5 87t-53.5 74t-80 51t-108 19q-100 0 -176 -59t-90 -172q-8 -63 -12 -143t-4 -164z" />
<glyph unicode="&#xd6;" horiz-adv-x="1138" d="M92 718q0 85 4 165t13 141q10 84 44.5 161t93 136t139.5 94t183 35q92 0 171 -29.5t139.5 -85t99.5 -134.5t51 -177q8 -61 11 -142t3 -165t-4 -165t-10 -142q-10 -84 -45 -162t-93 -136.5t-140 -93t-183 -34.5q-92 0 -171 29.5t-139 85t-99 134t-51 177.5 q-8 61 -12.5 142t-4.5 166zM287 717q0 -84 4 -164t12 -143q6 -45 25.5 -87t53.5 -74t81 -51.5t106 -19.5q104 0 177 60.5t90 171.5q8 63 13 143t5 164t-5 164t-13 143q-6 45 -25.5 87t-53.5 74t-80 51t-108 19q-100 0 -176 -59t-90 -172q-8 -63 -12 -143t-4 -164zM291 1569 v141q0 12 9 22.5t24 10.5h139q14 0 23.5 -10.5t9.5 -22.5v-141q0 -33 -33 -33h-139q-33 0 -33 33zM641 1569v141q0 12 9 22.5t24 10.5h139q14 0 23.5 -10.5t9.5 -22.5v-141q0 -33 -33 -33h-139q-33 0 -33 33z" />
<glyph unicode="&#xd7;" horiz-adv-x="987" d="M102.5 786.5q-0.5 16.5 12.5 28.5l75 76q29 29 58 0l231 -232q14 -14 29 0l229 230q12 12 28.5 12t29.5 -12l75 -76q12 -12 12.5 -28.5t-12.5 -28.5l-229 -230q-14 -14 0 -28l231 -232q29 -29 0 -57l-75 -76q-12 -12 -28.5 -12t-29.5 12l-231 232q-14 14 -29 0l-229 -230 q-12 -12 -28.5 -12t-28.5 12l-76 76q-12 12 -12.5 28.5t12.5 28.5l229 230q14 14 0 28l-231 232q-12 12 -12.5 28.5z" />
<glyph unicode="&#xd8;" horiz-adv-x="1138" d="M75 17.5q-14 17.5 1 39.5l84 136q10 16 7 24t-7 12q-18 41 -31.5 85t-19.5 96q-8 61 -12.5 142t-4.5 166t4 165t13 141q10 84 44.5 161t93 136t139.5 94t183 35q160 0 275 -84q4 -4 9 -5t13 9l23 33q10 16 17 23.5t22 7.5h106q20 0 32.5 -18.5t0.5 -39.5l-92 -145 q-6 -10 -4 -14.5t4 -8.5q39 -80 55 -184q8 -61 11 -142t3 -165t-4 -165t-10 -142q-10 -84 -45 -162t-93 -136.5t-140 -93t-183 -34.5q-158 0 -270 79l-9 4.5t-14 -8.5l-18 -28q-18 -31 -43 -31h-106q-20 0 -34 17.5zM288 747.5q-1 -75.5 1 -150.5t8 -138q0 -10 5 -15.5 t15 11.5q139 229 242 401t189 315q8 12 5 17.5t-8 7.5q-33 27 -77 43t-99 16q-100 0 -176 -59t-90 -172q-6 -57 -10 -129t-5 -147.5zM396 238.5q5 -7.5 10 -11.5q66 -49 163 -49q104 0 177.5 60.5t89.5 171.5q8 57 12 127.5t5 146.5t-2 150.5t-9 138.5q0 4 -5.5 8t-13.5 -8 l-422 -711q-10 -16 -5 -23.5z" />
<glyph unicode="&#xd9;" horiz-adv-x="1142" d="M111 410v983q0 16 12 28.5t29 12.5h112q16 0 28.5 -12.5t12.5 -28.5v-983q0 -61 22.5 -105.5t60.5 -72t86 -41t97 -13.5q57 0 106.5 17.5t85.5 49t55.5 73.5t19.5 92v983q0 16 12 28.5t29 12.5h112q16 0 28.5 -12.5t12.5 -28.5v-983q0 -92 -37 -170t-100.5 -135.5 t-147 -89t-176.5 -31.5q-98 0 -183 31.5t-146.5 89t-96 135t-34.5 170.5zM289 1816.5q6 16.5 26 16.5h162q23 0 34 -11.5t19 -21.5l156 -223q8 -10 0 -25.5t-29 -15.5h-82q-29 0 -40 7t-21 18l-221 229q-10 10 -4 26.5z" />
<glyph unicode="&#xda;" horiz-adv-x="1142" d="M111 410v983q0 16 12 28.5t29 12.5h112q16 0 28.5 -12.5t12.5 -28.5v-983q0 -61 22.5 -105.5t60.5 -72t86 -41t97 -13.5q57 0 106.5 17.5t85.5 49t55.5 73.5t19.5 92v983q0 16 12 28.5t29 12.5h112q16 0 28.5 -12.5t12.5 -28.5v-983q0 -92 -37 -170t-100.5 -135.5 t-147 -89t-176.5 -31.5q-98 0 -183 31.5t-146.5 89t-96 135t-34.5 170.5zM454.5 1551.5q-8.5 15.5 0.5 25.5l155 223q8 10 19.5 21.5t34.5 11.5h161q20 0 26.5 -16.5t-3.5 -26.5l-221 -229q-10 -10 -21.5 -17.5t-40.5 -7.5h-82q-20 0 -28.5 15.5z" />
<glyph unicode="&#xdb;" horiz-adv-x="1142" d="M111 410v983q0 16 12 28.5t29 12.5h112q16 0 28.5 -12.5t12.5 -28.5v-983q0 -61 22.5 -105.5t60.5 -72t86 -41t97 -13.5q57 0 106.5 17.5t85.5 49t55.5 73.5t19.5 92v983q0 16 12 28.5t29 12.5h112q16 0 28.5 -12.5t12.5 -28.5v-983q0 -92 -37 -170t-100.5 -135.5 t-147 -89t-176.5 -31.5q-98 0 -183 31.5t-146.5 89t-96 135t-34.5 170.5zM242 1552.5q-6 16.5 4 26.5l221 229q10 10 21.5 17.5t39.5 7.5h86q27 0 38.5 -7t21.5 -18l221 -229q10 -10 4 -26.5t-27 -16.5h-120q-23 0 -38.5 11.5t-25.5 21.5l-104 100q-14 14 -29 0l-102 -100 q-10 -10 -25.5 -21.5t-38.5 -11.5h-121q-20 0 -26 16.5z" />
<glyph unicode="&#xdc;" horiz-adv-x="1142" d="M111 410v983q0 16 12 28.5t29 12.5h112q16 0 28.5 -12.5t12.5 -28.5v-983q0 -61 22.5 -105.5t60.5 -72t86 -41t97 -13.5q57 0 106.5 17.5t85.5 49t55.5 73.5t19.5 92v983q0 16 12 28.5t29 12.5h112q16 0 28.5 -12.5t12.5 -28.5v-983q0 -92 -37 -170t-100.5 -135.5 t-147 -89t-176.5 -31.5q-98 0 -183 31.5t-146.5 89t-96 135t-34.5 170.5zM297 1569v141q0 12 9 22.5t24 10.5h139q14 0 23.5 -10.5t9.5 -22.5v-141q0 -33 -33 -33h-139q-33 0 -33 33zM647 1569v141q0 12 9.5 22.5t23.5 10.5h139q14 0 23.5 -10.5t9.5 -22.5v-141 q0 -33 -33 -33h-139q-33 0 -33 33z" />
<glyph unicode="&#xdd;" horiz-adv-x="937" d="M25 1376q-10 23 1 40.5t31 17.5h136q29 0 38 -31l232 -637q8 -20 16 0l228 637q10 31 38 31h136q20 0 31.5 -17.5t0.5 -40.5l-344 -882v-453q0 -16 -12 -28.5t-29 -12.5h-114q-16 0 -28.5 12.5t-12.5 28.5v451zM373 1551.5q-8 15.5 0 25.5l155 223q8 10 19.5 21.5 t34.5 11.5h161q20 0 26.5 -16.5t-3.5 -26.5l-221 -229q-10 -10 -21.5 -17.5t-40.5 -7.5h-82q-20 0 -28 15.5z" />
<glyph unicode="&#xde;" horiz-adv-x="1044" d="M133 41v1352q0 16 12.5 28.5t28.5 12.5h113q16 0 28.5 -12.5t12.5 -28.5v-164q0 -20 20 -21h174q88 0 167 -33.5t137.5 -92t92 -137.5t33.5 -167v-102q0 -90 -33.5 -168t-92 -136.5t-137.5 -92t-167 -33.5h-174q-20 0 -20 -21v-184q0 -16 -12.5 -28.5t-28.5 -12.5h-113 q-16 0 -28.5 12.5t-12.5 28.5zM328 461q0 -20 20 -21h174q49 0 91 18.5t75 51.5t51.5 75t18.5 91v102q0 49 -18.5 91t-51.5 75t-75 51.5t-91 18.5h-174q-20 0 -20 -21v-532z" />
<glyph unicode="&#xdf;" horiz-adv-x="1058" d="M133 41v1018q0 82 32 153.5t86 126t128 85t158 30.5t156.5 -30.5t126.5 -85t85 -126t31 -153.5q0 -86 -33 -157t-86 -124q-10 -10 -13 -23.5t11 -25.5q68 -59 110 -136t42 -187q0 -88 -34 -163t-92.5 -128.5t-137 -84t-166.5 -30.5h-41q-16 0 -28.5 12.5t-12.5 28.5v102 q0 16 12 28.5t29 12.5h41q51 0 96 17.5t78.5 47.5t52 69.5t18.5 87.5q0 43 -12 88t-41 80.5t-75 59t-113 23.5h-25q-16 0 -28.5 12.5t-12.5 28.5v101q0 16 12.5 28.5t28.5 12.5h25q53 0 93 18.5t65.5 48t39 69.5t13.5 83q0 86 -58.5 148.5t-156.5 62.5q-100 0 -157.5 -62.5 t-57.5 -148.5v-1018q0 -16 -12.5 -28.5t-28.5 -12.5h-107q-16 0 -28.5 12.5t-12.5 28.5z" />
<glyph unicode="&#xe0;" horiz-adv-x="997" d="M88 307q0 63 22.5 119.5t65.5 99.5t106.5 67.5t143.5 24.5h250q20 0 20 21v78q0 84 -52 124t-138 40q-27 0 -59.5 -6.5t-62.5 -21.5t-49.5 -40t-19.5 -61q0 -27 -16 -31t-31 -4h-92q-41 0 -41 41q0 72 34 125t87 89t118.5 54t131.5 18q174 0 274.5 -77.5t100.5 -249.5 v-676q0 -16 -12.5 -28.5t-28.5 -12.5h-70q-16 0 -29 14q-10 12 -17 27.5t-24 15.5q-14 0 -31.5 -12t-45 -26.5t-66.5 -26.5t-96 -12q-94 0 -165 26.5t-117 71.5t-68.5 104.5t-22.5 124.5zM272 309q0 -76 46.5 -117.5t136.5 -41.5q141 0 199.5 55t58.5 160v65q0 20 -21 21 h-266q-78 0 -116 -38t-38 -104zM299 1478.5q6 16.5 27 16.5h161q23 0 34 -11t20 -22l155 -223q8 -10 0 -25.5t-28 -15.5h-82q-29 0 -40 7t-22 18l-221 229q-10 10 -4 26.5z" />
<glyph unicode="&#xe1;" horiz-adv-x="997" d="M88 307q0 63 22.5 119.5t65.5 99.5t106.5 67.5t143.5 24.5h250q20 0 20 21v78q0 84 -52 124t-138 40q-27 0 -59.5 -6.5t-62.5 -21.5t-49.5 -40t-19.5 -61q0 -27 -16 -31t-31 -4h-92q-41 0 -41 41q0 72 34 125t87 89t118.5 54t131.5 18q174 0 274.5 -77.5t100.5 -249.5 v-676q0 -16 -12.5 -28.5t-28.5 -12.5h-70q-16 0 -29 14q-10 12 -17 27.5t-24 15.5q-14 0 -31.5 -12t-45 -26.5t-66.5 -26.5t-96 -12q-94 0 -165 26.5t-117 71.5t-68.5 104.5t-22.5 124.5zM272 309q0 -76 46.5 -117.5t136.5 -41.5q141 0 199.5 55t58.5 160v65q0 20 -21 21 h-266q-78 0 -116 -38t-38 -104zM383 1239l156 223q8 10 19 21.5t34 11.5h162q20 0 26 -16.5t-4 -26.5l-221 -229q-10 -10 -21.5 -17.5t-39.5 -7.5h-82q-20 0 -28.5 15.5t-0.5 25.5z" />
<glyph unicode="&#xe2;" horiz-adv-x="997" d="M88 307q0 63 22.5 119.5t65.5 99.5t106.5 67.5t143.5 24.5h250q20 0 20 21v78q0 84 -52 124t-138 40q-27 0 -59.5 -6.5t-62.5 -21.5t-49.5 -40t-19.5 -61q0 -27 -16 -31t-31 -4h-92q-41 0 -41 41q0 72 34 125t87 89t118.5 54t131.5 18q174 0 274.5 -77.5t100.5 -249.5 v-676q0 -16 -12.5 -28.5t-28.5 -12.5h-70q-16 0 -29 14q-10 12 -17 27.5t-24 15.5q-14 0 -31.5 -12t-45 -26.5t-66.5 -26.5t-96 -12q-94 0 -165 26.5t-117 71.5t-68.5 104.5t-22.5 124.5zM180.5 1214.5q-6.5 16.5 3.5 26.5l222 229q10 10 21 17.5t40 7.5h86q27 0 38 -7 t21 -18l222 -229q10 -10 3.5 -26.5t-26.5 -16.5h-121q-23 0 -38 11.5t-25 21.5l-105 100q-14 14 -28 0l-103 -100q-10 -10 -25.5 -21.5t-37.5 -11.5h-121q-20 0 -26.5 16.5zM272 309q0 -76 46.5 -117.5t136.5 -41.5q141 0 199.5 55t58.5 160v65q0 20 -21 21h-266 q-78 0 -116 -38t-38 -104z" />
<glyph unicode="&#xe3;" horiz-adv-x="997" d="M88 307q0 63 22.5 119.5t65.5 99.5t106.5 67.5t143.5 24.5h250q20 0 20 21v78q0 84 -52 124t-138 40q-27 0 -59.5 -6.5t-62.5 -21.5t-49.5 -40t-19.5 -61q0 -27 -16 -31t-31 -4h-92q-41 0 -41 41q0 72 34 125t87 89t118.5 54t131.5 18q174 0 274.5 -77.5t100.5 -249.5 v-676q0 -16 -12.5 -28.5t-28.5 -12.5h-70q-16 0 -29 14q-10 12 -17 27.5t-24 15.5q-14 0 -31.5 -12t-45 -26.5t-66.5 -26.5t-96 -12q-94 0 -165 26.5t-117 71.5t-68.5 104.5t-22.5 124.5zM231 1266v82q0 41 42 72.5t104 31.5q49 0 80.5 -8t59.5 -17.5t61 -17.5t86 -8 q39 0 60 13t34 30q12 16 31.5 8t19.5 -37v-82q0 -41 -42 -72.5t-103 -31.5q-49 0 -81 8t-59.5 17.5t-61.5 17.5t-85 8q-35 0 -56.5 -11.5t-37.5 -31.5q-12 -14 -32 -7t-20 36zM272 309q0 -76 46.5 -117.5t136.5 -41.5q141 0 199.5 55t58.5 160v65q0 20 -21 21h-266 q-78 0 -116 -38t-38 -104z" />
<glyph unicode="&#xe4;" horiz-adv-x="997" d="M88 307q0 63 22.5 119.5t65.5 99.5t106.5 67.5t143.5 24.5h250q20 0 20 21v78q0 84 -52 124t-138 40q-27 0 -59.5 -6.5t-62.5 -21.5t-49.5 -40t-19.5 -61q0 -27 -16 -31t-31 -4h-92q-41 0 -41 41q0 72 34 125t87 89t118.5 54t131.5 18q174 0 274.5 -77.5t100.5 -249.5 v-676q0 -16 -12.5 -28.5t-28.5 -12.5h-70q-16 0 -29 14q-10 12 -17 27.5t-24 15.5q-14 0 -31.5 -12t-45 -26.5t-66.5 -26.5t-96 -12q-94 0 -165 26.5t-117 71.5t-68.5 104.5t-22.5 124.5zM242 1274v141q0 12 9 22.5t23 10.5h140q14 0 23 -10.5t9 -22.5v-141q0 -33 -32 -33 h-140q-33 0 -32 33zM272 309q0 -76 46.5 -117.5t136.5 -41.5q141 0 199.5 55t58.5 160v65q0 20 -21 21h-266q-78 0 -116 -38t-38 -104zM592 1274v141q0 12 9 22.5t24 10.5h139q14 0 23.5 -10.5t9.5 -22.5v-141q0 -33 -33 -33h-139q-33 0 -33 33z" />
<glyph unicode="&#xe5;" horiz-adv-x="997" d="M88 307q0 63 22.5 119.5t65.5 99.5t106.5 67.5t143.5 24.5h250q20 0 20 21v78q0 84 -52 124t-138 40q-27 0 -59.5 -6.5t-62.5 -21.5t-49.5 -40t-19.5 -61q0 -27 -16 -31t-31 -4h-92q-41 0 -41 41q0 72 34 125t87 89t118.5 54t131.5 18q174 0 274.5 -77.5t100.5 -249.5 v-676q0 -16 -12.5 -28.5t-28.5 -12.5h-70q-16 0 -29 14q-10 12 -17 27.5t-24 15.5q-14 0 -31.5 -12t-45 -26.5t-66.5 -26.5t-96 -12q-94 0 -165 26.5t-117 71.5t-68.5 104.5t-22.5 124.5zM272 309q0 -76 46.5 -117.5t136.5 -41.5q141 0 199.5 55t58.5 160v65q0 20 -21 21 h-266q-78 0 -116 -38t-38 -104zM295 1372q0 47 17.5 88t48 72t71.5 48t88 17t88 -17t72 -48t48 -72t17 -88t-17 -88t-48 -71.5t-72 -48t-88 -17.5t-88 17.5t-71.5 48t-48 71.5t-17.5 88zM438 1372q0 -35 23.5 -58.5t58.5 -23.5t58.5 23.5t23.5 58.5t-23.5 58.5t-58.5 23.5 t-58.5 -23.5t-23.5 -58.5z" />
<glyph unicode="&#xe6;" horiz-adv-x="1626" d="M88 307q0 63 22.5 119.5t65.5 98.5t106.5 66.5t143.5 24.5h260q20 0 21 21v70q0 88 -59.5 131t-137.5 43q-25 0 -58.5 -5.5t-64.5 -19.5t-51.5 -39.5t-20.5 -64.5q0 -27 -16 -31t-31 -4h-92q-41 0 -41 41q0 72 34 125t88 89t120.5 54t132.5 18q94 0 171 -38.5t112 -81.5 q10 -14 28.5 -14t32.5 14q47 51 118.5 85.5t157.5 34.5t161 -32.5t130.5 -88t87 -130t31.5 -158.5v-141q-2 -16 -13 -28.5t-28 -12.5h-586q-20 0 -20 -21q0 -141 65.5 -204.5t171.5 -63.5q80 0 136.5 36t74.5 93q6 20 19.5 27.5t28.5 7.5h104q16 0 27.5 -9.5t7.5 -31.5 q-10 -68 -43 -124.5t-85 -97t-121 -63t-149 -22.5q-90 0 -161.5 27.5t-124.5 76.5q-39 33 -78 -2q-49 -41 -125 -71.5t-180 -30.5q-94 0 -165 26.5t-117 71.5t-68.5 104.5t-22.5 124.5zM272 309q0 -76 46.5 -117.5t136.5 -41.5q141 0 204.5 55t63.5 160v67q0 20 -21 21h-276 q-78 0 -116 -39t-38 -105zM897 637q0 -20 21 -21h425q20 0 21 21q0 106 -67.5 164.5t-163.5 58.5q-106 0 -171 -64.5t-65 -158.5z" />
<glyph unicode="&#xe7;" horiz-adv-x="978" d="M88 512q0 82 4 143q6 80 36 152t82 124t126 82.5t166 30.5q86 0 158.5 -26.5t125 -72.5t82 -110.5t29.5 -138.5q0 -16 -9 -28.5t-26 -12.5h-110q-14 0 -26.5 8.5t-12.5 24.5q0 72 -57.5 122t-153.5 50q-106 0 -162.5 -61.5t-63.5 -143.5q-4 -63 -4 -143t4 -143 q6 -82 62.5 -143.5t163.5 -61.5q94 0 151.5 49t57.5 121q0 20 12 27.5t27 7.5h106q16 0 28.5 -12.5t12.5 -28.5q0 -74 -29.5 -138.5t-82 -110.5t-125 -72.5t-158.5 -26.5q-92 0 -166 30.5t-126 82.5t-82 124t-36 152q-4 61 -4 143zM322 -373l77 248q8 33 39 33h109 q20 0 28.5 -11.5t4.5 -25.5l-58 -248q-8 -33 -39 -33h-129q-20 0 -28.5 11.5t-3.5 25.5z" />
<glyph unicode="&#xe8;" horiz-adv-x="1007" d="M88 512q0 82 4 143q6 80 38 152t86 124t129 82.5t167 30.5q186 0 298 -108.5t112 -300.5v-141q0 -16 -12.5 -28.5t-28.5 -12.5h-586q-20 0 -21 -21q0 -141 66 -204.5t172 -63.5q80 0 136.5 36t74.5 93q6 20 19.5 27.5t27.5 7.5h104q16 0 27.5 -9.5t7.5 -31.5 q-10 -68 -42.5 -124.5t-85 -97t-121 -63t-148.5 -22.5q-92 0 -167 30.5t-129 82.5t-86 124t-38 152q-4 61 -4 143zM262 1478.5q6 16.5 27 16.5h162q23 0 34 -11t19 -22l155 -223q8 -10 0 -25.5t-28 -15.5h-82q-29 0 -40 7t-22 18l-221 229q-10 10 -4 26.5zM279 637 q0 -20 20 -21h426q20 0 20 21q0 106 -67.5 164.5t-163.5 58.5q-106 0 -170.5 -64.5t-64.5 -158.5z" />
<glyph unicode="&#xe9;" horiz-adv-x="1007" d="M88 512q0 82 4 143q6 80 38 152t86 124t129 82.5t167 30.5q186 0 298 -108.5t112 -300.5v-141q0 -16 -12.5 -28.5t-28.5 -12.5h-586q-20 0 -21 -21q0 -141 66 -204.5t172 -63.5q80 0 136.5 36t74.5 93q6 20 19.5 27.5t27.5 7.5h104q16 0 27.5 -9.5t7.5 -31.5 q-10 -68 -42.5 -124.5t-85 -97t-121 -63t-148.5 -22.5q-92 0 -167 30.5t-129 82.5t-86 124t-38 152q-4 61 -4 143zM279 637q0 -20 20 -21h426q20 0 20 21q0 106 -67.5 164.5t-163.5 58.5q-106 0 -170.5 -64.5t-64.5 -158.5zM387 1239l156 223q8 10 19 21.5t34 11.5h162 q20 0 26.5 -16.5t-4.5 -26.5l-221 -229q-10 -10 -21.5 -17.5t-39.5 -7.5h-82q-20 0 -28.5 15.5t-0.5 25.5z" />
<glyph unicode="&#xea;" horiz-adv-x="1007" d="M88 512q0 82 4 143q6 80 38 152t86 124t129 82.5t167 30.5q186 0 298 -108.5t112 -300.5v-141q0 -16 -12.5 -28.5t-28.5 -12.5h-586q-20 0 -21 -21q0 -141 66 -204.5t172 -63.5q80 0 136.5 36t74.5 93q6 20 19.5 27.5t27.5 7.5h104q16 0 27.5 -9.5t7.5 -31.5 q-10 -68 -42.5 -124.5t-85 -97t-121 -63t-148.5 -22.5q-92 0 -167 30.5t-129 82.5t-86 124t-38 152q-4 61 -4 143zM196.5 1214.5q-6.5 16.5 4.5 26.5l221 229q10 10 21.5 17.5t39.5 7.5h86q27 0 38 -7t22 -18l221 -229q10 -10 4 -26.5t-27 -16.5h-120q-23 0 -38.5 11.5 t-25.5 21.5l-104 100q-14 14 -29 0l-102 -100q-10 -10 -25.5 -21.5t-38.5 -11.5h-121q-20 0 -26.5 16.5zM279 637q0 -20 20 -21h426q20 0 20 21q0 106 -67.5 164.5t-163.5 58.5q-106 0 -170.5 -64.5t-64.5 -158.5z" />
<glyph unicode="&#xeb;" horiz-adv-x="1007" d="M88 512q0 82 4 143q6 80 38 152t86 124t129 82.5t167 30.5q186 0 298 -108.5t112 -300.5v-141q0 -16 -12.5 -28.5t-28.5 -12.5h-586q-20 0 -21 -21q0 -141 66 -204.5t172 -63.5q80 0 136.5 36t74.5 93q6 20 19.5 27.5t27.5 7.5h104q16 0 27.5 -9.5t7.5 -31.5 q-10 -68 -42.5 -124.5t-85 -97t-121 -63t-148.5 -22.5q-92 0 -167 30.5t-129 82.5t-86 124t-38 152q-4 61 -4 143zM246 1274v141q0 12 9 22.5t24 10.5h139q14 0 23.5 -10.5t9.5 -22.5v-141q0 -33 -33 -33h-139q-33 0 -33 33zM279 637q0 -20 20 -21h426q20 0 20 21 q0 106 -67.5 164.5t-163.5 58.5q-106 0 -170.5 -64.5t-64.5 -158.5zM596 1274v141q0 12 9 22.5t24 10.5h139q14 0 23.5 -10.5t9.5 -22.5v-141q0 -33 -33 -33h-139q-33 0 -33 33z" />
<glyph unicode="&#xec;" horiz-adv-x="471" d="M-4 1478.5q6 16.5 27 16.5h161q23 0 34 -11t20 -22l155 -223q8 -10 0 -25.5t-28 -15.5h-82q-29 0 -40.5 7t-21.5 18l-221 229q-10 10 -4 26.5zM143 41v942q0 16 12.5 28.5t28.5 12.5h107q16 0 28.5 -12.5t12.5 -28.5v-942q0 -16 -12.5 -28.5t-28.5 -12.5h-107 q-16 0 -28.5 12.5t-12.5 28.5z" />
<glyph unicode="&#xed;" horiz-adv-x="471" d="M100 1239l156 223q8 10 19.5 21.5t33.5 11.5h162q20 0 26.5 -16.5t-3.5 -26.5l-222 -229q-10 -10 -21 -17.5t-40 -7.5h-82q-20 0 -28.5 15.5t-0.5 25.5zM143 41v942q0 16 12.5 28.5t28.5 12.5h107q16 0 28.5 -12.5t12.5 -28.5v-942q0 -16 -12.5 -28.5t-28.5 -12.5h-107 q-16 0 -28.5 12.5t-12.5 28.5z" />
<glyph unicode="&#xee;" horiz-adv-x="471" d="M-92 1214.5q-6 16.5 4 26.5l221 229q10 10 21.5 17.5t40.5 7.5h86q27 0 38 -7t21 -18l221 -229q10 -10 4 -26.5t-26 -16.5h-121q-23 0 -38 11.5t-26 21.5l-104 100q-14 14 -29 0l-102 -100q-10 -10 -25.5 -21.5t-38.5 -11.5h-121q-20 0 -26 16.5zM143 41v942 q0 16 12.5 28.5t28.5 12.5h107q16 0 28.5 -12.5t12.5 -28.5v-942q0 -16 -12.5 -28.5t-28.5 -12.5h-107q-16 0 -28.5 12.5t-12.5 28.5z" />
<glyph unicode="&#xef;" horiz-adv-x="471" d="M-41 1274v141q0 12 9 22.5t24 10.5h139q14 0 23.5 -10.5t9.5 -22.5v-141q0 -33 -33 -33h-139q-33 0 -33 33zM143 41v942q0 16 12.5 28.5t28.5 12.5h107q16 0 28.5 -12.5t12.5 -28.5v-942q0 -16 -12.5 -28.5t-28.5 -12.5h-107q-16 0 -28.5 12.5t-12.5 28.5zM309 1274v141 q0 12 9.5 22.5t23.5 10.5h139q14 0 23.5 -10.5t9.5 -22.5v-141q0 -33 -33 -33h-139q-33 0 -33 33z" />
<glyph unicode="&#xf0;" horiz-adv-x="1009" d="M74 460.5q0 18.5 1 40t3 52.5q6 80 37.5 151.5t86 124t129.5 83t167 30.5q61 0 103 -15.5t75 -33.5q27 -10 22 8q-6 59 -19 111.5t-36 95.5q-10 18 -20 8l-150 -84q-16 -10 -36.5 -2t-20.5 31v63q0 16 3 30.5t27 27.5l50 24q14 8 8.5 19.5t-19.5 15.5q-31 8 -71 8h-74 q-16 0 -28.5 12.5t-12.5 28.5v103q0 16 12.5 28.5t28.5 12.5h74q88 0 153.5 -19.5t116.5 -56.5q10 -4 18 2l146 84q16 10 33.5 1t17.5 -30v-84q0 -20 -5 -29.5t-22 -19.5l-63 -39q-16 -12 -10 -20q35 -68 60.5 -159t41.5 -204q37 -246 6 -491q-10 -80 -40.5 -152t-82 -124 t-123 -82.5t-163.5 -30.5t-167 30.5t-129.5 82.5t-86 124t-37.5 152q-2 31 -3 52t-1 39.5zM258 460.5q0 -18.5 1 -40t3 -51.5q6 -82 68 -143.5t168 -61.5t167.5 61.5t67.5 143.5q2 31 3 52t1 39.5t-1 40t-3 52.5q-6 82 -67.5 143.5t-167.5 61.5t-168 -61.5t-68 -143.5 q-2 -31 -3 -52.5t-1 -40z" />
<glyph unicode="&#xf1;" d="M123 41v942q0 16 12 28.5t29 12.5h90q14 0 29 -14q10 -10 22 -21.5t29 -11.5q23 0 39 10t38.5 23.5t55.5 23.5t86 10q86 0 157.5 -26.5t123 -76.5t80 -123t28.5 -163v-614q0 -16 -12 -28.5t-29 -12.5h-102q-16 0 -28.5 12.5t-12.5 28.5v614q0 98 -64.5 151.5t-161.5 53.5 q-96 0 -160.5 -52t-64.5 -142v-625q0 -16 -12 -28.5t-29 -12.5h-102q-16 0 -28.5 12.5t-12.5 28.5zM238 1266v82q0 41 42 72.5t103 31.5q49 0 81 -8t59.5 -17.5t60.5 -17.5t86 -8q39 0 60.5 13t33.5 30q12 16 31.5 8t19.5 -37v-82q0 -41 -42 -72.5t-103 -31.5q-49 0 -81 8 t-59.5 17.5t-61.5 17.5t-85 8q-35 0 -56.5 -11.5t-37.5 -31.5q-12 -14 -31.5 -7t-19.5 36z" />
<glyph unicode="&#xf2;" horiz-adv-x="1024" d="M88 512q0 82 4 143q6 80 38 152t86 124t129 82.5t167 30.5t167 -30.5t129 -82.5t86 -124t38 -152q4 -61 4 -143t-4 -143q-6 -80 -38 -152t-86 -124t-129 -82.5t-167 -30.5t-167 30.5t-129 82.5t-86 124t-38 152q-4 61 -4 143zM229.5 1478.5q6.5 16.5 26.5 16.5h162 q23 0 34 -11t19 -22l156 -223q8 -10 -0.5 -25.5t-28.5 -15.5h-82q-29 0 -40 7t-21 18l-222 229q-10 10 -3.5 26.5zM272 512q0 -80 4 -143q6 -82 68 -143.5t168 -61.5t167.5 61.5t68.5 143.5q4 63 4 143t-4 143q-6 82 -68 143.5t-168 61.5t-168 -61.5t-68 -143.5 q-4 -63 -4 -143z" />
<glyph unicode="&#xf3;" horiz-adv-x="1024" d="M88 512q0 82 4 143q6 80 38 152t86 124t129 82.5t167 30.5t167 -30.5t129 -82.5t86 -124t38 -152q4 -61 4 -143t-4 -143q-6 -80 -38 -152t-86 -124t-129 -82.5t-167 -30.5t-167 30.5t-129 82.5t-86 124t-38 152q-4 61 -4 143zM272 512q0 -80 4 -143q6 -82 68 -143.5 t168 -61.5t167.5 61.5t68.5 143.5q4 63 4 143t-4 143q-6 82 -68 143.5t-168 61.5t-168 -61.5t-68 -143.5q-4 -63 -4 -143zM395 1239l156 223q8 10 19.5 21.5t33.5 11.5h162q20 0 26.5 -16.5t-4.5 -26.5l-221 -229q-10 -10 -21 -17.5t-40 -7.5h-82q-20 0 -28.5 15.5 t-0.5 25.5z" />
<glyph unicode="&#xf4;" horiz-adv-x="1024" d="M88 512q0 82 4 143q6 80 38 152t86 124t129 82.5t167 30.5t167 -30.5t129 -82.5t86 -124t38 -152q4 -61 4 -143t-4 -143q-6 -80 -38 -152t-86 -124t-129 -82.5t-167 -30.5t-167 30.5t-129 82.5t-86 124t-38 152q-4 61 -4 143zM184.5 1214.5q-6.5 16.5 3.5 26.5l222 229 q10 10 21 17.5t40 7.5h86q27 0 38 -7t21 -18l222 -229q10 -10 4 -26.5t-27 -16.5h-121q-23 0 -38 11.5t-25 21.5l-105 100q-14 14 -28 0l-103 -100q-10 -10 -25.5 -21.5t-37.5 -11.5h-121q-20 0 -26.5 16.5zM272 512q0 -80 4 -143q6 -82 68 -143.5t168 -61.5t167.5 61.5 t68.5 143.5q4 63 4 143t-4 143q-6 82 -68 143.5t-168 61.5t-168 -61.5t-68 -143.5q-4 -63 -4 -143z" />
<glyph unicode="&#xf5;" horiz-adv-x="1024" d="M88 512q0 82 4 143q6 80 38 152t86 124t129 82.5t167 30.5t167 -30.5t129 -82.5t86 -124t38 -152q4 -61 4 -143t-4 -143q-6 -80 -38 -152t-86 -124t-129 -82.5t-167 -30.5t-167 30.5t-129 82.5t-86 124t-38 152q-4 61 -4 143zM223 1266v82q0 41 42 72.5t104 31.5 q49 0 80.5 -8t59.5 -17.5t60.5 -17.5t85.5 -8q39 0 60.5 13t34.5 30q12 16 31.5 8t19.5 -37v-82q0 -41 -42 -72.5t-104 -31.5q-49 0 -80.5 8t-59.5 17.5t-61.5 17.5t-84.5 8q-35 0 -56.5 -11.5t-38.5 -31.5q-12 -14 -31.5 -7t-19.5 36zM272 512q0 -80 4 -143 q6 -82 68 -143.5t168 -61.5t167.5 61.5t68.5 143.5q4 63 4 143t-4 143q-6 82 -68 143.5t-168 61.5t-168 -61.5t-68 -143.5q-4 -63 -4 -143z" />
<glyph unicode="&#xf6;" horiz-adv-x="1024" d="M88 512q0 82 4 143q6 80 38 152t86 124t129 82.5t167 30.5t167 -30.5t129 -82.5t86 -124t38 -152q4 -61 4 -143t-4 -143q-6 -80 -38 -152t-86 -124t-129 -82.5t-167 -30.5t-167 30.5t-129 82.5t-86 124t-38 152q-4 61 -4 143zM233 1274v141q0 12 9.5 22.5t23.5 10.5h140 q14 0 23 -10.5t9 -22.5v-141q0 -33 -32 -33h-140q-33 0 -33 33zM272 512q0 -80 4 -143q6 -82 68 -143.5t168 -61.5t167.5 61.5t68.5 143.5q4 63 4 143t-4 143q-6 82 -68 143.5t-168 61.5t-168 -61.5t-68 -143.5q-4 -63 -4 -143zM584 1274v141q0 12 9 22.5t23 10.5h140 q14 0 23 -10.5t9 -22.5v-141q0 -33 -32 -33h-140q-33 0 -32 33z" />
<glyph unicode="&#xf7;" horiz-adv-x="1064" d="M102 455v112q0 16 12.5 28.5t28.5 12.5h779q16 0 28.5 -12t12.5 -29v-112q0 -16 -12.5 -28.5t-28.5 -12.5h-779q-16 0 -28.5 12t-12.5 29zM420 41v170q0 16 12 28.5t29 12.5h170q16 0 28.5 -12.5t12.5 -28.5v-170q0 -16 -12.5 -28.5t-28.5 -12.5h-170q-16 0 -28.5 12.5 t-12.5 28.5zM420 793v170q0 16 12 28.5t29 12.5h170q16 0 28.5 -12.5t12.5 -28.5v-170q0 -16 -12.5 -28.5t-28.5 -12.5h-170q-16 0 -28.5 12t-12.5 29z" />
<glyph unicode="&#xf8;" horiz-adv-x="1024" d="M28.5 22.5q-12.5 22.5 4.5 43.5l100 118q8 10 6 14.5t-4 8.5q-37 74 -43 162q-4 61 -4 143t4 143q6 80 38 152t86 124t129 82.5t167 30.5q145 0 248 -73q4 -2 7 -4t11 6l19 20q25 31 49 31h96q20 0 32.5 -21.5t-3.5 -39.5l-86 -105q-8 -10 -6 -17t4 -12q16 -41 30.5 -84 t18.5 -90q4 -61 4 -143t-4 -143q-6 -80 -38 -152t-86 -124t-129 -82.5t-167 -30.5q-78 0 -143.5 21.5t-116.5 59.5q-4 2 -8 5.5t-11 -7.5l-22 -28q-10 -14 -20.5 -22.5t-30.5 -8.5h-99q-20 0 -32.5 22.5zM272 520q0 -76 4 -139q0 -4 4.5 -7t10.5 3l352 430q4 6 3 12t-5 8 q-59 33 -129 33q-106 0 -167.5 -61.5t-68.5 -143.5q-4 -59 -4 -135zM366 213q1 -6 5 -8q57 -41 141 -41q106 0 167.5 61.5t68.5 143.5q4 63 6 143t-6 143q0 6 -5.5 13.5t-13.5 -2.5l-360 -441q-4 -6 -3 -12z" />
<glyph unicode="&#xf9;" d="M113 369v614q0 16 12 28.5t29 12.5h102q16 0 28.5 -12.5t12.5 -28.5v-614q0 -90 59.5 -147.5t165.5 -57.5q96 0 161 52t65 142v625q0 16 12 28.5t28 12.5h103q16 0 28.5 -12.5t12.5 -28.5v-942q0 -16 -12.5 -28.5t-28.5 -12.5h-90q-14 0 -29 14q-10 10 -22.5 21.5 t-28.5 11.5q-23 0 -38 -10t-36.5 -23.5t-54.5 -23.5t-90 -10q-86 0 -158 28.5t-123 80.5t-79.5 124t-28.5 156zM266 1478.5q6 16.5 27 16.5h162q23 0 34 -11t19 -22l156 -223q8 -10 -0.5 -25.5t-28.5 -15.5h-82q-29 0 -40 7t-21 18l-222 229q-10 10 -4 26.5z" />
<glyph unicode="&#xfa;" d="M113 369v614q0 16 12 28.5t29 12.5h102q16 0 28.5 -12.5t12.5 -28.5v-614q0 -90 59.5 -147.5t165.5 -57.5q96 0 161 52t65 142v625q0 16 12 28.5t28 12.5h103q16 0 28.5 -12.5t12.5 -28.5v-942q0 -16 -12.5 -28.5t-28.5 -12.5h-90q-14 0 -29 14q-10 10 -22.5 21.5 t-28.5 11.5q-23 0 -38 -10t-36.5 -23.5t-54.5 -23.5t-90 -10q-86 0 -158 28.5t-123 80.5t-79.5 124t-28.5 156zM391 1239l156 223q8 10 19.5 21.5t33.5 11.5h162q20 0 26.5 -16.5t-4.5 -26.5l-221 -229q-10 -10 -21.5 -17.5t-39.5 -7.5h-82q-20 0 -28.5 15.5t-0.5 25.5z" />
<glyph unicode="&#xfb;" d="M113 369v614q0 16 12 28.5t29 12.5h102q16 0 28.5 -12.5t12.5 -28.5v-614q0 -90 59.5 -147.5t165.5 -57.5q96 0 161 52t65 142v625q0 16 12 28.5t28 12.5h103q16 0 28.5 -12.5t12.5 -28.5v-942q0 -16 -12.5 -28.5t-28.5 -12.5h-90q-14 0 -29 14q-10 10 -22.5 21.5 t-28.5 11.5q-23 0 -38 -10t-36.5 -23.5t-54.5 -23.5t-90 -10q-86 0 -158 28.5t-123 80.5t-79.5 124t-28.5 156zM199 1214.5q-6 16.5 4 26.5l221 229q10 10 21.5 17.5t39.5 7.5h86q27 0 38.5 -7t21.5 -18l221 -229q10 -10 4 -26.5t-27 -16.5h-120q-23 0 -38.5 11.5 t-25.5 21.5l-104 100q-14 14 -29 0l-102 -100q-10 -10 -25.5 -21.5t-38.5 -11.5h-121q-20 0 -26 16.5z" />
<glyph unicode="&#xfc;" d="M113 369v614q0 16 12 28.5t29 12.5h102q16 0 28.5 -12.5t12.5 -28.5v-614q0 -90 59.5 -147.5t165.5 -57.5q96 0 161 52t65 142v625q0 16 12 28.5t28 12.5h103q16 0 28.5 -12.5t12.5 -28.5v-942q0 -16 -12.5 -28.5t-28.5 -12.5h-90q-14 0 -29 14q-10 10 -22.5 21.5 t-28.5 11.5q-23 0 -38 -10t-36.5 -23.5t-54.5 -23.5t-90 -10q-86 0 -158 28.5t-123 80.5t-79.5 124t-28.5 156zM250 1274v141q0 12 9 22.5t24 10.5h139q14 0 23.5 -10.5t9.5 -22.5v-141q0 -33 -33 -33h-139q-33 0 -33 33zM600 1274v141q0 12 9 22.5t24 10.5h139 q14 0 23.5 -10.5t9.5 -22.5v-141q0 -33 -33 -33h-139q-33 0 -33 33z" />
<glyph unicode="&#xfd;" horiz-adv-x="946" d="M14 977q-6 16 4.5 31.5t34.5 15.5h125q29 0 39 -31l252 -665q8 -20 16 0l238 665q10 31 39 31h121q25 0 35 -15.5t4 -31.5l-521 -1356q-10 -31 -39 -31h-110q-25 0 -35 15.5t-4 32.5l152 417q6 16 2 27zM336 1239l156 223q8 10 19 21.5t34 11.5h162q20 0 26 -16.5 t-4 -26.5l-221 -229q-10 -10 -21.5 -17.5t-40.5 -7.5h-81q-20 0 -28.5 15.5t-0.5 25.5z" />
<glyph unicode="&#xfe;" horiz-adv-x="1015" d="M133 -369v1776q0 16 12.5 28.5t28.5 12.5h102q16 0 28.5 -12.5t12.5 -28.5v-371q0 -14 11.5 -28.5t33.5 -14.5q14 0 33 8.5t42.5 17.5t52 17t63.5 8q80 0 148.5 -30.5t119.5 -82.5t83 -124t38 -152q4 -61 4 -143t-4 -143q-6 -80 -38 -152t-83 -124t-119.5 -82.5 t-148.5 -30.5q-35 0 -63.5 8t-52 17t-42 17.5t-33.5 8.5q-23 0 -34 -14.5t-11 -28.5v-357q0 -16 -12 -28.5t-29 -12.5h-102q-16 0 -28.5 12.5t-12.5 28.5zM293 512q0 -80 4 -143q6 -82 67.5 -143.5t167.5 -61.5t168 61.5t68 143.5q4 63 4 143t-4 143q-6 82 -67.5 143.5 t-168.5 61.5q-106 0 -167.5 -61.5t-67.5 -143.5q-4 -63 -4 -143z" />
<glyph unicode="&#xff;" horiz-adv-x="946" d="M14 977q-6 16 4.5 31.5t34.5 15.5h125q29 0 39 -31l252 -665q8 -20 16 0l238 665q10 31 39 31h121q25 0 35 -15.5t4 -31.5l-521 -1356q-10 -31 -39 -31h-110q-25 0 -35 15.5t-4 32.5l152 417q6 16 2 27zM195 1274v141q0 12 9 22.5t23 10.5h140q14 0 23 -10.5t9 -22.5 v-141q0 -33 -32 -33h-140q-33 0 -32 33zM545 1274v141q0 12 9 22.5t24 10.5h139q14 0 23.5 -10.5t9.5 -22.5v-141q0 -33 -33 -33h-139q-33 0 -33 33z" />
<glyph unicode="&#x100;" horiz-adv-x="999" d="M8 41l381 1362q6 31 39 31h143q33 0 39 -31l381 -1362q4 -14 -6 -27.5t-35 -13.5h-112q-29 0 -39 31l-90 313q-6 29 -39 29h-340q-29 0 -39 -29l-90 -313q-10 -31 -39 -31h-113q-25 0 -35 13.5t-6 27.5zM211 1599v78q0 16 12.5 28.5t28.5 12.5h496q16 0 28 -12t12 -29 v-78q0 -16 -12 -28t-28 -12h-496q-16 0 -28.5 12t-12.5 28zM356 586q-6 -23 17 -23h254q23 0 16 23l-133 571q-4 12 -8 12h-4q-6 0 -9 -12z" />
<glyph unicode="&#x101;" horiz-adv-x="997" d="M88 307q0 63 22.5 119.5t65.5 99.5t106.5 67.5t143.5 24.5h250q20 0 20 21v78q0 84 -52 124t-138 40q-27 0 -59.5 -6.5t-62.5 -21.5t-49.5 -40t-19.5 -61q0 -27 -16 -31t-31 -4h-92q-41 0 -41 41q0 72 34 125t87 89t118.5 54t131.5 18q174 0 274.5 -77.5t100.5 -249.5 v-676q0 -16 -12.5 -28.5t-28.5 -12.5h-70q-16 0 -29 14q-10 12 -17 27.5t-24 15.5q-14 0 -31.5 -12t-45 -26.5t-66.5 -26.5t-96 -12q-94 0 -165 26.5t-117 71.5t-68.5 104.5t-22.5 124.5zM209 1303v77q0 16 12 28.5t29 12.5h495q16 0 28.5 -12t12.5 -29v-77q0 -16 -12 -28.5 t-29 -12.5h-495q-16 0 -28.5 12t-12.5 29zM272 309q0 -76 46.5 -117.5t136.5 -41.5q141 0 199.5 55t58.5 160v65q0 20 -21 21h-266q-78 0 -116 -38t-38 -104z" />
<glyph unicode="&#x102;" horiz-adv-x="999" d="M8 41l381 1362q6 31 39 31h143q33 0 39 -31l381 -1362q4 -14 -6 -27.5t-35 -13.5h-112q-29 0 -39 31l-90 313q-6 29 -39 29h-340q-29 0 -39 -29l-90 -313q-10 -31 -39 -31h-113q-25 0 -35 13.5t-6 27.5zM217 1798q0 14 10.5 24.5t24.5 10.5h88q16 0 25.5 -10.5t9.5 -24.5 q0 -47 39 -81t86 -34t85 34t38 81q0 14 9 24.5t25 10.5h88q14 0 24.5 -10.5t10.5 -24.5q0 -55 -20.5 -102t-58 -83t-89 -56.5t-112.5 -20.5t-113.5 20.5t-90.5 56.5t-58.5 83t-20.5 102zM356 586q-6 -23 17 -23h254q23 0 16 23l-133 571q-4 12 -8 12h-4q-6 0 -9 -12z" />
<glyph unicode="&#x103;" horiz-adv-x="997" d="M88 307q0 63 22.5 119.5t65.5 99.5t106.5 67.5t143.5 24.5h250q20 0 20 21v78q0 84 -52 124t-138 40q-27 0 -59.5 -6.5t-62.5 -21.5t-49.5 -40t-19.5 -61q0 -27 -16 -31t-31 -4h-92q-41 0 -41 41q0 72 34 125t87 89t118.5 54t131.5 18q174 0 274.5 -77.5t100.5 -249.5 v-676q0 -16 -12.5 -28.5t-28.5 -12.5h-70q-16 0 -29 14q-10 12 -17 27.5t-24 15.5q-14 0 -31.5 -12t-45 -26.5t-66.5 -26.5t-96 -12q-94 0 -165 26.5t-117 71.5t-68.5 104.5t-22.5 124.5zM238 1460q0 14 10 24.5t24 10.5h88q16 0 25.5 -10t9.5 -25q0 -47 39 -80.5t86 -33.5 t85 33.5t38 80.5q0 14 9.5 24.5t25.5 10.5h88q14 0 24.5 -10t10.5 -25q0 -55 -20.5 -102t-58.5 -83t-89 -56.5t-113 -20.5q-61 0 -113.5 20.5t-90 56.5t-58 83t-20.5 102zM272 309q0 -76 46.5 -117.5t136.5 -41.5q141 0 199.5 55t58.5 160v65q0 20 -21 21h-266 q-78 0 -116 -38t-38 -104z" />
<glyph unicode="&#x104;" horiz-adv-x="999" d="M8 41l381 1362q6 31 39 31h143q33 0 39 -31l381 -1362q4 -14 -6 -27.5t-35 -13.5h-14q-68 -4 -110 -40t-42 -101q0 -135 156 -135q16 0 28.5 -12.5t12.5 -28.5v-72q0 -16 -12.5 -28.5t-28.5 -12.5q-143 0 -234.5 69.5t-91.5 208.5q0 92 47.5 157t114.5 101l-67 238 q-6 29 -39 29h-340q-29 0 -39 -29l-90 -313q-10 -31 -39 -31h-113q-25 0 -35 13.5t-6 27.5zM356 586q-6 -23 17 -23h254q23 0 16 23l-133 571q-4 12 -8 12h-4q-6 0 -9 -12z" />
<glyph unicode="&#x105;" horiz-adv-x="997" d="M88 307q0 63 22.5 119.5t65.5 99.5t106.5 67.5t143.5 24.5h250q20 0 20 21v78q0 84 -52 124t-138 40q-27 0 -59.5 -6.5t-62.5 -21.5t-49.5 -40t-19.5 -61q0 -27 -16 -31t-31 -4h-92q-41 0 -41 41q0 72 34 125t87 89t118.5 54t131.5 18q76 0 143.5 -19t118.5 -59 t82 -101.5t31 -147.5v-676q0 -16 -12.5 -28.5t-28.5 -12.5q-72 0 -119 -37t-47 -104q0 -135 155 -135q16 0 28.5 -12.5t12.5 -28.5v-72q0 -16 -12 -28.5t-29 -12.5q-143 0 -234 69.5t-91 208.5q0 39 19.5 86.5t47.5 71.5q-20 -10 -54 -18t-56 -8q-94 0 -165 26.5t-117 71.5 t-68.5 104.5t-22.5 124.5zM272 309q0 -76 46.5 -117.5t136.5 -41.5q141 0 199.5 55t58.5 160v65q0 20 -21 21h-266q-78 0 -116 -38t-38 -104z" />
<glyph unicode="&#x106;" horiz-adv-x="1112" d="M92 718q0 85 4 165t13 141q10 84 44.5 161t93 136t139.5 94t183 35q92 0 176 -28.5t146.5 -84t100.5 -134.5t38 -179v-29q0 -16 -12 -28.5t-29 -12.5h-112q-16 0 -28.5 12.5t-12.5 28.5v29q0 45 -18.5 87t-53.5 74t-84 51t-111 19q-100 0 -176 -59t-90 -172 q-8 -63 -12 -143t-4 -164t4 -164t12 -143q6 -45 25.5 -87t53.5 -74t81 -51.5t106 -19.5q51 0 99.5 15.5t85.5 44t59.5 72.5t22.5 100v28q0 16 12 28.5t29 12.5h112q16 0 28.5 -12t12.5 -29v-28q0 -86 -33.5 -163t-95 -135.5t-146.5 -93t-186 -34.5q-92 0 -171 29.5t-139 85 t-99 134t-51 177.5q-8 61 -12.5 142t-4.5 166zM489 1577l156 223q8 10 19.5 21.5t33.5 11.5h162q20 0 26.5 -16.5t-3.5 -26.5l-221 -229q-10 -10 -21.5 -17.5t-40.5 -7.5h-82q-20 0 -28.5 15.5t-0.5 25.5z" />
<glyph unicode="&#x107;" horiz-adv-x="978" d="M88 512q0 82 4 143q6 80 36 152t82 124t126 82.5t166 30.5q86 0 158.5 -26.5t125 -72.5t82 -110.5t29.5 -138.5q0 -16 -9 -28.5t-26 -12.5h-110q-14 0 -26.5 8.5t-12.5 24.5q0 72 -57.5 122t-153.5 50q-106 0 -162.5 -61.5t-63.5 -143.5q-4 -63 -4 -143t4 -143 q6 -82 62.5 -143.5t163.5 -61.5q94 0 151.5 49t57.5 121q0 20 12 27.5t27 7.5h106q16 0 28.5 -12.5t12.5 -28.5q0 -74 -29.5 -138.5t-82 -110.5t-125 -72.5t-158.5 -26.5q-92 0 -166 30.5t-126 82.5t-82 124t-36 152q-4 61 -4 143zM373 1213.5q-8 15.5 0 25.5l155 223 q8 10 19.5 21.5t34.5 11.5h161q20 0 26.5 -16.5t-3.5 -26.5l-221 -229q-10 -10 -21.5 -17.5t-40.5 -7.5h-82q-20 0 -28 15.5z" />
<glyph unicode="&#x108;" horiz-adv-x="1112" d="M92 718q0 85 4 165t13 141q10 84 44.5 161t93 136t139.5 94t183 35q92 0 176 -28.5t146.5 -84t100.5 -134.5t38 -179v-29q0 -16 -12 -28.5t-29 -12.5h-112q-16 0 -28.5 12.5t-12.5 28.5v29q0 45 -18.5 87t-53.5 74t-84 51t-111 19q-100 0 -176 -59t-90 -172 q-8 -63 -12 -143t-4 -164t4 -164t12 -143q6 -45 25.5 -87t53.5 -74t81 -51.5t106 -19.5q51 0 99.5 15.5t85.5 44t59.5 72.5t22.5 100v28q0 16 12 28.5t29 12.5h112q16 0 28.5 -12t12.5 -29v-28q0 -86 -33.5 -163t-95 -135.5t-146.5 -93t-186 -34.5q-92 0 -171 29.5t-139 85 t-99 134t-51 177.5q-8 61 -12.5 142t-4.5 166zM258.5 1552.5q-6.5 16.5 3.5 26.5l221 229q10 10 21.5 17.5t40.5 7.5h86q27 0 38 -7t21 -18l221 -229q10 -10 4 -26.5t-26 -16.5h-121q-23 0 -38 11.5t-25 21.5l-105 100q-14 14 -29 0l-102 -100q-10 -10 -25.5 -21.5 t-37.5 -11.5h-121q-20 0 -26.5 16.5z" />
<glyph unicode="&#x109;" horiz-adv-x="978" d="M88 512q0 82 4 143q6 80 36 152t82 124t126 82.5t166 30.5q86 0 158.5 -26.5t125 -72.5t82 -110.5t29.5 -138.5q0 -16 -9 -28.5t-26 -12.5h-110q-14 0 -26.5 8.5t-12.5 24.5q0 72 -57.5 122t-153.5 50q-106 0 -162.5 -61.5t-63.5 -143.5q-4 -63 -4 -143t4 -143 q6 -82 62.5 -143.5t163.5 -61.5q94 0 151.5 49t57.5 121q0 20 12 27.5t27 7.5h106q16 0 28.5 -12.5t12.5 -28.5q0 -74 -29.5 -138.5t-82 -110.5t-125 -72.5t-158.5 -26.5q-92 0 -166 30.5t-126 82.5t-82 124t-36 152q-4 61 -4 143zM182.5 1214.5q-6.5 16.5 3.5 26.5l222 229 q10 10 21 17.5t40 7.5h86q27 0 38 -7t21 -18l222 -229q10 -10 4 -26.5t-27 -16.5h-121q-23 0 -38 11.5t-25 21.5l-105 100q-14 14 -28 0l-103 -100q-10 -10 -25.5 -21.5t-37.5 -11.5h-121q-20 0 -26.5 16.5z" />
<glyph unicode="&#x10a;" horiz-adv-x="1112" d="M92 718q0 85 4 165t13 141q10 84 44.5 161t93 136t139.5 94t183 35q92 0 176 -28.5t146.5 -84t100.5 -134.5t38 -179v-29q0 -16 -12 -28.5t-29 -12.5h-112q-16 0 -28.5 12.5t-12.5 28.5v29q0 45 -18.5 87t-53.5 74t-84 51t-111 19q-100 0 -176 -59t-90 -172 q-8 -63 -12 -143t-4 -164t4 -164t12 -143q6 -45 25.5 -87t53.5 -74t81 -51.5t106 -19.5q51 0 99.5 15.5t85.5 44t59.5 72.5t22.5 100v28q0 16 12 28.5t29 12.5h112q16 0 28.5 -12t12.5 -29v-28q0 -86 -33.5 -163t-95 -135.5t-146.5 -93t-186 -34.5q-92 0 -171 29.5t-139 85 t-99 134t-51 177.5q-8 61 -12.5 142t-4.5 166zM463 1569v141q0 12 9 22.5t24 10.5h139q14 0 23.5 -10.5t9.5 -22.5v-141q0 -33 -33 -33h-139q-33 0 -33 33z" />
<glyph unicode="&#x10b;" horiz-adv-x="978" d="M88 512q0 82 4 143q6 80 36 152t82 124t126 82.5t166 30.5q86 0 158.5 -26.5t125 -72.5t82 -110.5t29.5 -138.5q0 -16 -9 -28.5t-26 -12.5h-110q-14 0 -26.5 8.5t-12.5 24.5q0 72 -57.5 122t-153.5 50q-106 0 -162.5 -61.5t-63.5 -143.5q-4 -63 -4 -143t4 -143 q6 -82 62.5 -143.5t163.5 -61.5q94 0 151.5 49t57.5 121q0 20 12 27.5t27 7.5h106q16 0 28.5 -12.5t12.5 -28.5q0 -74 -29.5 -138.5t-82 -110.5t-125 -72.5t-158.5 -26.5q-92 0 -166 30.5t-126 82.5t-82 124t-36 152q-4 61 -4 143zM387 1274v141q0 12 9.5 22.5t23.5 10.5 h139q14 0 23.5 -10.5t9.5 -22.5v-141q0 -33 -33 -33h-139q-33 0 -33 33z" />
<glyph unicode="&#x10c;" horiz-adv-x="1112" d="M92 718q0 85 4 165t13 141q10 84 44.5 161t93 136t139.5 94t183 35q92 0 176 -28.5t146.5 -84t100.5 -134.5t38 -179v-29q0 -16 -12 -28.5t-29 -12.5h-112q-16 0 -28.5 12.5t-12.5 28.5v29q0 45 -18.5 87t-53.5 74t-84 51t-111 19q-100 0 -176 -59t-90 -172 q-8 -63 -12 -143t-4 -164t4 -164t12 -143q6 -45 25.5 -87t53.5 -74t81 -51.5t106 -19.5q51 0 99.5 15.5t85.5 44t59.5 72.5t22.5 100v28q0 16 12 28.5t29 12.5h112q16 0 28.5 -12t12.5 -29v-28q0 -86 -33.5 -163t-95 -135.5t-146.5 -93t-186 -34.5q-92 0 -171 29.5t-139 85 t-99 134t-51 177.5q-8 61 -12.5 142t-4.5 166zM248 1816.5q6 16.5 26 16.5h121q23 0 38.5 -11.5t25.5 -21.5l102 -100q14 -14 29 0l104 100q10 10 25.5 21.5t38.5 11.5h121q20 0 26 -16.5t-4 -26.5l-221 -229q-10 -10 -21.5 -17.5t-37.5 -7.5h-86q-29 0 -40.5 7t-21.5 18 l-221 229q-10 10 -4 26.5z" />
<glyph unicode="&#x10d;" horiz-adv-x="978" d="M88 512q0 82 4 143q6 80 36 152t82 124t126 82.5t166 30.5q86 0 158.5 -26.5t125 -72.5t82 -110.5t29.5 -138.5q0 -16 -9 -28.5t-26 -12.5h-110q-14 0 -26.5 8.5t-12.5 24.5q0 72 -57.5 122t-153.5 50q-106 0 -162.5 -61.5t-63.5 -143.5q-4 -63 -4 -143t4 -143 q6 -82 62.5 -143.5t163.5 -61.5q94 0 151.5 49t57.5 121q0 20 12 27.5t27 7.5h106q16 0 28.5 -12.5t12.5 -28.5q0 -74 -29.5 -138.5t-82 -110.5t-125 -72.5t-158.5 -26.5q-92 0 -166 30.5t-126 82.5t-82 124t-36 152q-4 61 -4 143zM160 1478.5q6 16.5 26 16.5h121 q23 0 38 -11t26 -22l102 -100q14 -14 29 0l104 100q10 10 25.5 21.5t38.5 11.5h121q20 0 26 -16.5t-4 -26.5l-221 -229q-10 -10 -21.5 -17.5t-38.5 -7.5h-86q-29 0 -40 7t-21 18l-221 229q-10 10 -4 26.5z" />
<glyph unicode="&#x10e;" horiz-adv-x="1101" d="M133 41v1352q0 16 12.5 28.5t28.5 12.5h389q88 0 163 -34t130 -92.5t91 -137t46 -166.5q8 -61 11.5 -136t3.5 -152t-4.5 -150.5t-10.5 -135.5q-10 -88 -45 -167t-91 -137t-131 -92t-163 -34h-389q-16 0 -28.5 12.5t-12.5 28.5zM180 1816.5q6 16.5 27 16.5h121 q23 0 38 -11.5t25 -21.5l103 -100q14 -14 28 0l105 100q10 10 25.5 21.5t37.5 11.5h121q20 0 26.5 -16.5t-3.5 -26.5l-222 -229q-10 -10 -21 -17.5t-38 -7.5h-86q-29 0 -40 7t-21 18l-222 229q-10 10 -4 26.5zM328 215q0 -20 20 -20h215q47 0 88 19t72 52t50.5 75t25.5 89 q8 61 11 135t3 151t-3 151.5t-11 136.5q-6 45 -25.5 88t-50.5 75.5t-72 52t-88 19.5h-215q-20 0 -20 -20v-1004z" />
<glyph unicode="&#x10f;" horiz-adv-x="1173" d="M88 512q0 82 4 143q6 80 38 152t83 124t119.5 82.5t148.5 30.5q35 0 63.5 -8t51 -17t41 -17.5t35.5 -8.5q23 0 34 11.5t11 39.5v363q0 16 12 28.5t29 12.5h102q16 0 28.5 -12.5t12.5 -28.5v-1366q0 -16 -12 -28.5t-29 -12.5h-69q-14 0 -29 14q-10 10 -22.5 21.5 t-28.5 11.5q-23 0 -40.5 -10t-40 -23.5t-57.5 -23.5t-92 -10q-80 0 -148.5 30.5t-119.5 82.5t-83 124t-38 152q-4 61 -4 143zM262 512q0 -80 4 -143q6 -82 67.5 -143.5t168.5 -61.5q106 0 167.5 61.5t67.5 143.5q4 63 4 143t-4 143q-6 82 -67.5 143.5t-167.5 61.5 t-168 -61.5t-68 -143.5q-4 -63 -4 -143zM1044 1268v125q0 16 12.5 28.5t28.5 12.5h144q16 0 28.5 -12.5t12.5 -28.5v-125q0 -41 -11.5 -71t-29.5 -56l-66 -94q-6 -10 -18 -20.5t-35 -10.5h-18q-29 0 -39.5 22.5t2.5 44.5l63 117q6 10 -1 18.5t-17 8.5h-15q-16 0 -28.5 12 t-12.5 29z" />
<glyph unicode="&#x110;" horiz-adv-x="1101" d="M6 676v112q0 16 12.5 28.5t28.5 12.5h66q20 0 20 21v543q0 16 12.5 28.5t28.5 12.5h389q88 0 163 -34t130 -92.5t91 -137t46 -166.5q8 -61 11.5 -136t3.5 -152t-4.5 -150.5t-10.5 -135.5q-10 -88 -45 -167t-91 -137t-131 -92t-163 -34h-389q-16 0 -28.5 12.5t-12.5 28.5 v573q0 20 -20 21h-66q-16 0 -28.5 12t-12.5 29zM328 215q0 -20 20 -20h215q47 0 88 19t72 52t50.5 75t25.5 89q8 61 11 135t3 151t-3 151.5t-11 136.5q-6 45 -25.5 88t-50.5 75.5t-72 52t-88 19.5h-215q-20 0 -20 -20v-369q0 -20 20 -21h205q16 0 28.5 -12t12.5 -29v-112 q0 -16 -12.5 -28.5t-28.5 -12.5h-205q-20 0 -20 -21v-399z" />
<glyph unicode="&#x111;" horiz-adv-x="1034" d="M88 512q0 82 4 143q6 80 38 152t83 124t119.5 82.5t148.5 30.5q35 0 63.5 -8t51 -17t41 -17.5t35.5 -8.5q23 0 34 11.5t11 39.5v76q0 20 -21 21h-143q-16 0 -28.5 12t-12.5 29v82q0 16 12.5 28.5t28.5 12.5h143q20 0 21 20v82q0 16 12 28.5t29 12.5h102q16 0 28.5 -12.5 t12.5 -28.5v-82q0 -20 21 -20h71q16 0 28.5 -12.5t12.5 -28.5v-82q0 -16 -12 -28.5t-29 -12.5h-71q-20 0 -21 -21v-1079q0 -16 -12 -28.5t-29 -12.5h-69q-14 0 -29 14q-10 10 -22.5 21.5t-28.5 11.5q-23 0 -40.5 -10t-40 -23.5t-57 -23.5t-92.5 -10q-80 0 -148.5 30.5 t-119.5 82.5t-83 124t-38 152q-4 61 -4 143zM262 512q0 -80 4 -143q6 -82 67.5 -143.5t168.5 -61.5q106 0 167.5 61.5t67.5 143.5q4 63 4 143t-4 143q-6 82 -67.5 143.5t-167.5 61.5t-168 -61.5t-68 -143.5q-4 -63 -4 -143z" />
<glyph unicode="&#x112;" horiz-adv-x="962" d="M133 41v1352q0 16 12.5 28.5t28.5 12.5h662q16 0 28.5 -12.5t12.5 -28.5v-113q0 -16 -12.5 -28.5t-28.5 -12.5h-488q-20 0 -20 -20v-369q0 -20 20 -21h465q16 0 28.5 -12t12.5 -29v-112q0 -16 -12.5 -28.5t-28.5 -12.5h-465q-20 0 -20 -21v-399q0 -20 20 -20h492 q16 0 28.5 -12.5t12.5 -28.5v-113q0 -16 -12.5 -28.5t-28.5 -12.5h-666q-16 0 -28.5 12.5t-12.5 28.5zM213 1597v78q0 16 12.5 28.5t28.5 12.5h496q16 0 28.5 -12t12.5 -29v-78q0 -16 -12.5 -28.5t-28.5 -12.5h-496q-16 0 -28.5 12.5t-12.5 28.5z" />
<glyph unicode="&#x113;" horiz-adv-x="1007" d="M88 512q0 82 4 143q6 80 38 152t86 124t129 82.5t167 30.5q186 0 298 -108.5t112 -300.5v-141q0 -16 -12.5 -28.5t-28.5 -12.5h-586q-20 0 -21 -21q0 -141 66 -204.5t172 -63.5q80 0 136.5 36t74.5 93q6 20 19.5 27.5t27.5 7.5h104q16 0 27.5 -9.5t7.5 -31.5 q-10 -68 -42.5 -124.5t-85 -97t-121 -63t-148.5 -22.5q-92 0 -167 30.5t-129 82.5t-86 124t-38 152q-4 61 -4 143zM215 1303v77q0 16 12.5 28.5t28.5 12.5h496q16 0 28.5 -12t12.5 -29v-77q0 -16 -12.5 -28.5t-28.5 -12.5h-496q-16 0 -28.5 12t-12.5 29zM279 637 q0 -20 20 -21h426q20 0 20 21q0 106 -67.5 164.5t-163.5 58.5q-106 0 -170.5 -64.5t-64.5 -158.5z" />
<glyph unicode="&#x114;" horiz-adv-x="962" d="M133 41v1352q0 16 12.5 28.5t28.5 12.5h662q16 0 28.5 -12.5t12.5 -28.5v-113q0 -16 -12.5 -28.5t-28.5 -12.5h-488q-20 0 -20 -20v-369q0 -20 20 -21h465q16 0 28.5 -12t12.5 -29v-112q0 -16 -12.5 -28.5t-28.5 -12.5h-465q-20 0 -20 -21v-399q0 -20 20 -20h492 q16 0 28.5 -12.5t12.5 -28.5v-113q0 -16 -12.5 -28.5t-28.5 -12.5h-666q-16 0 -28.5 12.5t-12.5 28.5zM223 1800q0 14 10.5 24.5t24.5 10.5h88q16 0 25.5 -10t9.5 -25q0 -47 39 -80.5t86 -33.5t85 33.5t38 80.5q0 14 9 24.5t26 10.5h88q14 0 24 -10t10 -25q0 -55 -20.5 -102 t-58 -83t-89 -56.5t-112.5 -20.5t-113.5 20.5t-90.5 56.5t-58.5 83t-20.5 102z" />
<glyph unicode="&#x115;" horiz-adv-x="1007" d="M88 512q0 82 4 143q6 80 38 152t86 124t129 82.5t167 30.5q186 0 298 -108.5t112 -300.5v-141q0 -16 -12.5 -28.5t-28.5 -12.5h-586q-20 0 -21 -21q0 -141 66 -204.5t172 -63.5q80 0 136.5 36t74.5 93q6 20 19.5 27.5t27.5 7.5h104q16 0 27.5 -9.5t7.5 -31.5 q-10 -68 -42.5 -124.5t-85 -97t-121 -63t-148.5 -22.5q-92 0 -167 30.5t-129 82.5t-86 124t-38 152q-4 61 -4 143zM221 1460q0 14 10.5 24.5t24.5 10.5h88q16 0 25.5 -10t9.5 -25q0 -47 39 -80.5t86 -33.5t85 33.5t38 80.5q0 14 9 24.5t26 10.5h88q14 0 24 -10t10 -25 q0 -55 -20.5 -102t-58 -83t-89 -56.5t-112.5 -20.5t-113.5 20.5t-90.5 56.5t-58.5 83t-20.5 102zM279 637q0 -20 20 -21h426q20 0 20 21q0 106 -67.5 164.5t-163.5 58.5q-106 0 -170.5 -64.5t-64.5 -158.5z" />
<glyph unicode="&#x116;" horiz-adv-x="962" d="M133 41v1352q0 16 12.5 28.5t28.5 12.5h662q16 0 28.5 -12.5t12.5 -28.5v-113q0 -16 -12.5 -28.5t-28.5 -12.5h-488q-20 0 -20 -20v-369q0 -20 20 -21h465q16 0 28.5 -12t12.5 -29v-112q0 -16 -12.5 -28.5t-28.5 -12.5h-465q-20 0 -20 -21v-399q0 -20 20 -20h492 q16 0 28.5 -12.5t12.5 -28.5v-113q0 -16 -12.5 -28.5t-28.5 -12.5h-666q-16 0 -28.5 12.5t-12.5 28.5zM401 1569v141q0 12 9.5 22.5t23.5 10.5h139q14 0 23.5 -10.5t9.5 -22.5v-141q0 -33 -33 -33h-139q-33 0 -33 33z" />
<glyph unicode="&#x117;" horiz-adv-x="1007" d="M88 512q0 82 4 143q6 80 38 152t86 124t129 82.5t167 30.5q186 0 298 -108.5t112 -300.5v-141q0 -16 -12.5 -28.5t-28.5 -12.5h-586q-20 0 -21 -21q0 -141 66 -204.5t172 -63.5q80 0 136.5 36t74.5 93q6 20 19.5 27.5t27.5 7.5h104q16 0 27.5 -9.5t7.5 -31.5 q-10 -68 -42.5 -124.5t-85 -97t-121 -63t-148.5 -22.5q-92 0 -167 30.5t-129 82.5t-86 124t-38 152q-4 61 -4 143zM279 637q0 -20 20 -21h426q20 0 20 21q0 106 -67.5 164.5t-163.5 58.5q-106 0 -170.5 -64.5t-64.5 -158.5zM422 1274v141q0 12 9 22.5t24 10.5h139 q14 0 23.5 -10.5t9.5 -22.5v-141q0 -33 -33 -33h-139q-33 0 -33 33z" />
<glyph unicode="&#x118;" horiz-adv-x="962" d="M133 41v1352q0 16 12.5 28.5t28.5 12.5h662q16 0 28.5 -12.5t12.5 -28.5v-113q0 -16 -12.5 -28.5t-28.5 -12.5h-488q-20 0 -20 -20v-369q0 -20 20 -21h465q16 0 28.5 -12t12.5 -29v-112q0 -16 -12.5 -28.5t-28.5 -12.5h-465q-20 0 -20 -21v-399q0 -20 20 -20h492 q16 0 28.5 -12.5t12.5 -28.5v-113q0 -16 -12.5 -28.5t-28.5 -12.5h-2q-70 0 -117 -36t-47 -105q0 -135 155 -135q16 0 28.5 -12.5t12.5 -28.5v-72q0 -16 -12 -28.5t-29 -12.5q-72 0 -131 19.5t-102 55.5t-67.5 87t-24.5 116q0 45 14 85t39 67h-383q-16 0 -28.5 12.5 t-12.5 28.5z" />
<glyph unicode="&#x119;" horiz-adv-x="1007" d="M88 512q0 82 4 143q6 80 38 152t86 124t129 82.5t167 30.5q186 0 298 -108.5t112 -300.5v-141q0 -16 -12.5 -28.5t-28.5 -12.5h-586q-20 0 -21 -21q0 -141 66 -204.5t172 -63.5q80 0 136.5 36t74.5 93q6 20 19.5 27.5t27.5 7.5h104q16 0 27.5 -9.5t7.5 -31.5 q-16 -107 -84 -181q-27 -31 -54.5 -60.5t-49 -60t-35.5 -62.5t-14 -64q0 -135 166 -135q16 0 28.5 -12.5t12.5 -28.5v-72q0 -16 -12.5 -28.5t-28.5 -12.5q-158 0 -247 69.5t-89 208.5q0 29 11 65t30 69q-10 -2 -31 -2q-92 0 -167 30.5t-129 82.5t-86 124t-38 152 q-4 61 -4 143zM279 637q0 -20 20 -21h426q20 0 20 21q0 106 -67.5 164.5t-163.5 58.5q-106 0 -170.5 -64.5t-64.5 -158.5z" />
<glyph unicode="&#x11a;" horiz-adv-x="962" d="M133 41v1352q0 16 12.5 28.5t28.5 12.5h662q16 0 28.5 -12.5t12.5 -28.5v-113q0 -16 -12.5 -28.5t-28.5 -12.5h-488q-20 0 -20 -20v-369q0 -20 20 -21h465q16 0 28.5 -12t12.5 -29v-112q0 -16 -12.5 -28.5t-28.5 -12.5h-465q-20 0 -20 -21v-399q0 -20 20 -20h492 q16 0 28.5 -12.5t12.5 -28.5v-113q0 -16 -12.5 -28.5t-28.5 -12.5h-666q-16 0 -28.5 12.5t-12.5 28.5zM168 1816.5q6 16.5 27 16.5h120q23 0 38.5 -11.5t25.5 -21.5l102 -100q14 -14 29 0l104 100q10 10 25.5 21.5t38.5 11.5h121q20 0 26 -16.5t-4 -26.5l-221 -229 q-10 -10 -21.5 -17.5t-37.5 -7.5h-86q-29 0 -40.5 7t-21.5 18l-221 229q-10 10 -4 26.5z" />
<glyph unicode="&#x11b;" horiz-adv-x="1007" d="M88 512q0 82 4 143q6 80 38 152t86 124t129 82.5t167 30.5q186 0 298 -108.5t112 -300.5v-141q0 -16 -12.5 -28.5t-28.5 -12.5h-586q-20 0 -21 -21q0 -141 66 -204.5t172 -63.5q80 0 136.5 36t74.5 93q6 20 19.5 27.5t27.5 7.5h104q16 0 27.5 -9.5t7.5 -31.5 q-10 -68 -42.5 -124.5t-85 -97t-121 -63t-148.5 -22.5q-92 0 -167 30.5t-129 82.5t-86 124t-38 152q-4 61 -4 143zM184 1478.5q6 16.5 27 16.5h121q23 0 38 -11t25 -22l103 -100q14 -14 28 0l105 100q10 10 25.5 21.5t37.5 11.5h121q20 0 26.5 -16.5t-3.5 -26.5l-222 -229 q-10 -10 -21 -17.5t-38 -7.5h-86q-29 0 -40 7t-21 18l-222 229q-10 10 -4 26.5zM279 637q0 -20 20 -21h426q20 0 20 21q0 106 -67.5 164.5t-163.5 58.5q-106 0 -170.5 -64.5t-64.5 -158.5z" />
<glyph unicode="&#x11c;" horiz-adv-x="1118" d="M92 718q0 85 4 165t13 141q10 84 44.5 161t93 136t139.5 94t183 35q92 0 176 -28.5t146.5 -84t100.5 -134.5t38 -179v-29q0 -16 -12 -28.5t-29 -12.5h-112q-16 0 -28.5 12.5t-12.5 28.5v29q0 45 -18.5 87t-53.5 74t-84 51t-111 19q-100 0 -176 -59t-90 -172 q-8 -63 -12 -143t-4 -164t4 -164t12 -143q6 -45 25.5 -87t53.5 -74t81 -51.5t106 -19.5q51 0 99.5 13.5t85.5 42t59.5 72.5t22.5 104v172q0 20 -21 20h-186q-16 0 -28.5 12.5t-12.5 28.5v113q0 16 12 28.5t29 12.5h360q16 0 28.5 -12.5t12.5 -28.5v-346q0 -90 -33.5 -167 t-95 -135.5t-146.5 -91t-186 -32.5q-92 0 -171 29.5t-139 85t-99 134t-51 177.5q-8 61 -12.5 142t-4.5 166zM239.5 1552.5q-6.5 16.5 4.5 26.5l221 229q10 10 21.5 17.5t39.5 7.5h86q27 0 38.5 -7t21.5 -18l221 -229q10 -10 4 -26.5t-27 -16.5h-120q-23 0 -38.5 11.5 t-25.5 21.5l-104 100q-14 14 -29 0l-102 -100q-10 -10 -25.5 -21.5t-38.5 -11.5h-121q-20 0 -26.5 16.5z" />
<glyph unicode="&#x11d;" horiz-adv-x="1028" d="M88 512q0 82 4 143q6 80 38 152t83 124t119.5 82.5t148.5 30.5q57 0 92 -10t57.5 -23.5t40 -23.5t40.5 -10q16 0 28.5 11t22.5 22q14 14 29 14h69q16 0 28.5 -12.5t12.5 -28.5v-1044q0 -74 -27.5 -141.5t-78 -118t-119 -80t-150.5 -29.5q-68 0 -131 17.5t-113.5 53 t-84 88t-43.5 121.5q-6 47 36 48h99q33 0 40 -12.5t13 -28.5q20 -51 63.5 -77t120.5 -26q78 0 134.5 50.5t56.5 134.5v45q0 29 -11.5 39t-33.5 8q-16 0 -35 -8.5t-41.5 -17.5t-51 -17t-63.5 -8q-80 0 -148.5 30.5t-119.5 82.5t-83 124t-38 152q-4 61 -4 143zM207 1214.5 q-6 16.5 4 26.5l221 229q10 10 21.5 17.5t40.5 7.5h86q27 0 38 -7t21 -18l221 -229q10 -10 4 -26.5t-26 -16.5h-121q-23 0 -38 11.5t-26 21.5l-104 100q-14 14 -29 0l-102 -100q-10 -10 -25.5 -21.5t-38.5 -11.5h-121q-20 0 -26 16.5zM262 512q0 -80 4 -143 q6 -82 67.5 -143.5t168.5 -61.5q106 0 167.5 61.5t67.5 143.5q4 63 4 143t-4 143q-6 82 -67.5 143.5t-167.5 61.5t-168 -61.5t-68 -143.5q-4 -63 -4 -143z" />
<glyph unicode="&#x11e;" horiz-adv-x="1118" d="M92 718q0 85 4 165t13 141q10 84 44.5 161t93 136t139.5 94t183 35q92 0 176 -28.5t146.5 -84t100.5 -134.5t38 -179v-29q0 -16 -12 -28.5t-29 -12.5h-112q-16 0 -28.5 12.5t-12.5 28.5v29q0 45 -18.5 87t-53.5 74t-84 51t-111 19q-100 0 -176 -59t-90 -172 q-8 -63 -12 -143t-4 -164t4 -164t12 -143q6 -45 25.5 -87t53.5 -74t81 -51.5t106 -19.5q51 0 99.5 13.5t85.5 42t59.5 72.5t22.5 104v172q0 20 -21 20h-186q-16 0 -28.5 12.5t-12.5 28.5v113q0 16 12 28.5t29 12.5h360q16 0 28.5 -12.5t12.5 -28.5v-346q0 -90 -33.5 -167 t-95 -135.5t-146.5 -91t-186 -32.5q-92 0 -171 29.5t-139 85t-99 134t-51 177.5q-8 61 -12.5 142t-4.5 166zM276 1798q0 14 10.5 24.5t24.5 10.5h88q16 0 25.5 -10.5t9.5 -24.5q0 -47 39 -81t86 -34t85 34t38 81q0 14 9 24.5t26 10.5h88q14 0 24.5 -10.5t10.5 -24.5 q0 -55 -20.5 -102t-58.5 -83t-89 -56.5t-113 -20.5q-61 0 -113.5 20.5t-90.5 56.5t-58.5 83t-20.5 102z" />
<glyph unicode="&#x11f;" horiz-adv-x="1028" d="M88 512q0 82 4 143q6 80 38 152t83 124t119.5 82.5t148.5 30.5q57 0 92 -10t57.5 -23.5t40 -23.5t40.5 -10q16 0 28.5 11t22.5 22q14 14 29 14h69q16 0 28.5 -12.5t12.5 -28.5v-1044q0 -74 -27.5 -141.5t-78 -118t-119 -80t-150.5 -29.5q-68 0 -131 17.5t-113.5 53 t-84 88t-43.5 121.5q-6 47 36 48h99q33 0 40 -12.5t13 -28.5q20 -51 63.5 -77t120.5 -26q78 0 134.5 50.5t56.5 134.5v45q0 29 -11.5 39t-33.5 8q-16 0 -35 -8.5t-41.5 -17.5t-51 -17t-63.5 -8q-80 0 -148.5 30.5t-119.5 82.5t-83 124t-38 152q-4 61 -4 143zM231 1460 q0 14 10.5 24.5t24.5 10.5h88q16 0 25.5 -10t9.5 -25q0 -47 39 -80.5t86 -33.5t85 33.5t38 80.5q0 14 9 24.5t26 10.5h88q14 0 24.5 -10t10.5 -25q0 -55 -20.5 -102t-58.5 -83t-89.5 -56.5t-112.5 -20.5t-113.5 20.5t-90.5 56.5t-58.5 83t-20.5 102zM262 512q0 -80 4 -143 q6 -82 67.5 -143.5t168.5 -61.5q106 0 167.5 61.5t67.5 143.5q4 63 4 143t-4 143q-6 82 -67.5 143.5t-167.5 61.5t-168 -61.5t-68 -143.5q-4 -63 -4 -143z" />
<glyph unicode="&#x120;" horiz-adv-x="1118" d="M92 718q0 85 4 165t13 141q10 84 44.5 161t93 136t139.5 94t183 35q92 0 176 -28.5t146.5 -84t100.5 -134.5t38 -179v-29q0 -16 -12 -28.5t-29 -12.5h-112q-16 0 -28.5 12.5t-12.5 28.5v29q0 45 -18.5 87t-53.5 74t-84 51t-111 19q-100 0 -176 -59t-90 -172 q-8 -63 -12 -143t-4 -164t4 -164t12 -143q6 -45 25.5 -87t53.5 -74t81 -51.5t106 -19.5q51 0 99.5 13.5t85.5 42t59.5 72.5t22.5 104v172q0 20 -21 20h-186q-16 0 -28.5 12.5t-12.5 28.5v113q0 16 12 28.5t29 12.5h360q16 0 28.5 -12.5t12.5 -28.5v-346q0 -90 -33.5 -167 t-95 -135.5t-146.5 -91t-186 -32.5q-92 0 -171 29.5t-139 85t-99 134t-51 177.5q-8 61 -12.5 142t-4.5 166zM471 1569v141q0 12 9 22.5t24 10.5h139q14 0 23.5 -10.5t9.5 -22.5v-141q0 -33 -33 -33h-139q-33 0 -33 33z" />
<glyph unicode="&#x121;" horiz-adv-x="1028" d="M88 512q0 82 4 143q6 80 38 152t83 124t119.5 82.5t148.5 30.5q57 0 92 -10t57.5 -23.5t40 -23.5t40.5 -10q16 0 28.5 11t22.5 22q14 14 29 14h69q16 0 28.5 -12.5t12.5 -28.5v-1044q0 -74 -27.5 -141.5t-78 -118t-119 -80t-150.5 -29.5q-68 0 -131 17.5t-113.5 53 t-84 88t-43.5 121.5q-6 47 36 48h99q33 0 40 -12.5t13 -28.5q20 -51 63.5 -77t120.5 -26q78 0 134.5 50.5t56.5 134.5v45q0 29 -11.5 39t-33.5 8q-16 0 -35 -8.5t-41.5 -17.5t-51 -17t-63.5 -8q-80 0 -148.5 30.5t-119.5 82.5t-83 124t-38 152q-4 61 -4 143zM262 512 q0 -80 4 -143q6 -82 67.5 -143.5t168.5 -61.5q106 0 167.5 61.5t67.5 143.5q4 63 4 143t-4 143q-6 82 -67.5 143.5t-167.5 61.5t-168 -61.5t-68 -143.5q-4 -63 -4 -143zM412 1274v141q0 12 9 22.5t23 10.5h140q14 0 23 -10.5t9 -22.5v-141q0 -33 -32 -33h-140q-33 0 -32 33z " />
<glyph unicode="&#x122;" horiz-adv-x="1118" d="M92 718q0 85 4 165t13 141q10 84 44.5 161t93 136t139.5 94t183 35q92 0 176 -28.5t146.5 -84t100.5 -134.5t38 -179v-29q0 -16 -12 -28.5t-29 -12.5h-112q-16 0 -28.5 12.5t-12.5 28.5v29q0 45 -18.5 87t-53.5 74t-84 51t-111 19q-100 0 -176 -59t-90 -172 q-8 -63 -12 -143t-4 -164t4 -164t12 -143q6 -45 25.5 -87t53.5 -74t81 -51.5t106 -19.5q51 0 99.5 13.5t85.5 42t59.5 72.5t22.5 104v172q0 20 -21 20h-186q-16 0 -28.5 12.5t-12.5 28.5v113q0 16 12 28.5t29 12.5h360q16 0 28.5 -12.5t12.5 -28.5v-346q0 -90 -33.5 -167 t-95 -135.5t-146.5 -91t-186 -32.5q-92 0 -171 29.5t-139 85t-99 134t-51 177.5q-8 61 -12.5 142t-4.5 166zM475 -133q0 16 12.5 28.5t28.5 12.5h143q16 0 28.5 -12.5t12.5 -28.5v-125q0 -41 -11 -70.5t-30 -56.5l-65 -94q-6 -10 -18.5 -20.5t-34.5 -10.5h-19 q-29 0 -39 22.5t2 45.5l64 116q6 10 -1 18.5t-18 8.5h-14q-16 0 -28.5 12.5t-12.5 28.5v125z" />
<glyph unicode="&#x123;" horiz-adv-x="1028" d="M88 512q0 82 4 143q6 80 38 152t83 124t119.5 82.5t148.5 30.5q57 0 92 -10t57.5 -23.5t40 -23.5t40.5 -10q16 0 28.5 11t22.5 22q14 14 29 14h69q16 0 28.5 -12.5t12.5 -28.5v-1044q0 -74 -27.5 -141.5t-78 -118t-119 -80t-150.5 -29.5q-68 0 -131 17.5t-113.5 53 t-84 88t-43.5 121.5q-6 47 36 48h99q33 0 40 -12.5t13 -28.5q20 -51 63.5 -77t120.5 -26q78 0 134.5 50.5t56.5 134.5v45q0 29 -11.5 39t-33.5 8q-16 0 -35 -8.5t-41.5 -17.5t-51 -17t-63.5 -8q-80 0 -148.5 30.5t-119.5 82.5t-83 124t-38 152q-4 61 -4 143zM262 512 q0 -80 4 -143q6 -82 67.5 -143.5t168.5 -61.5q106 0 167.5 61.5t67.5 143.5q4 63 4 143t-4 143q-6 82 -67.5 143.5t-167.5 61.5t-168 -61.5t-68 -143.5q-4 -63 -4 -143zM389 1221v125q0 41 11.5 70.5t29.5 56.5l66 94q6 10 18 20t35 10h18q29 0 39 -22.5t-2 -44.5l-63 -117 q-6 -10 1 -18.5t17 -8.5h14q16 0 28.5 -12t12.5 -28v-125q0 -16 -12 -28.5t-29 -12.5h-143q-16 0 -28.5 12t-12.5 29z" />
<glyph unicode="&#x124;" horiz-adv-x="1146" d="M133 41v1352q0 16 12.5 28.5t28.5 12.5h113q16 0 28.5 -12.5t12.5 -28.5v-543q0 -20 20 -21h451q20 0 20 21v543q0 16 12.5 28.5t28.5 12.5h113q16 0 28.5 -12.5t12.5 -28.5v-1352q0 -16 -12.5 -28.5t-28.5 -12.5h-113q-16 0 -28.5 12.5t-12.5 28.5v573q0 20 -20 21h-451 q-20 0 -20 -21v-573q0 -16 -12.5 -28.5t-28.5 -12.5h-113q-16 0 -28.5 12.5t-12.5 28.5zM244 1552.5q-6 16.5 4 26.5l221 229q10 10 21.5 17.5t39.5 7.5h86q27 0 38.5 -7t21.5 -18l221 -229q10 -10 4 -26.5t-27 -16.5h-120q-23 0 -38.5 11.5t-25.5 21.5l-104 100 q-14 14 -29 0l-102 -100q-10 -10 -25.5 -21.5t-38.5 -11.5h-121q-20 0 -26 16.5z" />
<glyph unicode="&#x125;" horiz-adv-x="1052" d="M133 41v1366q0 16 12.5 28.5t28.5 12.5h102q16 0 28.5 -12.5t12.5 -28.5v-371q0 -14 11.5 -28.5t33.5 -14.5q14 0 33 8.5t41.5 17.5t51 17t63.5 8q80 0 151.5 -30.5t124 -82.5t83 -124t30.5 -152v-614q0 -16 -12.5 -28.5t-28.5 -12.5h-102q-16 0 -28.5 12.5t-12.5 28.5 v614q0 39 -16.5 77t-46 65.5t-69.5 45t-87 17.5t-88 -15.5t-70 -42t-45.5 -62t-16.5 -74.5v-625q0 -16 -12 -28.5t-29 -12.5h-102q-16 0 -28.5 12.5t-12.5 28.5zM156 1552.5q-6 16.5 4 26.5l221 229q10 10 21.5 17.5t39.5 7.5h86q27 0 38.5 -7t21.5 -18l221 -229 q10 -10 4 -26.5t-27 -16.5h-120q-23 0 -38.5 11.5t-25.5 21.5l-104 100q-14 14 -29 0l-102 -100q-10 -10 -25.5 -21.5t-38.5 -11.5h-121q-20 0 -26 16.5z" />
<glyph unicode="&#x126;" horiz-adv-x="1146" d="M133 41v1352q0 16 12.5 28.5t28.5 12.5h113q16 0 28.5 -12.5t12.5 -28.5v-164q0 -20 20 -21h451q20 0 20 21v164q0 16 12.5 28.5t28.5 12.5h113q16 0 28.5 -12.5t12.5 -28.5v-1352q0 -16 -12.5 -28.5t-28.5 -12.5h-113q-16 0 -28.5 12.5t-12.5 28.5v573q0 20 -20 21h-451 q-20 0 -20 -21v-573q0 -16 -12.5 -28.5t-28.5 -12.5h-113q-16 0 -28.5 12.5t-12.5 28.5zM328 850q0 -20 20 -21h451q20 0 20 21v164q0 20 -20 20h-451q-20 0 -20 -20v-164z" />
<glyph unicode="&#x127;" horiz-adv-x="1052" d="M0 1182v82q0 16 12.5 28.5t28.5 12.5h72q20 0 20 20v82q0 16 12.5 28.5t28.5 12.5h102q16 0 28.5 -12.5t12.5 -28.5v-82q0 -20 21 -20h143q16 0 28.5 -12.5t12.5 -28.5v-82q0 -16 -12 -28.5t-29 -12.5h-143q-20 0 -21 -21v-84q0 -14 11.5 -28.5t33.5 -14.5q14 0 33 8.5 t41.5 17.5t51 17t63.5 8q80 0 151.5 -30.5t124 -82.5t83 -124t30.5 -152v-614q0 -16 -12.5 -28.5t-28.5 -12.5h-102q-16 0 -28.5 12.5t-12.5 28.5v614q0 39 -16.5 77t-46 65.5t-69.5 45t-87 17.5t-88 -15.5t-70 -42t-45.5 -62t-16.5 -74.5v-625q0 -16 -12 -28.5t-29 -12.5 h-102q-16 0 -28.5 12.5t-12.5 28.5v1079q0 20 -20 21h-72q-16 0 -28.5 12t-12.5 29z" />
<glyph unicode="&#x128;" horiz-adv-x="460" d="M-55 1585v82q0 41 42 73t103 32q49 0 81 -8.5t59.5 -17.5t60.5 -17.5t86 -8.5q39 0 60.5 13.5t33.5 29.5t31.5 8t19.5 -36v-82q0 -41 -42 -73t-103 -32q-49 0 -81 8.5t-59.5 17.5t-61.5 17t-85 8q-35 0 -56.5 -11t-37.5 -32q-12 -14 -31.5 -7t-19.5 36zM133 41v1352 q0 16 12.5 28.5t28.5 12.5h113q16 0 28.5 -12.5t12.5 -28.5v-1352q0 -16 -12.5 -28.5t-28.5 -12.5h-113q-16 0 -28.5 12.5t-12.5 28.5z" />
<glyph unicode="&#x129;" horiz-adv-x="471" d="M-53 1266v82q0 41 42 72.5t103 31.5q49 0 81 -8t59.5 -17.5t60.5 -17.5t86 -8q39 0 60.5 13t33.5 30q12 16 31.5 8t19.5 -37v-82q0 -41 -42 -72.5t-103 -31.5q-49 0 -81 8t-59.5 17.5t-61.5 17.5t-85 8q-35 0 -56.5 -11.5t-37.5 -31.5q-12 -14 -31.5 -7t-19.5 36zM143 41 v942q0 16 12.5 28.5t28.5 12.5h107q16 0 28.5 -12.5t12.5 -28.5v-942q0 -16 -12.5 -28.5t-28.5 -12.5h-107q-16 0 -28.5 12.5t-12.5 28.5z" />
<glyph unicode="&#x12a;" horiz-adv-x="460" d="M-57 1599v78q0 16 12 28.5t29 12.5h495q16 0 28.5 -12t12.5 -29v-78q0 -16 -12 -28t-29 -12h-495q-16 0 -28.5 12t-12.5 28zM133 41v1352q0 16 12.5 28.5t28.5 12.5h113q16 0 28.5 -12.5t12.5 -28.5v-1352q0 -16 -12.5 -28.5t-28.5 -12.5h-113q-16 0 -28.5 12.5 t-12.5 28.5z" />
<glyph unicode="&#x12b;" horiz-adv-x="471" d="M-53 1303v77q0 16 12 28.5t29 12.5h495q16 0 28.5 -12t12.5 -29v-77q0 -16 -12 -28.5t-29 -12.5h-495q-16 0 -28.5 12t-12.5 29zM143 41v942q0 16 12.5 28.5t28.5 12.5h107q16 0 28.5 -12.5t12.5 -28.5v-942q0 -16 -12.5 -28.5t-28.5 -12.5h-107q-16 0 -28.5 12.5 t-12.5 28.5z" />
<glyph unicode="&#x12c;" horiz-adv-x="460" d="M-51 1798q0 14 10 24.5t25 10.5h88q16 0 25 -10.5t9 -24.5q0 -47 39 -81t86 -34t85 34t38 81q0 14 9.5 24.5t25.5 10.5h88q14 0 24.5 -10.5t10.5 -24.5q0 -55 -20.5 -102t-58.5 -83t-89 -56.5t-113 -20.5q-61 0 -113 20.5t-90 56.5t-58.5 83t-20.5 102zM133 41v1352 q0 16 12.5 28.5t28.5 12.5h113q16 0 28.5 -12.5t12.5 -28.5v-1352q0 -16 -12.5 -28.5t-28.5 -12.5h-113q-16 0 -28.5 12.5t-12.5 28.5z" />
<glyph unicode="&#x12d;" horiz-adv-x="471" d="M-45 1460q0 14 10 24.5t25 10.5h88q16 0 25.5 -10t9.5 -25q0 -47 38.5 -80.5t86.5 -33.5q47 0 84.5 33.5t37.5 80.5q0 14 9.5 24.5t25.5 10.5h88q14 0 24.5 -10t10.5 -25q0 -55 -20.5 -102t-58.5 -83t-89 -56.5t-112 -20.5t-113.5 20.5t-90.5 56.5t-58.5 83t-20.5 102z M143 41v942q0 16 12.5 28.5t28.5 12.5h107q16 0 28.5 -12.5t12.5 -28.5v-942q0 -16 -12.5 -28.5t-28.5 -12.5h-107q-16 0 -28.5 12.5t-12.5 28.5z" />
<glyph unicode="&#x12e;" horiz-adv-x="460" d="M-49 -152q0 98 53 166t129 103v1276q0 16 12.5 28.5t28.5 12.5h113q16 0 28.5 -12.5t12.5 -28.5v-1352q0 -16 -12.5 -28.5t-28.5 -12.5q-72 0 -119 -37t-47 -104q0 -135 166 -135q16 0 28.5 -12.5t12.5 -28.5v-72q0 -16 -12.5 -28.5t-28.5 -12.5q-147 0 -241.5 69.5 t-94.5 208.5z" />
<glyph unicode="&#x12f;" horiz-adv-x="471" d="M-45 -152q0 100 55.5 169t132.5 104v862q0 16 12.5 28.5t28.5 12.5h107q16 0 28.5 -12.5t12.5 -28.5v-942q0 -16 -12.5 -28.5t-28.5 -12.5h-15q-68 -4 -109.5 -40t-41.5 -101q0 -135 166 -135q16 0 28.5 -12.5t12.5 -28.5v-72q0 -16 -12.5 -28.5t-28.5 -12.5 q-147 0 -241.5 69.5t-94.5 208.5zM133 1274v141q0 12 9.5 22.5t23.5 10.5h139q14 0 23.5 -10.5t9.5 -22.5v-141q0 -33 -33 -33h-139q-33 0 -33 33z" />
<glyph unicode="&#x130;" horiz-adv-x="460" d="M129 1569v141q0 12 9 22.5t24 10.5h139q14 0 23.5 -10.5t9.5 -22.5v-141q0 -33 -33 -33h-139q-33 0 -33 33zM133 41v1352q0 16 12.5 28.5t28.5 12.5h113q16 0 28.5 -12.5t12.5 -28.5v-1352q0 -16 -12.5 -28.5t-28.5 -12.5h-113q-16 0 -28.5 12.5t-12.5 28.5z" />
<glyph unicode="&#x131;" horiz-adv-x="471" d="M143 41v942q0 16 12.5 28.5t28.5 12.5h107q16 0 28.5 -12.5t12.5 -28.5v-942q0 -16 -12.5 -28.5t-28.5 -12.5h-107q-16 0 -28.5 12.5t-12.5 28.5z" />
<glyph unicode="&#x132;" horiz-adv-x="1032" d="M133 41v1352q0 16 12.5 28.5t28.5 12.5h113q16 0 28.5 -12.5t12.5 -28.5v-1352q0 -16 -12.5 -28.5t-28.5 -12.5h-113q-16 0 -28.5 12.5t-12.5 28.5zM451 25v112q0 16 12.5 28.5t28.5 12.5q49 0 91 16.5t74.5 48t51 79t18.5 108.5v963q0 16 12.5 28.5t28.5 12.5h113 q16 0 28.5 -12.5t12.5 -28.5v-983q0 -96 -34 -175t-92.5 -134.5t-137 -86t-166.5 -30.5q-16 0 -28.5 12t-12.5 29z" />
<glyph unicode="&#x133;" horiz-adv-x="899" d="M133 1274v141q0 12 9.5 22.5t23.5 10.5h139q14 0 23.5 -10.5t9.5 -22.5v-141q0 -33 -33 -33h-139q-33 0 -33 33zM143 41v942q0 16 12.5 28.5t28.5 12.5h107q16 0 28.5 -12.5t12.5 -28.5v-942q0 -16 -12.5 -28.5t-28.5 -12.5h-107q-16 0 -28.5 12.5t-12.5 28.5zM236 -287 q0 16 12 28.5t28 12.5h107q78 0 131 50.5t53 134.5v1044q0 16 12.5 28.5t28.5 12.5h109q16 0 28.5 -12.5t12.5 -28.5v-1044q0 -74 -28 -141.5t-78 -118t-118.5 -80t-150.5 -29.5h-107q-16 0 -28 12t-12 29v102zM561 1274v141q0 12 9.5 22.5t23.5 10.5h139q14 0 23.5 -10.5 t9.5 -22.5v-141q0 -33 -33 -33h-139q-33 0 -33 33z" />
<glyph unicode="&#x134;" horiz-adv-x="980" d="M10 410v28q0 16 12.5 28.5t28.5 12.5h113q16 0 28.5 -12t12.5 -29v-28q0 -49 18.5 -91.5t51 -73t74.5 -49t91 -18.5t91 16.5t75 48t51.5 79t18.5 108.5v963q0 16 12 28.5t29 12.5h112q16 0 28.5 -12.5t12.5 -28.5v-983q0 -96 -33.5 -175t-92 -134.5t-137.5 -86 t-167 -30.5q-90 0 -167.5 32.5t-136 91t-92.5 135t-34 167.5zM442.5 1552.5q-6.5 16.5 3.5 26.5l222 229q10 10 21 17.5t40 7.5h86q27 0 38 -7t21 -18l222 -229q10 -10 4 -26.5t-27 -16.5h-121q-23 0 -38 11.5t-25 21.5l-105 100q-14 14 -28 0l-103 -100 q-10 -10 -25.5 -21.5t-37.5 -11.5h-121q-20 0 -26.5 16.5z" />
<glyph unicode="&#x135;" horiz-adv-x="540" d="M-123 -287q0 16 12.5 28.5t28.5 12.5h107q78 0 131 50.5t53 134.5v1044q0 16 12 28.5t29 12.5h108q16 0 28.5 -12.5t12.5 -28.5v-1044q0 -74 -27.5 -141.5t-77.5 -118t-119 -80t-150 -29.5h-107q-16 0 -28.5 12t-12.5 29v102zM-22.5 1214.5q-6.5 16.5 4.5 26.5l221 229 q10 10 21.5 17.5t39.5 7.5h86q27 0 38 -7t22 -18l221 -229q10 -10 4 -26.5t-27 -16.5h-121q-23 0 -38 11.5t-25 21.5l-105 100q-14 14 -28 0l-103 -100q-10 -10 -25.5 -21.5t-37.5 -11.5h-121q-20 0 -26.5 16.5z" />
<glyph unicode="&#x136;" horiz-adv-x="1021" d="M133 41v1352q0 16 12.5 28.5t28.5 12.5h113q16 0 28.5 -12.5t12.5 -28.5v-492q0 -8 6 -8t10 4l397 516q4 6 13.5 13.5t31.5 7.5h113q29 0 40 -26t-5 -48l-467 -596q-10 -12 -12 -23.5t10 -25.5l524 -639q16 -20 7 -48t-44 -28h-129q-23 0 -31 7t-14 13l-434 543 q-4 4 -10 4t-6 -8v-518q0 -16 -12.5 -28.5t-28.5 -12.5h-113q-16 0 -28.5 12.5t-12.5 28.5zM350 -133q0 16 12.5 28.5t28.5 12.5h144q16 0 28 -12.5t12 -28.5v-125q0 -41 -11 -70.5t-29 -56.5l-66 -94q-6 -10 -18.5 -20.5t-34.5 -10.5h-19q-29 0 -39 22.5t2 45.5l64 116 q6 10 -1 18.5t-17 8.5h-15q-16 0 -28.5 12.5t-12.5 28.5v125z" />
<glyph unicode="&#x137;" horiz-adv-x="899" d="M133 41v1366q0 16 12.5 28.5t28.5 12.5h102q16 0 28.5 -12.5t12.5 -28.5v-713q0 -8 6.5 -9t10.5 5l293 307q8 8 18 17.5t33 9.5h117q33 0 41 -25.5t-9 -42.5l-370 -395q-23 -23 0 -49l409 -444q18 -20 7 -44t-39 -24h-138q-23 0 -34 11.5t-19 19.5l-309 336q-4 4 -10.5 4 t-6.5 -9v-321q0 -16 -12 -28.5t-29 -12.5h-102q-16 0 -28.5 12.5t-12.5 28.5zM373 -133q0 16 12 28.5t29 12.5h143q16 0 28.5 -12.5t12.5 -28.5v-125q0 -41 -11.5 -70.5t-29.5 -56.5l-65 -94q-6 -10 -18.5 -20.5t-35.5 -10.5h-18q-29 0 -39 22.5t2 45.5l63 116q6 10 -1 18.5 t-17 8.5h-14q-16 0 -28.5 12.5t-12.5 28.5v125z" />
<glyph unicode="&#x138;" horiz-adv-x="886" d="M123 41v942q0 16 12 28.5t29 12.5h102q16 0 28.5 -12.5t12.5 -28.5v-299q0 -8 6 -9t11 5l313 317q8 8 18.5 17.5t32.5 9.5h117q33 0 40 -25.5t-7 -42.5l-392 -395q-23 -23 0 -49l441 -444q16 -23 6 -45.5t-39 -22.5h-147q-23 0 -34 11.5t-20 19.5l-329 342q-4 4 -10.5 4 t-6.5 -8v-328q0 -16 -12 -28.5t-29 -12.5h-102q-16 0 -28.5 12.5t-12.5 28.5z" />
<glyph unicode="&#x139;" horiz-adv-x="868" d="M133 41v1352q0 16 12.5 28.5t28.5 12.5h113q16 0 28.5 -12.5t12.5 -28.5v-1178q0 -20 20 -20h459q16 0 28.5 -12.5t12.5 -28.5v-113q0 -16 -12.5 -28.5t-28.5 -12.5h-633q-16 0 -28.5 12.5t-12.5 28.5zM235.5 1551.5q-8.5 15.5 0.5 25.5l155 223q8 10 19.5 21.5 t33.5 11.5h162q20 0 26.5 -16.5t-3.5 -26.5l-221 -229q-10 -10 -21.5 -17.5t-40.5 -7.5h-82q-20 0 -28.5 15.5z" />
<glyph unicode="&#x13a;" horiz-adv-x="450" d="M110.5 1551.5q-8.5 15.5 0.5 25.5l155 223q8 10 19.5 21.5t33.5 11.5h162q20 0 26.5 -16.5t-3.5 -26.5l-221 -229q-10 -10 -21.5 -17.5t-40.5 -7.5h-82q-20 0 -28.5 15.5zM133 41v1366q0 16 12.5 28.5t28.5 12.5h102q16 0 28.5 -12.5t12.5 -28.5v-1366q0 -16 -12 -28.5 t-29 -12.5h-102q-16 0 -28.5 12.5t-12.5 28.5z" />
<glyph unicode="&#x13b;" horiz-adv-x="868" d="M133 41v1352q0 16 12.5 28.5t28.5 12.5h113q16 0 28.5 -12.5t12.5 -28.5v-1178q0 -20 20 -20h459q16 0 28.5 -12.5t12.5 -28.5v-113q0 -16 -12.5 -28.5t-28.5 -12.5h-633q-16 0 -28.5 12.5t-12.5 28.5zM350 -133q0 16 12.5 28.5t28.5 12.5h144q16 0 28 -12.5t12 -28.5 v-125q0 -41 -11 -70.5t-29 -56.5l-66 -94q-6 -10 -18.5 -20.5t-34.5 -10.5h-19q-29 0 -39 22.5t2 45.5l64 116q6 10 -1 18.5t-17 8.5h-15q-16 0 -28.5 12.5t-12.5 28.5v125z" />
<glyph unicode="&#x13c;" horiz-adv-x="450" d="M115 -133q0 16 12 28.5t29 12.5h143q16 0 28.5 -12.5t12.5 -28.5v-125q0 -41 -11.5 -70.5t-29.5 -56.5l-66 -94q-6 -10 -18 -20.5t-35 -10.5h-18q-29 0 -39 22.5t2 45.5l63 116q6 10 -1 18.5t-17 8.5h-14q-16 0 -28.5 12.5t-12.5 28.5v125zM133 41v1366q0 16 12.5 28.5 t28.5 12.5h102q16 0 28.5 -12.5t12.5 -28.5v-1366q0 -16 -12 -28.5t-29 -12.5h-102q-16 0 -28.5 12.5t-12.5 28.5z" />
<glyph unicode="&#x13d;" horiz-adv-x="868" d="M133 41v1352q0 16 12.5 28.5t28.5 12.5h113q16 0 28.5 -12.5t12.5 -28.5v-1178q0 -20 20 -20h459q16 0 28.5 -12.5t12.5 -28.5v-113q0 -16 -12.5 -28.5t-28.5 -12.5h-633q-16 0 -28.5 12.5t-12.5 28.5zM492 1268v125q0 16 12 28.5t28 12.5h144q16 0 28.5 -12.5 t12.5 -28.5v-125q0 -41 -11.5 -71t-29.5 -56l-66 -94q-6 -10 -18 -20.5t-35 -10.5h-18q-29 0 -39.5 22.5t2.5 44.5l63 117q6 10 -1 18.5t-17 8.5h-15q-16 0 -28 12t-12 29z" />
<glyph unicode="&#x13e;" horiz-adv-x="778" d="M133 41v1366q0 16 12.5 28.5t28.5 12.5h102q16 0 28.5 -12.5t12.5 -28.5v-1366q0 -16 -12 -28.5t-29 -12.5h-102q-16 0 -28.5 12.5t-12.5 28.5zM461 1268v125q0 16 12 28.5t29 12.5h143q16 0 28.5 -12.5t12.5 -28.5v-125q0 -41 -11 -71t-30 -56l-65 -94 q-6 -10 -18.5 -20.5t-35.5 -10.5h-18q-29 0 -39 22.5t2 44.5l64 117q6 10 -1.5 18.5t-17.5 8.5h-14q-16 0 -28.5 12t-12.5 29z" />
<glyph unicode="&#x13f;" horiz-adv-x="868" d="M133 41v1352q0 16 12.5 28.5t28.5 12.5h113q16 0 28.5 -12.5t12.5 -28.5v-1178q0 -20 20 -20h459q16 0 28.5 -12.5t12.5 -28.5v-113q0 -16 -12.5 -28.5t-28.5 -12.5h-633q-16 0 -28.5 12.5t-12.5 28.5zM508 545v141q0 12 9 22.5t24 10.5h139q14 0 23.5 -10.5t9.5 -22.5 v-141q0 -33 -33 -33h-139q-33 0 -33 33z" />
<glyph unicode="&#x140;" horiz-adv-x="724" d="M133 41v1366q0 16 12.5 28.5t28.5 12.5h102q16 0 28.5 -12.5t12.5 -28.5v-1366q0 -16 -12 -28.5t-29 -12.5h-102q-16 0 -28.5 12.5t-12.5 28.5zM426 545v141q0 12 9 22.5t24 10.5h139q14 0 23.5 -10.5t9.5 -22.5v-141q0 -33 -33 -33h-139q-33 0 -33 33z" />
<glyph unicode="&#x141;" horiz-adv-x="868" d="M-10 442v99q0 16 4 28.5t26 28.5l97 68q16 12 16 28v699q0 16 12.5 28.5t28.5 12.5h113q16 0 28.5 -12.5t12.5 -28.5v-557q0 -6 6 -9.5t12 0.5l238 168q14 10 32.5 1t18.5 -29v-107q0 -20 -13.5 -35.5t-27.5 -25.5l-254 -181q-12 -10 -12 -20v-383q0 -20 20 -20h459 q16 0 28.5 -12.5t12.5 -28.5v-113q0 -16 -12.5 -28.5t-28.5 -12.5h-633q-16 0 -28.5 12.5t-12.5 28.5v410q0 10 -7 12t-11 -2l-68 -47q-16 -10 -36.5 -2t-20.5 30z" />
<glyph unicode="&#x142;" horiz-adv-x="450" d="M-10 442v99q0 16 4 28.5t26 28.5l97 68q16 12 16 28v713q0 16 12.5 28.5t28.5 12.5h102q16 0 28.5 -12.5t12.5 -28.5v-571q0 -6 6.5 -9.5t12.5 0.5l104 74q14 10 33 1t19 -30v-106q0 -20 -13.5 -35.5t-27.5 -25.5l-121 -87q-12 -10 -13 -20v-557q0 -16 -12 -28.5 t-29 -12.5h-102q-16 0 -28.5 12.5t-12.5 28.5v410q0 10 -7 12t-11 -2l-68 -47q-16 -10 -36.5 -2t-20.5 30z" />
<glyph unicode="&#x143;" horiz-adv-x="1126" d="M133 41v1352q0 16 12.5 28.5t28.5 12.5h170q16 0 25.5 -6.5t17.5 -28.5l404 -1010q4 -6 10 -5t6 9v1000q0 16 12 28.5t29 12.5h104q16 0 28.5 -12.5t12.5 -28.5v-1352q0 -16 -12 -28.5t-29 -12.5h-170q-16 0 -25 6t-18 29l-403 1014q-4 6 -10.5 5t-6.5 -10v-1003 q0 -16 -12 -28.5t-28 -12.5h-105q-16 0 -28.5 12.5t-12.5 28.5zM446 1577l156 223q8 10 19.5 21.5t33.5 11.5h162q20 0 26.5 -16.5t-3.5 -26.5l-222 -229q-10 -10 -21 -17.5t-40 -7.5h-82q-20 0 -28.5 15.5t-0.5 25.5z" />
<glyph unicode="&#x144;" d="M123 41v942q0 16 12 28.5t29 12.5h90q14 0 29 -14q10 -10 22 -21.5t29 -11.5q23 0 39 10t38.5 23.5t55.5 23.5t86 10q86 0 157.5 -26.5t123 -76.5t80 -123t28.5 -163v-614q0 -16 -12 -28.5t-29 -12.5h-102q-16 0 -28.5 12.5t-12.5 28.5v614q0 98 -64.5 151.5t-161.5 53.5 q-96 0 -160.5 -52t-64.5 -142v-625q0 -16 -12 -28.5t-29 -12.5h-102q-16 0 -28.5 12.5t-12.5 28.5zM391 1239l156 223q8 10 19.5 21.5t33.5 11.5h162q20 0 26.5 -16.5t-4.5 -26.5l-221 -229q-10 -10 -21.5 -17.5t-39.5 -7.5h-82q-20 0 -28.5 15.5t-0.5 25.5z" />
<glyph unicode="&#x145;" horiz-adv-x="1126" d="M133 41v1352q0 16 12.5 28.5t28.5 12.5h170q16 0 25.5 -6.5t17.5 -28.5l404 -1010q4 -6 10 -5t6 9v1000q0 16 12 28.5t29 12.5h104q16 0 28.5 -12.5t12.5 -28.5v-1352q0 -16 -12 -28.5t-29 -12.5h-170q-16 0 -25 6t-18 29l-403 1014q-4 6 -10.5 5t-6.5 -10v-1003 q0 -16 -12 -28.5t-28 -12.5h-105q-16 0 -28.5 12.5t-12.5 28.5zM453 -133q0 16 12 28.5t29 12.5h143q16 0 28.5 -12.5t12.5 -28.5v-125q0 -41 -11.5 -70.5t-29.5 -56.5l-66 -94q-6 -10 -18 -20.5t-35 -10.5h-18q-29 0 -39 22.5t2 45.5l63 116q6 10 -1 18.5t-17 8.5h-14 q-16 0 -28.5 12.5t-12.5 28.5v125z" />
<glyph unicode="&#x146;" d="M123 41v942q0 16 12 28.5t29 12.5h90q14 0 29 -14q10 -10 22 -21.5t29 -11.5q23 0 39 10t38.5 23.5t55.5 23.5t86 10q86 0 157.5 -26.5t123 -76.5t80 -123t28.5 -163v-614q0 -16 -12 -28.5t-29 -12.5h-102q-16 0 -28.5 12.5t-12.5 28.5v614q0 98 -64.5 151.5t-161.5 53.5 q-96 0 -160.5 -52t-64.5 -142v-625q0 -16 -12 -28.5t-29 -12.5h-102q-16 0 -28.5 12.5t-12.5 28.5zM418 -133q0 16 12 28.5t29 12.5h143q16 0 28.5 -12.5t12.5 -28.5v-125q0 -41 -11 -70.5t-30 -56.5l-65 -94q-6 -10 -18.5 -20.5t-35.5 -10.5h-18q-29 0 -39 22.5t2 45.5 l64 116q6 10 -1.5 18.5t-17.5 8.5h-14q-16 0 -28.5 12.5t-12.5 28.5v125z" />
<glyph unicode="&#x147;" horiz-adv-x="1126" d="M133 41v1352q0 16 12.5 28.5t28.5 12.5h170q16 0 25.5 -6.5t17.5 -28.5l404 -1010q4 -6 10 -5t6 9v1000q0 16 12 28.5t29 12.5h104q16 0 28.5 -12.5t12.5 -28.5v-1352q0 -16 -12 -28.5t-29 -12.5h-170q-16 0 -25 6t-18 29l-403 1014q-4 6 -10.5 5t-6.5 -10v-1003 q0 -16 -12 -28.5t-28 -12.5h-105q-16 0 -28.5 12.5t-12.5 28.5zM234 1818.5q6 16.5 26 16.5h121q23 0 38 -11.5t25 -21.5l103 -100q14 -14 28 0l105 100q10 10 25.5 21.5t37.5 11.5h121q20 0 26.5 -16.5t-3.5 -26.5l-221 -229q-10 -10 -21.5 -17.5t-38.5 -7.5h-86 q-29 0 -40 7t-21 18l-221 229q-10 10 -4 26.5z" />
<glyph unicode="&#x148;" d="M123 41v942q0 16 12 28.5t29 12.5h90q14 0 29 -14q10 -10 22 -21.5t29 -11.5q23 0 39 10t38.5 23.5t55.5 23.5t86 10q86 0 157.5 -26.5t123 -76.5t80 -123t28.5 -163v-614q0 -16 -12 -28.5t-29 -12.5h-102q-16 0 -28.5 12.5t-12.5 28.5v614q0 98 -64.5 151.5t-161.5 53.5 q-96 0 -160.5 -52t-64.5 -142v-625q0 -16 -12 -28.5t-29 -12.5h-102q-16 0 -28.5 12.5t-12.5 28.5zM199 1478.5q6 16.5 26 16.5h121q23 0 38 -11t26 -22l102 -100q14 -14 29 0l104 100q10 10 25.5 21.5t38.5 11.5h120q20 0 26.5 -16.5t-3.5 -26.5l-221 -229 q-10 -10 -21.5 -17.5t-38.5 -7.5h-86q-29 0 -40 7t-21 18l-221 229q-10 10 -4 26.5z" />
<glyph unicode="&#x149;" d="M2 1270v125q0 16 12.5 28.5t28.5 12.5h143q16 0 28.5 -12.5t12.5 -28.5v-125q0 -41 -11 -71t-30 -56l-65 -94q-6 -10 -18.5 -20.5t-34.5 -10.5h-19q-29 0 -39 22.5t2 44.5l64 117q6 10 -1 18.5t-18 8.5h-14q-16 0 -28.5 12t-12.5 29zM123 41v942q0 16 12 28.5t29 12.5h90 q14 0 29 -14q10 -10 22 -21.5t29 -11.5q23 0 39 10t38.5 23.5t55.5 23.5t86 10q86 0 157.5 -26.5t123 -76.5t80 -123t28.5 -163v-614q0 -16 -12 -28.5t-29 -12.5h-102q-16 0 -28.5 12.5t-12.5 28.5v614q0 98 -64.5 151.5t-161.5 53.5q-96 0 -160.5 -52t-64.5 -142v-625 q0 -16 -12 -28.5t-29 -12.5h-102q-16 0 -28.5 12.5t-12.5 28.5z" />
<glyph unicode="&#x14a;" horiz-adv-x="1126" d="M133 41v1352q0 16 12.5 28.5t28.5 12.5h154q16 0 25 -6.5t18 -28.5l420 -916q4 -6 10 -5t6 9v906q0 16 12 28.5t29 12.5h104q16 0 28.5 -12.5t12.5 -28.5v-1454q0 -74 -25.5 -141.5t-71.5 -118t-109.5 -80t-137.5 -29.5q-16 0 -28.5 12t-12.5 29v102q0 16 12.5 28.5 t28.5 12.5q63 0 111.5 50.5t48.5 134.5v61l-473 1049q-4 6 -10.5 5t-6.5 -10v-1003q0 -16 -12 -28.5t-28 -12.5h-105q-16 0 -28.5 12.5t-12.5 28.5z" />
<glyph unicode="&#x14b;" d="M123 41v942q0 16 12 28.5t29 12.5h90q14 0 29 -14q10 -10 22 -21.5t29 -11.5q23 0 39 10t38.5 23.5t55.5 23.5t86 10q86 0 157.5 -26.5t123 -76.5t80 -123t28.5 -163v-716q0 -74 -25.5 -141.5t-71.5 -118t-109.5 -80t-137.5 -29.5q-16 0 -28.5 12t-12.5 29v102 q0 16 12.5 28.5t28.5 12.5q63 0 111.5 50.5t48.5 134.5v716q0 98 -64.5 151.5t-161.5 53.5q-96 0 -160.5 -52t-64.5 -142v-625q0 -16 -12 -28.5t-29 -12.5h-102q-16 0 -28.5 12.5t-12.5 28.5z" />
<glyph unicode="&#x14c;" horiz-adv-x="1138" d="M92 718q0 85 4 165t13 141q10 84 44.5 161t93 136t139.5 94t183 35q92 0 171 -29.5t139.5 -85t99.5 -134.5t51 -177q8 -61 11 -142t3 -165t-4 -165t-10 -142q-10 -84 -45 -162t-93 -136.5t-140 -93t-183 -34.5q-92 0 -171 29.5t-139 85t-99 134t-51 177.5 q-8 61 -12.5 142t-4.5 166zM281 1597v78q0 16 12 28.5t29 12.5h495q16 0 28.5 -12t12.5 -29v-78q0 -16 -12 -28.5t-29 -12.5h-495q-16 0 -28.5 12.5t-12.5 28.5zM287 717q0 -84 4 -164t12 -143q6 -45 25.5 -87t53.5 -74t81 -51.5t106 -19.5q104 0 177 60.5t90 171.5 q8 63 13 143t5 164t-5 164t-13 143q-6 45 -25.5 87t-53.5 74t-80 51t-108 19q-100 0 -176 -59t-90 -172q-8 -63 -12 -143t-4 -164z" />
<glyph unicode="&#x14d;" horiz-adv-x="1024" d="M88 512q0 82 4 143q6 80 38 152t86 124t129 82.5t167 30.5t167 -30.5t129 -82.5t86 -124t38 -152q4 -61 4 -143t-4 -143q-6 -80 -38 -152t-86 -124t-129 -82.5t-167 -30.5t-167 30.5t-129 82.5t-86 124t-38 152q-4 61 -4 143zM223 1303v77q0 16 12.5 28.5t28.5 12.5h496 q16 0 28.5 -12t12.5 -29v-77q0 -16 -12.5 -28.5t-28.5 -12.5h-496q-16 0 -28.5 12t-12.5 29zM272 512q0 -80 4 -143q6 -82 68 -143.5t168 -61.5t167.5 61.5t68.5 143.5q4 63 4 143t-4 143q-6 82 -68 143.5t-168 61.5t-168 -61.5t-68 -143.5q-4 -63 -4 -143z" />
<glyph unicode="&#x14e;" horiz-adv-x="1138" d="M92 718q0 85 4 165t13 141q10 84 44.5 161t93 136t139.5 94t183 35q92 0 171 -29.5t139.5 -85t99.5 -134.5t51 -177q8 -61 11 -142t3 -165t-4 -165t-10 -142q-10 -84 -45 -162t-93 -136.5t-140 -93t-183 -34.5q-92 0 -171 29.5t-139 85t-99 134t-51 177.5 q-8 61 -12.5 142t-4.5 166zM287 717q0 -84 4 -164t12 -143q6 -45 25.5 -87t53.5 -74t81 -51.5t106 -19.5q104 0 177 60.5t90 171.5q8 63 13 143t5 164t-5 164t-13 143q-6 45 -25.5 87t-53.5 74t-80 51t-108 19q-100 0 -176 -59t-90 -172q-8 -63 -12 -143t-4 -164zM287 1798 q0 14 10 24.5t25 10.5h88q16 0 25 -10.5t9 -24.5q0 -47 39 -81t86 -34t85 34t38 81q0 14 9.5 24.5t25.5 10.5h88q14 0 24.5 -10.5t10.5 -24.5q0 -55 -20.5 -102t-58.5 -83t-89 -56.5t-113 -20.5q-61 0 -113.5 20.5t-90 56.5t-58 83t-20.5 102z" />
<glyph unicode="&#x14f;" horiz-adv-x="1024" d="M88 512q0 82 4 143q6 80 38 152t86 124t129 82.5t167 30.5t167 -30.5t129 -82.5t86 -124t38 -152q4 -61 4 -143t-4 -143q-6 -80 -38 -152t-86 -124t-129 -82.5t-167 -30.5t-167 30.5t-129 82.5t-86 124t-38 152q-4 61 -4 143zM229 1460q0 14 10.5 24.5t24.5 10.5h88 q16 0 25.5 -10t9.5 -25q0 -47 39 -80.5t86 -33.5t85 33.5t38 80.5q0 14 9 24.5t26 10.5h88q14 0 24.5 -10t10.5 -25q0 -55 -20.5 -102t-58.5 -83t-89.5 -56.5t-112.5 -20.5t-113.5 20.5t-90.5 56.5t-58.5 83t-20.5 102zM272 512q0 -80 4 -143q6 -82 68 -143.5t168 -61.5 t167.5 61.5t68.5 143.5q4 63 4 143t-4 143q-6 82 -68 143.5t-168 61.5t-168 -61.5t-68 -143.5q-4 -63 -4 -143z" />
<glyph unicode="&#x150;" horiz-adv-x="1138" d="M92 718q0 85 4 165t13 141q10 84 44.5 161t93 136t139.5 94t183 35q92 0 171 -29.5t139.5 -85t99.5 -134.5t51 -177q8 -61 11 -142t3 -165t-4 -165t-10 -142q-10 -84 -45 -162t-93 -136.5t-140 -93t-183 -34.5q-92 0 -171 29.5t-139 85t-99 134t-51 177.5 q-8 61 -12.5 142t-4.5 166zM278.5 1551.5q-8.5 15.5 0.5 25.5l155 223q8 10 19.5 21.5t33.5 11.5h162q20 0 26.5 -16.5t-3.5 -26.5l-221 -229q-10 -10 -21.5 -17.5t-40.5 -7.5h-82q-20 0 -28.5 15.5zM287 717q0 -84 4 -164t12 -143q6 -45 25.5 -87t53.5 -74t81 -51.5 t106 -19.5q104 0 177 60.5t90 171.5q8 63 13 143t5 164t-5 164t-13 143q-6 45 -25.5 87t-53.5 74t-80 51t-108 19q-100 0 -176 -59t-90 -172q-8 -63 -12 -143t-4 -164zM626.5 1551.5q-8.5 15.5 0.5 25.5l155 223q8 10 19.5 21.5t34.5 11.5h161q20 0 26.5 -16.5t-3.5 -26.5 l-221 -229q-10 -10 -21.5 -17.5t-40.5 -7.5h-82q-20 0 -28.5 15.5z" />
<glyph unicode="&#x151;" horiz-adv-x="1024" d="M88 512q0 82 4 143q6 80 38 152t86 124t129 82.5t167 30.5t167 -30.5t129 -82.5t86 -124t38 -152q4 -61 4 -143t-4 -143q-6 -80 -38 -152t-86 -124t-129 -82.5t-167 -30.5t-167 30.5t-129 82.5t-86 124t-38 152q-4 61 -4 143zM221 1239l156 223q8 10 19.5 21.5t33.5 11.5 h162q20 0 26.5 -16.5t-4.5 -26.5l-221 -229q-10 -10 -21.5 -17.5t-39.5 -7.5h-82q-20 0 -28.5 15.5t-0.5 25.5zM272 512q0 -80 4 -143q6 -82 68 -143.5t168 -61.5t167.5 61.5t68.5 143.5q4 63 4 143t-4 143q-6 82 -68 143.5t-168 61.5t-168 -61.5t-68 -143.5q-4 -63 -4 -143 zM569 1239l156 223q8 10 19.5 21.5t33.5 11.5h162q20 0 26.5 -16.5t-3.5 -26.5l-222 -229q-10 -10 -21 -17.5t-40 -7.5h-82q-20 0 -28.5 15.5t-0.5 25.5z" />
<glyph unicode="&#x152;" horiz-adv-x="1671" d="M92 718q0 85 4 165t13 141q10 84 44.5 161t93 136t139.5 94t183 35q121 0 219 -51q2 -2 11.5 -6t18.5 -7.5t16.5 -2.5t7.5 10q0 16 12 28.5t29 12.5h661q16 0 28.5 -12.5t12.5 -28.5v-113q0 -16 -12 -28.5t-29 -12.5h-487q-20 0 -21 -20v-369q0 -20 21 -21h465 q16 0 28.5 -12t12.5 -29v-112q0 -16 -12.5 -28.5t-28.5 -12.5h-465q-20 0 -21 -21v-399q0 -20 21 -20h491q16 0 28.5 -12.5t12.5 -28.5v-113q0 -16 -12 -28.5t-29 -12.5h-665q-16 0 -28.5 12.5t-12.5 28.5q0 8 -9.5 8t-19.5 -3t-21.5 -8t-13.5 -7q-90 -47 -209 -47 q-92 0 -171 29.5t-139 85t-99 134t-51 177.5q-8 61 -12.5 142t-4.5 166zM287 717q0 -84 4 -164t12 -143q6 -45 25.5 -87t53.5 -74t81 -51.5t106 -19.5q104 0 177 60.5t90 171.5q8 63 13 143t5 164t-5 164t-13 143q-6 45 -25.5 87t-53.5 74t-80.5 51t-107.5 19 q-100 0 -176 -59t-90 -172q-8 -63 -12 -143t-4 -164z" />
<glyph unicode="&#x153;" horiz-adv-x="1669" d="M88 512q0 82 4 143q6 80 38 152t86 124t129 82.5t167 30.5q113 0 177.5 -34.5t113.5 -75.5q37 -35 78 0q53 49 127.5 79.5t165.5 30.5q90 0 164.5 -29.5t129 -82.5t85 -129t30.5 -168v-141q0 -16 -12 -28.5t-29 -12.5h-586q-20 0 -20 -21q0 -141 65.5 -204.5t172.5 -63.5 q80 0 136 36t74 93q6 20 19.5 27.5t28.5 7.5h104q16 0 27.5 -9.5t7.5 -31.5q-10 -68 -43 -124.5t-85 -97t-121 -63t-148 -22.5q-90 0 -165 30.5t-128 79.5q-41 35 -78 0q-49 -41 -113.5 -75.5t-177.5 -34.5q-92 0 -167 30.5t-129 82.5t-86 124t-38 152q-4 61 -4 143z M272 512q0 -80 4 -143q6 -82 68 -143.5t168 -61.5t167.5 61.5t68.5 143.5q4 63 4 143t-4 143q-6 82 -68 143.5t-168 61.5t-168 -61.5t-68 -143.5q-4 -63 -4 -143zM940 637q0 -20 21 -21h425q20 0 21 21q0 106 -67.5 164.5t-163.5 58.5q-106 0 -171 -64.5t-65 -158.5z" />
<glyph unicode="&#x154;" horiz-adv-x="1064" d="M133 41v1352q0 16 12.5 28.5t28.5 12.5h369q88 0 166.5 -34t137 -92.5t92.5 -137t34 -166.5q0 -117 -59.5 -214.5t-153.5 -152.5q-29 -16 -39 -32.5t4 -45.5l242 -498q10 -23 0.5 -42t-39.5 -19h-115q-25 0 -37 11.5t-22 29.5l-242 508q-4 10 -13.5 17t-25.5 7h-125 q-20 0 -20 -20v-512q0 -16 -12.5 -28.5t-28.5 -12.5h-113q-16 0 -28.5 12.5t-12.5 28.5zM328 788q0 -20 20 -20h195q49 0 91 18.5t74.5 51t51 74.5t18.5 92q0 49 -18.5 91t-51 74.5t-74.5 51t-91 18.5h-195q-20 0 -20 -20v-431zM364.5 1551.5q-8.5 15.5 0.5 25.5l155 223 q8 10 19.5 21.5t33.5 11.5h162q20 0 26.5 -16.5t-3.5 -26.5l-221 -229q-10 -10 -21.5 -17.5t-40.5 -7.5h-82q-20 0 -28.5 15.5z" />
<glyph unicode="&#x155;" horiz-adv-x="706" d="M123 41v942q0 16 12 28.5t29 12.5h69q33 0 41 -41q4 -20 9.5 -46t27.5 -26q18 0 37 17.5t50.5 39t82.5 39t133 17.5h41q16 0 28.5 -12.5t12.5 -28.5v-100q0 -16 -12 -28.5t-29 -12.5h-41q-61 0 -116.5 -16.5t-97.5 -53.5t-67.5 -96.5t-25.5 -143.5v-491q0 -16 -12 -28.5 t-29 -12.5h-102q-16 0 -28.5 12.5t-12.5 28.5zM258 1239l156 223q8 10 19 21.5t34 11.5h162q20 0 26.5 -16.5t-4.5 -26.5l-221 -229q-10 -10 -21.5 -17.5t-39.5 -7.5h-82q-20 0 -28.5 15.5t-0.5 25.5z" />
<glyph unicode="&#x156;" horiz-adv-x="1064" d="M133 41v1352q0 16 12.5 28.5t28.5 12.5h369q88 0 166.5 -34t137 -92.5t92.5 -137t34 -166.5q0 -117 -59.5 -214.5t-153.5 -152.5q-29 -16 -39 -32.5t4 -45.5l242 -498q10 -23 0.5 -42t-39.5 -19h-115q-25 0 -37 11.5t-22 29.5l-242 508q-4 10 -13.5 17t-25.5 7h-125 q-20 0 -20 -20v-512q0 -16 -12.5 -28.5t-28.5 -12.5h-113q-16 0 -28.5 12.5t-12.5 28.5zM328 788q0 -20 20 -20h195q49 0 91 18.5t74.5 51t51 74.5t18.5 92q0 49 -18.5 91t-51 74.5t-74.5 51t-91 18.5h-195q-20 0 -20 -20v-431zM412 -133q0 16 12 28.5t29 12.5h143 q16 0 28.5 -12.5t12.5 -28.5v-125q0 -41 -11.5 -70.5t-29.5 -56.5l-66 -94q-6 -10 -18 -20.5t-35 -10.5h-18q-29 0 -39 22.5t2 45.5l63 116q6 10 -1 18.5t-17 8.5h-14q-16 0 -28.5 12.5t-12.5 28.5v125z" />
<glyph unicode="&#x157;" horiz-adv-x="706" d="M123 41v942q0 16 12 28.5t29 12.5h69q33 0 41 -41q4 -20 9.5 -46t27.5 -26q18 0 37 17.5t50.5 39t82.5 39t133 17.5h41q16 0 28.5 -12.5t12.5 -28.5v-100q0 -16 -12 -28.5t-29 -12.5h-41q-61 0 -116.5 -16.5t-97.5 -53.5t-67.5 -96.5t-25.5 -143.5v-491q0 -16 -12 -28.5 t-29 -12.5h-102q-16 0 -28.5 12.5t-12.5 28.5zM135 -133q0 16 12.5 28.5t28.5 12.5h143q16 0 28.5 -12.5t12.5 -28.5v-125q0 -41 -11 -70.5t-30 -56.5l-65 -94q-6 -10 -18.5 -20.5t-34.5 -10.5h-19q-29 0 -39 22.5t2 45.5l64 116q6 10 -1 18.5t-18 8.5h-14q-16 0 -28.5 12.5 t-12.5 28.5v125z" />
<glyph unicode="&#x158;" horiz-adv-x="1064" d="M133 41v1352q0 16 12.5 28.5t28.5 12.5h369q88 0 166.5 -34t137 -92.5t92.5 -137t34 -166.5q0 -117 -59.5 -214.5t-153.5 -152.5q-29 -16 -39 -32.5t4 -45.5l242 -498q10 -23 0.5 -42t-39.5 -19h-115q-25 0 -37 11.5t-22 29.5l-242 508q-4 10 -13.5 17t-25.5 7h-125 q-20 0 -20 -20v-512q0 -16 -12.5 -28.5t-28.5 -12.5h-113q-16 0 -28.5 12.5t-12.5 28.5zM193 1816.5q6 16.5 26 16.5h121q23 0 38 -11.5t25 -21.5l103 -100q14 -14 29 0l104 100q10 10 25.5 21.5t37.5 11.5h121q20 0 26.5 -16.5t-3.5 -26.5l-221 -229q-10 -10 -21.5 -17.5 t-38.5 -7.5h-86q-29 0 -40 7t-21 18l-221 229q-10 10 -4 26.5zM328 788q0 -20 20 -20h195q49 0 91 18.5t74.5 51t51 74.5t18.5 92q0 49 -18.5 91t-51 74.5t-74.5 51t-91 18.5h-195q-20 0 -20 -20v-431z" />
<glyph unicode="&#x159;" horiz-adv-x="706" d="M66 1478.5q6 16.5 26 16.5h121q23 0 38 -11t25 -22l103 -100q14 -14 29 0l104 100q10 10 25.5 21.5t37.5 11.5h121q20 0 26.5 -16.5t-3.5 -26.5l-221 -229q-10 -10 -21.5 -17.5t-38.5 -7.5h-86q-29 0 -40 7t-21 18l-221 229q-10 10 -4 26.5zM123 41v942q0 16 12 28.5 t29 12.5h69q33 0 41 -41q4 -20 9.5 -46t27.5 -26q18 0 37 17.5t50.5 39t82.5 39t133 17.5h41q16 0 28.5 -12.5t12.5 -28.5v-100q0 -16 -12 -28.5t-29 -12.5h-41q-61 0 -116.5 -16.5t-97.5 -53.5t-67.5 -96.5t-25.5 -143.5v-491q0 -16 -12 -28.5t-29 -12.5h-102 q-16 0 -28.5 12.5t-12.5 28.5z" />
<glyph unicode="&#x15a;" horiz-adv-x="1044" d="M61 410v32q0 16 12.5 28.5t28.5 12.5h115q16 0 28.5 -12t12.5 -29v-32q0 -49 19.5 -92.5t55.5 -74t84 -48t105 -17.5t105.5 17.5t84.5 49t55 74t19 91.5q0 72 -24.5 114.5t-69.5 70.5t-108.5 44t-141.5 35q-76 16 -138 48t-107 80t-71 113.5t-26 149.5q0 92 36 163.5 t95.5 121t135 75t155.5 25.5q90 0 167 -30.5t133.5 -83t88 -122t31.5 -149.5v-27q0 -16 -12 -28.5t-29 -12.5h-113q-16 0 -28 12.5t-12 28.5v27q0 51 -20.5 87t-53.5 59.5t-73 33.5t-79 10q-100 0 -162.5 -51t-62.5 -139q0 -68 29.5 -107.5t74.5 -63.5t99.5 -36t103.5 -24 q174 -43 276.5 -145.5t102.5 -278.5q0 -98 -39 -177t-102.5 -134.5t-147.5 -85t-172 -29.5q-98 0 -183 33.5t-146.5 92t-96.5 135.5t-35 165zM426 1577l156 223q8 10 19 21.5t34 11.5h162q20 0 26 -16.5t-4 -26.5l-221 -229q-10 -10 -21.5 -17.5t-39.5 -7.5h-82 q-20 0 -28.5 15.5t-0.5 25.5z" />
<glyph unicode="&#x15b;" horiz-adv-x="940" d="M66 307v27q0 16 12 28.5t28 12.5h103q16 0 28.5 -12.5t12.5 -28.5v-27q0 -47 21.5 -75.5t54 -46t71.5 -23.5t74 -6q41 0 81 6t70.5 23.5t49 46t18.5 75.5q0 31 -17.5 52.5t-47 36t-69.5 23.5t-85 19q-63 12 -129 29.5t-120 51.5t-88 88.5t-34 140.5q0 70 32 124t84 93 t118.5 59t136.5 20q72 0 139.5 -20t119.5 -60t84 -96.5t32 -130.5q0 -16 -12.5 -28.5t-28.5 -12.5h-103q-16 0 -28 12.5t-12 28.5q0 53 -44.5 93t-146.5 40q-96 0 -138 -38.5t-42 -83.5q0 -59 52 -85t128 -40q63 -12 135 -27.5t131.5 -48.5t98 -89.5t38.5 -150.5 q0 -82 -32.5 -143.5t-89 -102.5t-129 -61t-152.5 -20q-78 0 -150.5 19t-129 59t-91 102.5t-34.5 146.5zM334 1213.5q-8 15.5 0 25.5l155 223q8 10 19.5 21.5t34.5 11.5h162q20 0 26 -16.5t-4 -26.5l-221 -229q-10 -10 -21.5 -17.5t-40.5 -7.5h-82q-20 0 -28 15.5z" />
<glyph unicode="&#x15c;" horiz-adv-x="1044" d="M61 410v32q0 16 12.5 28.5t28.5 12.5h115q16 0 28.5 -12t12.5 -29v-32q0 -49 19.5 -92.5t55.5 -74t84 -48t105 -17.5t105.5 17.5t84.5 49t55 74t19 91.5q0 72 -24.5 114.5t-69.5 70.5t-108.5 44t-141.5 35q-76 16 -138 48t-107 80t-71 113.5t-26 149.5q0 92 36 163.5 t95.5 121t135 75t155.5 25.5q90 0 167 -30.5t133.5 -83t88 -122t31.5 -149.5v-27q0 -16 -12 -28.5t-29 -12.5h-113q-16 0 -28 12.5t-12 28.5v27q0 51 -20.5 87t-53.5 59.5t-73 33.5t-79 10q-100 0 -162.5 -51t-62.5 -139q0 -68 29.5 -107.5t74.5 -63.5t99.5 -36t103.5 -24 q174 -43 276.5 -145.5t102.5 -278.5q0 -98 -39 -177t-102.5 -134.5t-147.5 -85t-172 -29.5q-98 0 -183 33.5t-146.5 92t-96.5 135.5t-35 165zM194.5 1552.5q-6.5 16.5 4.5 26.5l221 229q10 10 21.5 17.5t39.5 7.5h86q27 0 38 -7t22 -18l221 -229q10 -10 4 -26.5t-27 -16.5 h-120q-23 0 -38.5 11.5t-25.5 21.5l-104 100q-14 14 -29 0l-102 -100q-10 -10 -25.5 -21.5t-38.5 -11.5h-121q-20 0 -26.5 16.5z" />
<glyph unicode="&#x15d;" horiz-adv-x="940" d="M66 307v27q0 16 12 28.5t28 12.5h103q16 0 28.5 -12.5t12.5 -28.5v-27q0 -47 21.5 -75.5t54 -46t71.5 -23.5t74 -6q41 0 81 6t70.5 23.5t49 46t18.5 75.5q0 31 -17.5 52.5t-47 36t-69.5 23.5t-85 19q-63 12 -129 29.5t-120 51.5t-88 88.5t-34 140.5q0 70 32 124t84 93 t118.5 59t136.5 20q72 0 139.5 -20t119.5 -60t84 -96.5t32 -130.5q0 -16 -12.5 -28.5t-28.5 -12.5h-103q-16 0 -28 12.5t-12 28.5q0 53 -44.5 93t-146.5 40q-96 0 -138 -38.5t-42 -83.5q0 -59 52 -85t128 -40q63 -12 135 -27.5t131.5 -48.5t98 -89.5t38.5 -150.5 q0 -82 -32.5 -143.5t-89 -102.5t-129 -61t-152.5 -20q-78 0 -150.5 19t-129 59t-91 102.5t-34.5 146.5zM141.5 1214.5q-6.5 16.5 3.5 26.5l222 229q10 10 21 17.5t40 7.5h86q27 0 38 -7t21 -18l222 -229q10 -10 4 -26.5t-27 -16.5h-121q-23 0 -38 11.5t-25 21.5l-105 100 q-14 14 -28 0l-103 -100q-10 -10 -25.5 -21.5t-37.5 -11.5h-121q-20 0 -26.5 16.5z" />
<glyph unicode="&#x15e;" horiz-adv-x="1044" d="M61 410v32q0 16 12.5 28.5t28.5 12.5h115q16 0 28.5 -12t12.5 -29v-32q0 -49 19.5 -92.5t55.5 -74t84 -48t105 -17.5t105.5 17.5t84.5 49t55 74t19 91.5q0 72 -24.5 114.5t-69.5 70.5t-108.5 44t-141.5 35q-76 16 -138 48t-107 80t-71 113.5t-26 149.5q0 92 36 163.5 t95.5 121t135 75t155.5 25.5q90 0 167 -30.5t133.5 -83t88 -122t31.5 -149.5v-27q0 -16 -12 -28.5t-29 -12.5h-113q-16 0 -28 12.5t-12 28.5v27q0 51 -20.5 87t-53.5 59.5t-73 33.5t-79 10q-100 0 -162.5 -51t-62.5 -139q0 -68 29.5 -107.5t74.5 -63.5t99.5 -36t103.5 -24 q174 -43 276.5 -145.5t102.5 -278.5q0 -98 -39 -177t-102.5 -134.5t-147.5 -85t-172 -29.5q-98 0 -183 33.5t-146.5 92t-96.5 135.5t-35 165zM352 -373l78 248q8 33 39 33h109q20 0 28 -11.5t4 -25.5l-57 -248q-8 -33 -39 -33h-129q-20 0 -28.5 11.5t-4.5 25.5z" />
<glyph unicode="&#x15f;" horiz-adv-x="940" d="M66 307v27q0 16 12 28.5t28 12.5h103q16 0 28.5 -12.5t12.5 -28.5v-27q0 -47 21.5 -75.5t54 -46t71.5 -23.5t74 -6q41 0 81 6t70.5 23.5t49 46t18.5 75.5q0 31 -17.5 52.5t-47 36t-69.5 23.5t-85 19q-63 12 -129 29.5t-120 51.5t-88 88.5t-34 140.5q0 70 32 124t84 93 t118.5 59t136.5 20q72 0 139.5 -20t119.5 -60t84 -96.5t32 -130.5q0 -16 -12.5 -28.5t-28.5 -12.5h-103q-16 0 -28 12.5t-12 28.5q0 53 -44.5 93t-146.5 40q-96 0 -138 -38.5t-42 -83.5q0 -59 52 -85t128 -40q63 -12 135 -27.5t131.5 -48.5t98 -89.5t38.5 -150.5 q0 -82 -32.5 -143.5t-89 -102.5t-129 -61t-152.5 -20q-78 0 -150.5 19t-129 59t-91 102.5t-34.5 146.5zM301 -373l78 248q8 33 39 33h108q20 0 28.5 -11.5t4.5 -25.5l-57 -248q-8 -33 -39 -33h-129q-20 0 -28.5 11.5t-4.5 25.5z" />
<glyph unicode="&#x160;" horiz-adv-x="1044" d="M61 410v32q0 16 12.5 28.5t28.5 12.5h115q16 0 28.5 -12t12.5 -29v-32q0 -49 19.5 -92.5t55.5 -74t84 -48t105 -17.5t105.5 17.5t84.5 49t55 74t19 91.5q0 72 -24.5 114.5t-69.5 70.5t-108.5 44t-141.5 35q-76 16 -138 48t-107 80t-71 113.5t-26 149.5q0 92 36 163.5 t95.5 121t135 75t155.5 25.5q90 0 167 -30.5t133.5 -83t88 -122t31.5 -149.5v-27q0 -16 -12 -28.5t-29 -12.5h-113q-16 0 -28 12.5t-12 28.5v27q0 51 -20.5 87t-53.5 59.5t-73 33.5t-79 10q-100 0 -162.5 -51t-62.5 -139q0 -68 29.5 -107.5t74.5 -63.5t99.5 -36t103.5 -24 q174 -43 276.5 -145.5t102.5 -278.5q0 -98 -39 -177t-102.5 -134.5t-147.5 -85t-172 -29.5q-98 0 -183 33.5t-146.5 92t-96.5 135.5t-35 165zM193 1816.5q6 16.5 26 16.5h121q23 0 38 -11.5t25 -21.5l103 -100q14 -14 29 0l104 100q10 10 25.5 21.5t37.5 11.5h121 q20 0 26.5 -16.5t-3.5 -26.5l-221 -229q-10 -10 -21.5 -17.5t-38.5 -7.5h-86q-29 0 -40 7t-21 18l-221 229q-10 10 -4 26.5z" />
<glyph unicode="&#x161;" horiz-adv-x="940" d="M66 307v27q0 16 12 28.5t28 12.5h103q16 0 28.5 -12.5t12.5 -28.5v-27q0 -47 21.5 -75.5t54 -46t71.5 -23.5t74 -6q41 0 81 6t70.5 23.5t49 46t18.5 75.5q0 31 -17.5 52.5t-47 36t-69.5 23.5t-85 19q-63 12 -129 29.5t-120 51.5t-88 88.5t-34 140.5q0 70 32 124t84 93 t118.5 59t136.5 20q72 0 139.5 -20t119.5 -60t84 -96.5t32 -130.5q0 -16 -12.5 -28.5t-28.5 -12.5h-103q-16 0 -28 12.5t-12 28.5q0 53 -44.5 93t-146.5 40q-96 0 -138 -38.5t-42 -83.5q0 -59 52 -85t128 -40q63 -12 135 -27.5t131.5 -48.5t98 -89.5t38.5 -150.5 q0 -82 -32.5 -143.5t-89 -102.5t-129 -61t-152.5 -20q-78 0 -150.5 19t-129 59t-91 102.5t-34.5 146.5zM141 1478.5q6 16.5 27 16.5h121q23 0 38 -11t25 -22l103 -100q14 -14 28 0l105 100q10 10 25.5 21.5t37.5 11.5h121q20 0 26.5 -16.5t-3.5 -26.5l-222 -229 q-10 -10 -21 -17.5t-38 -7.5h-86q-29 0 -40 7t-21 18l-222 229q-10 10 -4 26.5z" />
<glyph unicode="&#x162;" horiz-adv-x="868" d="M4 1280v113q0 16 12.5 28.5t28.5 12.5h778q16 0 28.5 -12.5t12.5 -28.5v-113q0 -16 -12 -28.5t-29 -12.5h-270q-20 0 -21 -20v-1178q0 -16 -12 -28.5t-28 -12.5h-113q-16 0 -28.5 12.5t-12.5 28.5v1178q0 20 -21 20h-272q-16 0 -28.5 12.5t-12.5 28.5zM324 -133 q0 16 12 28.5t29 12.5h143q16 0 28.5 -12.5t12.5 -28.5v-125q0 -41 -11.5 -70.5t-29.5 -56.5l-66 -94q-6 -10 -18 -20.5t-35 -10.5h-18q-29 0 -39 22.5t2 45.5l63 116q6 10 -1 18.5t-17 8.5h-14q-16 0 -28.5 12.5t-12.5 28.5v125z" />
<glyph unicode="&#x163;" horiz-adv-x="737" d="M10 870v103q0 16 12.5 28.5t28.5 12.5h144q20 0 20 20v318q0 16 12.5 28.5t28.5 12.5h102q16 0 28.5 -12.5t12.5 -28.5v-318q0 -20 21 -20h235q16 0 28.5 -12.5t12.5 -28.5v-103q0 -16 -12 -28.5t-29 -12.5h-235q-20 0 -21 -20v-481q0 -68 35 -109t129 -41h113 q16 0 28.5 -12t12.5 -29v-96q0 -16 -12.5 -28.5t-28.5 -12.5h-113q-160 0 -254 76t-94 252v481q0 20 -20 20h-144q-16 0 -28.5 12.5t-12.5 28.5zM336 -133q0 16 12 28.5t29 12.5h143q16 0 28.5 -12.5t12.5 -28.5v-125q0 -41 -11 -70.5t-30 -56.5l-65 -94q-6 -10 -18.5 -20.5 t-35.5 -10.5h-18q-29 0 -39 22.5t2 45.5l64 116q6 10 -1.5 18.5t-17.5 8.5h-14q-16 0 -28.5 12.5t-12.5 28.5v125z" />
<glyph unicode="&#x164;" horiz-adv-x="868" d="M4 1280v113q0 16 12.5 28.5t28.5 12.5h778q16 0 28.5 -12.5t12.5 -28.5v-113q0 -16 -12 -28.5t-29 -12.5h-270q-20 0 -21 -20v-1178q0 -16 -12 -28.5t-28 -12.5h-113q-16 0 -28.5 12.5t-12.5 28.5v1178q0 20 -21 20h-272q-16 0 -28.5 12.5t-12.5 28.5zM107 1816.5 q6 16.5 26 16.5h121q23 0 38 -11.5t25 -21.5l103 -100q14 -14 29 0l104 100q10 10 25.5 21.5t37.5 11.5h121q20 0 26.5 -16.5t-3.5 -26.5l-221 -229q-10 -10 -21.5 -17.5t-38.5 -7.5h-86q-29 0 -40 7t-21 18l-221 229q-10 10 -4 26.5z" />
<glyph unicode="&#x165;" horiz-adv-x="1005" d="M10 870v103q0 16 12.5 28.5t28.5 12.5h144q20 0 20 20v318q0 16 12.5 28.5t28.5 12.5h102q16 0 28.5 -12.5t12.5 -28.5v-318q0 -20 21 -20h235q16 0 28.5 -12.5t12.5 -28.5v-103q0 -16 -12 -28.5t-29 -12.5h-235q-20 0 -21 -20v-481q0 -68 35 -109t129 -41h113 q16 0 28.5 -12t12.5 -29v-96q0 -16 -12.5 -28.5t-28.5 -12.5h-113q-160 0 -254 76t-94 252v481q0 20 -20 20h-144q-16 0 -28.5 12.5t-12.5 28.5zM743 1270v125q0 16 12.5 28.5t28.5 12.5h144q16 0 28.5 -12.5t12.5 -28.5v-125q0 -41 -11.5 -71t-29.5 -56l-66 -94 q-6 -10 -18.5 -20.5t-34.5 -10.5h-18q-29 0 -39.5 22.5t2.5 44.5l63 117q6 10 -1 18.5t-17 8.5h-15q-16 0 -28.5 12t-12.5 29z" />
<glyph unicode="&#x166;" horiz-adv-x="868" d="M4 1280v113q0 16 12.5 28.5t28.5 12.5h778q16 0 28.5 -12.5t12.5 -28.5v-113q0 -16 -12 -28.5t-29 -12.5h-270q-20 0 -21 -20v-175q0 -20 21 -20h229q16 0 28.5 -12.5t12.5 -28.5v-102q0 -16 -12 -28.5t-29 -12.5h-229q-20 0 -21 -21v-778q0 -16 -12 -28.5t-28 -12.5 h-113q-16 0 -28.5 12.5t-12.5 28.5v778q0 20 -21 21h-231q-16 0 -28.5 12t-12.5 29v102q0 16 12.5 28.5t28.5 12.5h231q20 0 21 20v175q0 20 -21 20h-272q-16 0 -28.5 12.5t-12.5 28.5z" />
<glyph unicode="&#x167;" horiz-adv-x="747" d="M10 870v103q0 16 12.5 28.5t28.5 12.5h144q20 0 20 20v318q0 16 12.5 28.5t28.5 12.5h102q16 0 28.5 -12.5t12.5 -28.5v-318q0 -20 21 -20h235q16 0 28.5 -12.5t12.5 -28.5v-103q0 -16 -12 -28.5t-29 -12.5h-235q-20 0 -21 -20v-141q0 -20 21 -21h225q16 0 28.5 -12 t12.5 -29v-92q0 -16 -12 -28.5t-29 -12.5h-225q-20 0 -21 -20v-125q0 -68 35 -109t129 -41h113q16 0 28.5 -12t12.5 -29v-96q0 -16 -12.5 -28.5t-28.5 -12.5h-113q-160 0 -254 76t-94 252v125q0 20 -20 20h-134q-16 0 -28.5 12.5t-12.5 28.5v92q0 16 12.5 28.5t28.5 12.5 h134q20 0 20 21v141q0 20 -20 20h-144q-16 0 -28.5 12.5t-12.5 28.5z" />
<glyph unicode="&#x168;" horiz-adv-x="1142" d="M111 410v983q0 16 12 28.5t29 12.5h112q16 0 28.5 -12.5t12.5 -28.5v-983q0 -61 22.5 -105.5t60.5 -72t86 -41t97 -13.5q57 0 106.5 17.5t85.5 49t55.5 73.5t19.5 92v983q0 16 12 28.5t29 12.5h112q16 0 28.5 -12.5t12.5 -28.5v-983q0 -92 -37 -170t-100.5 -135.5 t-147 -89t-176.5 -31.5q-98 0 -183 31.5t-146.5 89t-96 135t-34.5 170.5zM287 1585v82q0 41 42 73t103 32q49 0 81 -8.5t59.5 -17.5t60.5 -17.5t86 -8.5q39 0 60.5 13.5t33.5 29.5t31.5 8t19.5 -36v-82q0 -41 -42 -73t-103 -32q-49 0 -81 8.5t-59.5 17.5t-61.5 17t-85 8 q-35 0 -56.5 -11t-37.5 -32q-12 -14 -31.5 -7t-19.5 36z" />
<glyph unicode="&#x169;" d="M113 369v614q0 16 12 28.5t29 12.5h102q16 0 28.5 -12.5t12.5 -28.5v-614q0 -90 59.5 -147.5t165.5 -57.5q96 0 161 52t65 142v625q0 16 12 28.5t28 12.5h103q16 0 28.5 -12.5t12.5 -28.5v-942q0 -16 -12.5 -28.5t-28.5 -12.5h-90q-14 0 -29 14q-10 10 -22.5 21.5 t-28.5 11.5q-23 0 -38 -10t-36.5 -23.5t-54.5 -23.5t-90 -10q-86 0 -158 28.5t-123 80.5t-79.5 124t-28.5 156zM238 1266v82q0 41 42 72.5t103 31.5q49 0 81 -8t59.5 -17.5t60.5 -17.5t86 -8q39 0 60.5 13t33.5 30q12 16 31.5 8t19.5 -37v-82q0 -41 -42 -72.5t-103 -31.5 q-49 0 -81 8t-59.5 17.5t-61.5 17.5t-85 8q-35 0 -56.5 -11.5t-37.5 -31.5q-12 -14 -31.5 -7t-19.5 36z" />
<glyph unicode="&#x16a;" horiz-adv-x="1142" d="M111 410v983q0 16 12 28.5t29 12.5h112q16 0 28.5 -12.5t12.5 -28.5v-983q0 -61 22.5 -105.5t60.5 -72t86 -41t97 -13.5q57 0 106.5 17.5t85.5 49t55.5 73.5t19.5 92v983q0 16 12 28.5t29 12.5h112q16 0 28.5 -12.5t12.5 -28.5v-983q0 -92 -37 -170t-100.5 -135.5 t-147 -89t-176.5 -31.5q-98 0 -183 31.5t-146.5 89t-96 135t-34.5 170.5zM283 1597v78q0 16 12 28.5t29 12.5h495q16 0 28.5 -12t12.5 -29v-78q0 -16 -12 -28.5t-29 -12.5h-495q-16 0 -28.5 12.5t-12.5 28.5z" />
<glyph unicode="&#x16b;" d="M113 369v614q0 16 12 28.5t29 12.5h102q16 0 28.5 -12.5t12.5 -28.5v-614q0 -90 59.5 -147.5t165.5 -57.5q96 0 161 52t65 142v625q0 16 12 28.5t28 12.5h103q16 0 28.5 -12.5t12.5 -28.5v-942q0 -16 -12.5 -28.5t-28.5 -12.5h-90q-14 0 -29 14q-10 10 -22.5 21.5 t-28.5 11.5q-23 0 -38 -10t-36.5 -23.5t-54.5 -23.5t-90 -10q-86 0 -158 28.5t-123 80.5t-79.5 124t-28.5 156zM238 1303v77q0 16 12 28.5t29 12.5h495q16 0 28.5 -12t12.5 -29v-77q0 -16 -12 -28.5t-29 -12.5h-495q-16 0 -28.5 12t-12.5 29z" />
<glyph unicode="&#x16c;" horiz-adv-x="1142" d="M111 410v983q0 16 12 28.5t29 12.5h112q16 0 28.5 -12.5t12.5 -28.5v-983q0 -61 22.5 -105.5t60.5 -72t86 -41t97 -13.5q57 0 106.5 17.5t85.5 49t55.5 73.5t19.5 92v983q0 16 12 28.5t29 12.5h112q16 0 28.5 -12.5t12.5 -28.5v-983q0 -92 -37 -170t-100.5 -135.5 t-147 -89t-176.5 -31.5q-98 0 -183 31.5t-146.5 89t-96 135t-34.5 170.5zM289 1798q0 14 10 24.5t25 10.5h88q16 0 25 -10.5t9 -24.5q0 -47 39 -81t86 -34t85 34t38 81q0 14 9.5 24.5t25.5 10.5h88q14 0 24.5 -10.5t10.5 -24.5q0 -55 -20.5 -102t-58.5 -83t-89 -56.5 t-113 -20.5q-61 0 -113 20.5t-90 56.5t-58.5 83t-20.5 102z" />
<glyph unicode="&#x16d;" d="M113 369v614q0 16 12 28.5t29 12.5h102q16 0 28.5 -12.5t12.5 -28.5v-614q0 -90 59.5 -147.5t165.5 -57.5q96 0 161 52t65 142v625q0 16 12 28.5t28 12.5h103q16 0 28.5 -12.5t12.5 -28.5v-942q0 -16 -12.5 -28.5t-28.5 -12.5h-90q-14 0 -29 14q-10 10 -22.5 21.5 t-28.5 11.5q-23 0 -38 -10t-36.5 -23.5t-54.5 -23.5t-90 -10q-86 0 -158 28.5t-123 80.5t-79.5 124t-28.5 156zM246 1460q0 14 10 24.5t25 10.5h88q16 0 25 -10t9 -25q0 -47 39 -80.5t86 -33.5t85 33.5t38 80.5q0 14 9.5 24.5t25.5 10.5h88q14 0 24.5 -10t10.5 -25 q0 -55 -20.5 -102t-58.5 -83t-89 -56.5t-113 -20.5q-61 0 -113.5 20.5t-90 56.5t-58 83t-20.5 102z" />
<glyph unicode="&#x16e;" horiz-adv-x="1142" d="M111 410v983q0 16 12 28.5t29 12.5h112q16 0 28.5 -12.5t12.5 -28.5v-983q0 -61 22.5 -105.5t60.5 -72t86 -41t97 -13.5q57 0 106.5 17.5t85.5 49t55.5 73.5t19.5 92v983q0 16 12 28.5t29 12.5h112q16 0 28.5 -12.5t12.5 -28.5v-983q0 -92 -37 -170t-100.5 -135.5 t-147 -89t-176.5 -31.5q-98 0 -183 31.5t-146.5 89t-96 135t-34.5 170.5zM342 1720q0 47 17.5 88t48 72t71.5 48.5t88 17.5t88 -17.5t72 -48.5t48.5 -72t17.5 -88t-17.5 -88t-48.5 -71.5t-72 -48t-88 -17.5t-88 17.5t-71.5 48t-48 71.5t-17.5 88zM485 1720q0 -35 23.5 -58.5 t58.5 -23.5t58.5 24t23.5 58q0 35 -23.5 58.5t-58.5 23.5t-58.5 -23.5t-23.5 -58.5z" />
<glyph unicode="&#x16f;" d="M113 369v614q0 16 12 28.5t29 12.5h102q16 0 28.5 -12.5t12.5 -28.5v-614q0 -90 59.5 -147.5t165.5 -57.5q96 0 161 52t65 142v625q0 16 12 28.5t28 12.5h103q16 0 28.5 -12.5t12.5 -28.5v-942q0 -16 -12.5 -28.5t-28.5 -12.5h-90q-14 0 -29 14q-10 10 -22.5 21.5 t-28.5 11.5q-23 0 -38 -10t-36.5 -23.5t-54.5 -23.5t-90 -10q-86 0 -158 28.5t-123 80.5t-79.5 124t-28.5 156zM301 1372q0 47 17.5 88t48 72t71.5 48t88 17t88 -17t72 -48t48.5 -72t17.5 -88t-17.5 -88t-48.5 -71.5t-72 -48t-88 -17.5t-88 17.5t-71.5 48t-48 71.5t-17.5 88 zM444 1372q0 -35 24 -58.5t58 -23.5q35 0 58.5 23.5t23.5 58.5t-23.5 58.5t-58.5 23.5t-58.5 -23.5t-23.5 -58.5z" />
<glyph unicode="&#x170;" horiz-adv-x="1142" d="M111 410v983q0 16 12 28.5t29 12.5h112q16 0 28.5 -12.5t12.5 -28.5v-983q0 -61 22.5 -105.5t60.5 -72t86 -41t97 -13.5q57 0 106.5 17.5t85.5 49t55.5 73.5t19.5 92v983q0 16 12 28.5t29 12.5h112q16 0 28.5 -12.5t12.5 -28.5v-983q0 -92 -37 -170t-100.5 -135.5 t-147 -89t-176.5 -31.5q-98 0 -183 31.5t-146.5 89t-96 135t-34.5 170.5zM270 1577l156 223q8 10 19.5 21.5t33.5 11.5h162q20 0 26.5 -16.5t-3.5 -26.5l-222 -229q-10 -10 -21 -17.5t-40 -7.5h-82q-20 0 -28.5 15.5t-0.5 25.5zM618 1577l156 223q8 10 19.5 21.5t33.5 11.5 h162q20 0 26.5 -16.5t-3.5 -26.5l-221 -229q-10 -10 -21.5 -17.5t-40.5 -7.5h-82q-20 0 -28.5 15.5t-0.5 25.5z" />
<glyph unicode="&#x171;" d="M113 369v614q0 16 12 28.5t29 12.5h102q16 0 28.5 -12.5t12.5 -28.5v-614q0 -90 59.5 -147.5t165.5 -57.5q96 0 161 52t65 142v625q0 16 12 28.5t28 12.5h103q16 0 28.5 -12.5t12.5 -28.5v-942q0 -16 -12.5 -28.5t-28.5 -12.5h-90q-14 0 -29 14q-10 10 -22.5 21.5 t-28.5 11.5q-23 0 -38 -10t-36.5 -23.5t-54.5 -23.5t-90 -10q-86 0 -158 28.5t-123 80.5t-79.5 124t-28.5 156zM217 1239l156 223q8 10 19 21.5t34 11.5h162q20 0 26.5 -16.5t-4.5 -26.5l-221 -229q-10 -10 -21.5 -17.5t-39.5 -7.5h-82q-20 0 -28.5 15.5t-0.5 25.5z M565 1239l156 223q8 10 19.5 21.5t33.5 11.5h162q20 0 26.5 -16.5t-4.5 -26.5l-221 -229q-10 -10 -21 -17.5t-40 -7.5h-82q-20 0 -28.5 15.5t-0.5 25.5z" />
<glyph unicode="&#x172;" horiz-adv-x="1142" d="M111 410v983q0 16 12 28.5t29 12.5h112q16 0 28.5 -12.5t12.5 -28.5v-983q0 -61 22.5 -105.5t60.5 -72t86 -41t97 -13.5q57 0 106.5 17.5t85.5 49t55.5 73.5t19.5 92v983q0 16 12 28.5t29 12.5h112q16 0 28.5 -12.5t12.5 -28.5v-983q0 -92 -37 -170t-96 -131t-107.5 -118 t-48.5 -132q0 -135 166 -135q16 0 28.5 -12.5t12.5 -28.5v-72q0 -16 -12 -28.5t-29 -12.5q-158 0 -247 69.5t-89 208.5q0 29 12.5 67t30.5 71q-8 -2 -22 -2h-23q-98 0 -183 31.5t-146.5 89t-96 135t-34.5 170.5z" />
<glyph unicode="&#x173;" d="M113 369v614q0 16 12 28.5t29 12.5h102q16 0 28.5 -12.5t12.5 -28.5v-614q0 -90 59.5 -147.5t165.5 -57.5q96 0 161 52t65 142v625q0 16 12 28.5t28 12.5h103q16 0 28.5 -12.5t12.5 -28.5v-942q0 -16 -12.5 -28.5t-28.5 -12.5h-14q-68 -4 -110 -40t-42 -101 q0 -135 156 -135q16 0 28.5 -12.5t12.5 -28.5v-72q0 -16 -12.5 -28.5t-28.5 -12.5q-143 0 -234.5 69.5t-91.5 208.5q0 35 18.5 78t42.5 72q-20 -8 -46.5 -13t-67.5 -5q-86 0 -158 28.5t-123 80.5t-79.5 124t-28.5 156z" />
<glyph unicode="&#x174;" horiz-adv-x="1472" d="M12 1393q-4 16 6.5 28.5t34.5 12.5h111q33 0 39 -31l200 -1051q2 -12 13 -12h4q8 0 12 12l176 1051q6 31 39 31h144q33 0 38 -31l193 -1051q2 -12 12 -12h4q8 0 13 12l219 1051q6 31 39 31h110q25 0 35 -12.5t6 -28.5l-291 -1362q-6 -31 -39 -31h-174q-33 0 -38 31 l-189 1022q-2 8 -8 8t-8 -8l-176 -1022q-6 -31 -39 -31h-174q-33 0 -39 31zM407.5 1552.5q-6.5 16.5 4.5 26.5l221 229q10 10 21.5 17.5t39.5 7.5h86q27 0 38 -7t22 -18l221 -229q10 -10 4 -26.5t-27 -16.5h-120q-23 0 -38.5 11.5t-25.5 21.5l-104 100q-14 14 -29 0 l-103 -100q-10 -10 -25 -21.5t-38 -11.5h-121q-20 0 -26.5 16.5z" />
<glyph unicode="&#x175;" horiz-adv-x="1368" d="M33 977q-4 16 5 31.5t34 15.5h116q31 0 39 -31l158 -663q4 -12 13.5 -12.5t13.5 12.5l180 663q8 31 39 31h106q31 0 39 -31l180 -663q4 -12 13.5 -12.5t13.5 12.5l158 663q8 31 39 31h116q25 0 34 -15.5t5 -31.5l-266 -946q-10 -31 -39 -31h-112q-31 0 -39 31l-187 676 q-2 6 -8 6t-8 -6l-187 -676q-10 -31 -38 -31h-113q-31 0 -39 31zM354.5 1214.5q-6.5 16.5 3.5 26.5l222 229q10 10 21 17.5t40 7.5h86q27 0 38 -7t21 -18l222 -229q10 -10 4 -26.5t-27 -16.5h-121q-23 0 -38 11.5t-25 21.5l-105 100q-14 14 -28 0l-103 -100 q-10 -10 -25.5 -21.5t-37.5 -11.5h-121q-20 0 -26.5 16.5z" />
<glyph unicode="&#x176;" horiz-adv-x="937" d="M25 1376q-10 23 1 40.5t31 17.5h136q29 0 38 -31l232 -637q8 -20 16 0l228 637q10 31 38 31h136q20 0 31.5 -17.5t0.5 -40.5l-344 -882v-453q0 -16 -12 -28.5t-29 -12.5h-114q-16 0 -28.5 12.5t-12.5 28.5v451zM141.5 1552.5q-6.5 16.5 3.5 26.5l222 229q10 10 21 17.5 t40 7.5h86q27 0 38 -7t21 -18l222 -229q10 -10 4 -26.5t-27 -16.5h-121q-23 0 -38 11.5t-25 21.5l-105 100q-14 14 -28 0l-103 -100q-10 -10 -25.5 -21.5t-37.5 -11.5h-121q-20 0 -26.5 16.5z" />
<glyph unicode="&#x177;" horiz-adv-x="946" d="M14 977q-6 16 4.5 31.5t34.5 15.5h125q29 0 39 -31l252 -665q8 -20 16 0l238 665q10 31 39 31h121q25 0 35 -15.5t4 -31.5l-521 -1356q-10 -31 -39 -31h-110q-25 0 -35 15.5t-4 32.5l152 417q6 16 2 27zM145.5 1214.5q-6.5 16.5 4.5 26.5l221 229q10 10 21 17.5t40 7.5 h86q27 0 38 -7t22 -18l221 -229q10 -10 4 -26.5t-27 -16.5h-121q-23 0 -38 11.5t-25 21.5l-105 100q-14 14 -28 0l-103 -100q-10 -10 -25.5 -21.5t-37.5 -11.5h-121q-20 0 -26.5 16.5z" />
<glyph unicode="&#x178;" horiz-adv-x="937" d="M25 1376q-10 23 1 40.5t31 17.5h136q29 0 38 -31l232 -637q8 -20 16 0l228 637q10 31 38 31h136q20 0 31.5 -17.5t0.5 -40.5l-344 -882v-453q0 -16 -12 -28.5t-29 -12.5h-114q-16 0 -28.5 12.5t-12.5 28.5v451zM190 1569v141q0 12 9.5 22.5t23.5 10.5h139 q14 0 23.5 -10.5t9.5 -22.5v-141q0 -33 -33 -33h-139q-33 0 -33 33zM541 1569v141q0 12 9 22.5t23 10.5h140q14 0 23 -10.5t9 -22.5v-141q0 -33 -32 -33h-140q-33 0 -32 33z" />
<glyph unicode="&#x179;" horiz-adv-x="983" d="M70 41v154q0 16 10 32l602 998q4 8 1 14t-13 6h-539q-16 0 -28.5 12.5t-12.5 28.5v107q0 16 12.5 28.5t28.5 12.5h721q16 0 28.5 -12.5t12.5 -28.5v-148q0 -16 -10 -33l-594 -1001q-4 -8 -1 -14.5t13 -6.5h571q16 0 28.5 -12t12.5 -28v-109q0 -16 -12 -28.5t-29 -12.5 h-761q-16 0 -28.5 12.5t-12.5 28.5zM354 1577l156 223q8 10 19.5 21.5t33.5 11.5h162q20 0 26.5 -16.5t-3.5 -26.5l-222 -229q-10 -10 -21 -17.5t-40 -7.5h-82q-20 0 -28.5 15.5t-0.5 25.5z" />
<glyph unicode="&#x17a;" horiz-adv-x="942" d="M61 41v121q0 20 4.5 30.5t22.5 32.5l539 602q6 8 3 14.5t-14 6.5h-493q-16 0 -28.5 12t-12.5 29v94q0 16 12 28.5t29 12.5h696q16 0 28.5 -12.5t12.5 -28.5v-117q0 -29 -13 -48t-28 -36l-516 -585q-6 -8 -3 -14.5t13 -6.5h527q16 0 28.5 -12t12.5 -29v-94 q0 -16 -12.5 -28.5t-28.5 -12.5h-738q-16 0 -28.5 12.5t-12.5 28.5zM334 1213.5q-8 15.5 0 25.5l155 223q8 10 19.5 21.5t34.5 11.5h162q20 0 26 -16.5t-4 -26.5l-221 -229q-10 -10 -21.5 -17.5t-40.5 -7.5h-82q-20 0 -28 15.5z" />
<glyph unicode="&#x17b;" horiz-adv-x="983" d="M70 41v154q0 16 10 32l602 998q4 8 1 14t-13 6h-539q-16 0 -28.5 12.5t-12.5 28.5v107q0 16 12.5 28.5t28.5 12.5h721q16 0 28.5 -12.5t12.5 -28.5v-148q0 -16 -10 -33l-594 -1001q-4 -8 -1 -14.5t13 -6.5h571q16 0 28.5 -12t12.5 -28v-109q0 -16 -12 -28.5t-29 -12.5 h-761q-16 0 -28.5 12.5t-12.5 28.5zM389 1569v141q0 12 9.5 22.5t23.5 10.5h139q14 0 23.5 -10.5t9.5 -22.5v-141q0 -33 -33 -33h-139q-33 0 -33 33z" />
<glyph unicode="&#x17c;" horiz-adv-x="942" d="M61 41v121q0 20 4.5 30.5t22.5 32.5l539 602q6 8 3 14.5t-14 6.5h-493q-16 0 -28.5 12t-12.5 29v94q0 16 12 28.5t29 12.5h696q16 0 28.5 -12.5t12.5 -28.5v-117q0 -29 -13 -48t-28 -36l-516 -585q-6 -8 -3 -14.5t13 -6.5h527q16 0 28.5 -12t12.5 -29v-94 q0 -16 -12.5 -28.5t-28.5 -12.5h-738q-16 0 -28.5 12.5t-12.5 28.5zM369 1274v141q0 12 9 22.5t23 10.5h140q14 0 23 -10.5t9 -22.5v-141q0 -33 -32 -33h-140q-33 0 -32 33z" />
<glyph unicode="&#x17d;" horiz-adv-x="983" d="M70 41v154q0 16 10 32l602 998q4 8 1 14t-13 6h-539q-16 0 -28.5 12.5t-12.5 28.5v107q0 16 12.5 28.5t28.5 12.5h721q16 0 28.5 -12.5t12.5 -28.5v-148q0 -16 -10 -33l-594 -1001q-4 -8 -1 -14.5t13 -6.5h571q16 0 28.5 -12t12.5 -28v-109q0 -16 -12 -28.5t-29 -12.5 h-761q-16 0 -28.5 12.5t-12.5 28.5zM162 1816.5q6 16.5 26 16.5h121q23 0 38 -11.5t26 -21.5l102 -100q14 -14 29 0l104 100q10 10 25.5 21.5t38.5 11.5h121q20 0 26 -16.5t-4 -26.5l-221 -229q-10 -10 -21.5 -17.5t-37.5 -7.5h-86q-29 0 -40.5 7t-21.5 18l-221 229 q-10 10 -4 26.5z" />
<glyph unicode="&#x17e;" horiz-adv-x="942" d="M61 41v121q0 20 4.5 30.5t22.5 32.5l539 602q6 8 3 14.5t-14 6.5h-493q-16 0 -28.5 12t-12.5 29v94q0 16 12 28.5t29 12.5h696q16 0 28.5 -12.5t12.5 -28.5v-117q0 -29 -13 -48t-28 -36l-516 -585q-6 -8 -3 -14.5t13 -6.5h527q16 0 28.5 -12t12.5 -29v-94 q0 -16 -12.5 -28.5t-28.5 -12.5h-738q-16 0 -28.5 12.5t-12.5 28.5zM141 1478.5q6 16.5 27 16.5h121q23 0 38 -11t25 -22l103 -100q14 -14 28 0l105 100q10 10 25.5 21.5t37.5 11.5h121q20 0 26.5 -16.5t-3.5 -26.5l-222 -229q-10 -10 -21 -17.5t-38 -7.5h-86q-29 0 -40 7 t-21 18l-222 229q-10 10 -4 26.5z" />
<glyph unicode="&#x17f;" horiz-adv-x="700" d="M10 870v103q0 16 12.5 28.5t28.5 12.5h154q20 0 20 20v31q0 80 29 150.5t80 122t120.5 81t149.5 29.5h21q16 0 28.5 -12.5t12.5 -28.5v-96q0 -16 -12.5 -28.5t-28.5 -12.5h-21q-41 0 -76.5 -17.5t-61.5 -46t-41 -65.5t-15 -76v-1024q0 -16 -12.5 -28.5t-28.5 -12.5h-103 q-16 0 -28.5 12.5t-12.5 28.5v768q0 20 -20 20h-154q-16 0 -28.5 12.5t-12.5 28.5z" />
<glyph unicode="&#x192;" horiz-adv-x="700" d="M31 870v103q0 16 12 28.5t29 12.5h133q20 0 20 20v31q0 96 29 168t80 120t120.5 71.5t149.5 23.5h21q16 0 28.5 -12.5t12.5 -28.5v-96q0 -16 -12.5 -28.5t-28.5 -12.5h-21q-82 0 -138 -48t-56 -157v-31q0 -20 20 -20h168q16 0 28.5 -12.5t12.5 -28.5v-103 q0 -16 -12.5 -28.5t-28.5 -12.5h-168q-20 0 -20 -20v-870q0 -84 -12.5 -149.5t-46.5 -110t-91 -67t-145 -22.5h-23q-16 0 -28.5 12.5t-12.5 28.5v103q0 16 11.5 28.5t27.5 12.5h29q66 0 86 43t20 121v870q0 20 -20 20h-133q-16 0 -28.5 12.5t-12.5 28.5z" />
<glyph unicode="&#x1fa;" horiz-adv-x="999" d="M8 41l381 1362q6 31 39 31h143q33 0 39 -31l381 -1362q4 -14 -6 -27.5t-35 -13.5h-112q-29 0 -39 31l-90 313q-6 29 -39 29h-340q-29 0 -39 -29l-90 -313q-10 -31 -39 -31h-113q-25 0 -35 13.5t-6 27.5zM274 1720q0 78 47.5 138.5t118.5 78.5l148 211q8 10 19 21.5 t34 11.5h162q20 0 26.5 -16.5t-4.5 -26.5l-215 -223q51 -29 83 -80t32 -115q0 -47 -17.5 -88t-48 -71.5t-71.5 -48t-88 -17.5t-88 17.5t-72 48t-48.5 71.5t-17.5 88zM356 586q-6 -23 17 -23h254q23 0 16 23l-133 571q-4 12 -8 12h-4q-6 0 -9 -12zM418 1720q0 -35 23.5 -58.5 t58.5 -23.5t58.5 24t23.5 58q0 35 -23.5 58.5t-58.5 23.5t-58.5 -23.5t-23.5 -58.5z" />
<glyph unicode="&#x1fb;" horiz-adv-x="997" d="M88 307q0 63 22.5 119.5t65.5 99.5t106.5 67.5t143.5 24.5h250q20 0 20 21v78q0 84 -52 124t-138 40q-27 0 -59.5 -6.5t-62.5 -21.5t-49.5 -40t-19.5 -61q0 -27 -16 -31t-31 -4h-92q-41 0 -41 41q0 72 34 125t87 89t118.5 54t131.5 18q174 0 274.5 -77.5t100.5 -249.5 v-676q0 -16 -12.5 -28.5t-28.5 -12.5h-70q-16 0 -29 14q-10 12 -17 27.5t-24 15.5q-14 0 -31.5 -12t-45 -26.5t-66.5 -26.5t-96 -12q-94 0 -165 26.5t-117 71.5t-68.5 104.5t-22.5 124.5zM272 309q0 -76 46.5 -117.5t136.5 -41.5q141 0 199.5 55t58.5 160v65q0 20 -21 21 h-266q-78 0 -116 -38t-38 -104zM274 1372q0 78 47.5 138.5t118.5 78.5l148 211q8 10 19 21.5t34 11.5h162q20 0 26.5 -16.5t-4.5 -26.5l-215 -223q51 -29 83 -80t32 -115q0 -47 -17.5 -88t-48 -71.5t-71.5 -48t-88 -17.5t-88 17.5t-72 48t-48.5 71.5t-17.5 88zM418 1372 q0 -35 23.5 -58.5t58.5 -23.5t58.5 23.5t23.5 58.5t-23.5 58.5t-58.5 23.5t-58.5 -23.5t-23.5 -58.5z" />
<glyph unicode="&#x1fc;" horiz-adv-x="1480" d="M8 41l375 1339q4 14 20.5 34t49.5 20h901q16 0 28.5 -12.5t12.5 -28.5v-113q0 -16 -12.5 -28.5t-28.5 -12.5h-488q-20 0 -20 -20v-369q0 -20 20 -21h465q16 0 28.5 -12t12.5 -29v-112q0 -16 -12 -28.5t-29 -12.5h-465q-20 0 -20 -21v-399q0 -20 20 -20h492 q16 0 28.5 -12.5t12.5 -28.5v-113q0 -16 -12.5 -28.5t-28.5 -12.5h-666q-16 0 -28.5 12.5t-12.5 28.5v299q0 33 -39 33h-282q-33 0 -39 -29l-90 -313q-6 -31 -39 -31h-113q-25 0 -35 13.5t-6 27.5zM356 586q-6 -23 17 -23h258q20 0 20 23v633q0 20 -20 20h-88 q-14 0 -19.5 -7t-7.5 -13zM686 1577l156 223q8 10 19 21.5t34 11.5h162q20 0 26.5 -16.5t-4.5 -26.5l-221 -229q-10 -10 -21.5 -17.5t-39.5 -7.5h-82q-20 0 -28.5 15.5t-0.5 25.5z" />
<glyph unicode="&#x1fd;" horiz-adv-x="1626" d="M88 307q0 63 22.5 119.5t65.5 98.5t106.5 66.5t143.5 24.5h260q20 0 21 21v70q0 88 -59.5 131t-137.5 43q-25 0 -58.5 -5.5t-64.5 -19.5t-51.5 -39.5t-20.5 -64.5q0 -27 -16 -31t-31 -4h-92q-41 0 -41 41q0 72 34 125t88 89t120.5 54t132.5 18q94 0 171 -38.5t112 -81.5 q10 -14 28.5 -14t32.5 14q47 51 118.5 85.5t157.5 34.5t161 -32.5t130.5 -88t87 -130t31.5 -158.5v-141q-2 -16 -13 -28.5t-28 -12.5h-586q-20 0 -20 -21q0 -141 65.5 -204.5t171.5 -63.5q80 0 136.5 36t74.5 93q6 20 19.5 27.5t28.5 7.5h104q16 0 27.5 -9.5t7.5 -31.5 q-10 -68 -43 -124.5t-85 -97t-121 -63t-149 -22.5q-90 0 -161.5 27.5t-124.5 76.5q-39 33 -78 -2q-49 -41 -125 -71.5t-180 -30.5q-94 0 -165 26.5t-117 71.5t-68.5 104.5t-22.5 124.5zM272 309q0 -76 46.5 -117.5t136.5 -41.5q141 0 204.5 55t63.5 160v67q0 20 -21 21h-276 q-78 0 -116 -39t-38 -105zM737 1239l156 223q8 10 19.5 21.5t33.5 11.5h162q20 0 26.5 -16.5t-4.5 -26.5l-221 -229q-10 -10 -21 -17.5t-40 -7.5h-82q-20 0 -28.5 15.5t-0.5 25.5zM897 637q0 -20 21 -21h425q20 0 21 21q0 106 -67.5 164.5t-163.5 58.5q-106 0 -171 -64.5 t-65 -158.5z" />
<glyph unicode="&#x1fe;" horiz-adv-x="1138" d="M75 17.5q-14 17.5 1 39.5l84 136q10 16 7 24t-7 12q-18 41 -31.5 85t-19.5 96q-8 61 -12.5 142t-4.5 166t4 165t13 141q10 84 44.5 161t93 136t139.5 94t183 35q160 0 275 -84q4 -4 9 -5t13 9l23 33q10 16 17 23.5t22 7.5h106q20 0 32.5 -18.5t0.5 -39.5l-92 -145 q-6 -10 -4 -14.5t4 -8.5q39 -80 55 -184q8 -61 11 -142t3 -165t-4 -165t-10 -142q-10 -84 -45 -162t-93 -136.5t-140 -93t-183 -34.5q-158 0 -270 79l-9 4.5t-14 -8.5l-18 -28q-18 -31 -43 -31h-106q-20 0 -34 17.5zM288 747.5q-1 -75.5 1 -150.5t8 -138q0 -10 5 -15.5 t15 11.5q139 229 242 401t189 315q8 12 5 17.5t-8 7.5q-33 27 -77 43t-99 16q-100 0 -176 -59t-90 -172q-6 -57 -10 -129t-5 -147.5zM396 238.5q5 -7.5 10 -11.5q66 -49 163 -49q104 0 177.5 60.5t89.5 171.5q8 57 12 127.5t5 146.5t-2 150.5t-9 138.5q0 4 -5.5 8t-13.5 -8 l-422 -711q-10 -16 -5 -23.5zM471 1577l156 223q8 10 19 21.5t34 11.5h162q20 0 26 -16.5t-4 -26.5l-221 -229q-10 -10 -21.5 -17.5t-39.5 -7.5h-82q-20 0 -28.5 15.5t-0.5 25.5z" />
<glyph unicode="&#x1ff;" horiz-adv-x="1024" d="M28.5 22.5q-12.5 22.5 4.5 43.5l100 118q8 10 6 14.5t-4 8.5q-37 74 -43 162q-4 61 -4 143t4 143q6 80 38 152t86 124t129 82.5t167 30.5q145 0 248 -73q4 -2 7 -4t11 6l19 20q25 31 49 31h96q20 0 32.5 -21.5t-3.5 -39.5l-86 -105q-8 -10 -6 -17t4 -12q16 -41 30.5 -84 t18.5 -90q4 -61 4 -143t-4 -143q-6 -80 -38 -152t-86 -124t-129 -82.5t-167 -30.5q-78 0 -143.5 21.5t-116.5 59.5q-4 2 -8 5.5t-11 -7.5l-22 -28q-10 -14 -20.5 -22.5t-30.5 -8.5h-99q-20 0 -32.5 22.5zM272 520q0 -76 4 -139q0 -4 4.5 -7t10.5 3l352 430q4 6 3 12t-5 8 q-59 33 -129 33q-106 0 -167.5 -61.5t-68.5 -143.5q-4 -59 -4 -135zM366 213q1 -6 5 -8q57 -41 141 -41q106 0 167.5 61.5t68.5 143.5q4 63 6 143t-6 143q0 6 -5.5 13.5t-13.5 -2.5l-360 -441q-4 -6 -3 -12zM395 1239l156 223q8 10 19.5 21.5t33.5 11.5h162q20 0 26.5 -16.5 t-4.5 -26.5l-221 -229q-10 -10 -21 -17.5t-40 -7.5h-82q-20 0 -28.5 15.5t-0.5 25.5z" />
<glyph unicode="&#x218;" horiz-adv-x="1044" d="M61 410v32q0 16 12.5 28.5t28.5 12.5h115q16 0 28.5 -12t12.5 -29v-32q0 -49 19.5 -92.5t55.5 -74t84 -48t105 -17.5t105.5 17.5t84.5 49t55 74t19 91.5q0 72 -24.5 114.5t-69.5 70.5t-108.5 44t-141.5 35q-76 16 -138 48t-107 80t-71 113.5t-26 149.5q0 92 36 163.5 t95.5 121t135 75t155.5 25.5q90 0 167 -30.5t133.5 -83t88 -122t31.5 -149.5v-27q0 -16 -12 -28.5t-29 -12.5h-113q-16 0 -28 12.5t-12 28.5v27q0 51 -20.5 87t-53.5 59.5t-73 33.5t-79 10q-100 0 -162.5 -51t-62.5 -139q0 -68 29.5 -107.5t74.5 -63.5t99.5 -36t103.5 -24 q174 -43 276.5 -145.5t102.5 -278.5q0 -98 -39 -177t-102.5 -134.5t-147.5 -85t-172 -29.5q-98 0 -183 33.5t-146.5 92t-96.5 135.5t-35 165zM426 -133q0 16 12.5 28.5t28.5 12.5h143q16 0 28.5 -12.5t12.5 -28.5v-125q0 -41 -11 -70.5t-30 -56.5l-65 -94 q-6 -10 -18.5 -20.5t-34.5 -10.5h-19q-29 0 -39 22.5t2 45.5l64 116q6 10 -1 18.5t-18 8.5h-14q-16 0 -28.5 12.5t-12.5 28.5v125z" />
<glyph unicode="&#x219;" horiz-adv-x="940" d="M66 307v27q0 16 12 28.5t28 12.5h103q16 0 28.5 -12.5t12.5 -28.5v-27q0 -47 21.5 -75.5t54 -46t71.5 -23.5t74 -6q41 0 81 6t70.5 23.5t49 46t18.5 75.5q0 31 -17.5 52.5t-47 36t-69.5 23.5t-85 19q-63 12 -129 29.5t-120 51.5t-88 88.5t-34 140.5q0 70 32 124t84 93 t118.5 59t136.5 20q72 0 139.5 -20t119.5 -60t84 -96.5t32 -130.5q0 -16 -12.5 -28.5t-28.5 -12.5h-103q-16 0 -28 12.5t-12 28.5q0 53 -44.5 93t-146.5 40q-96 0 -138 -38.5t-42 -83.5q0 -59 52 -85t128 -40q63 -12 135 -27.5t131.5 -48.5t98 -89.5t38.5 -150.5 q0 -82 -32.5 -143.5t-89 -102.5t-129 -61t-152.5 -20q-78 0 -150.5 19t-129 59t-91 102.5t-34.5 146.5zM360 -133q0 16 12.5 28.5t28.5 12.5h144q16 0 28.5 -12.5t12.5 -28.5v-125q0 -41 -11.5 -70.5t-29.5 -56.5l-66 -94q-6 -10 -18 -20.5t-35 -10.5h-18q-29 0 -39.5 22.5 t2.5 45.5l63 116q6 10 -1 18.5t-17 8.5h-15q-16 0 -28.5 12.5t-12.5 28.5v125z" />
<glyph unicode="&#x21a;" horiz-adv-x="868" d="M4 1280v113q0 16 12.5 28.5t28.5 12.5h778q16 0 28.5 -12.5t12.5 -28.5v-113q0 -16 -12 -28.5t-29 -12.5h-270q-20 0 -21 -20v-1178q0 -16 -12 -28.5t-28 -12.5h-113q-16 0 -28.5 12.5t-12.5 28.5v1178q0 20 -21 20h-272q-16 0 -28.5 12.5t-12.5 28.5zM324 -133 q0 16 12 28.5t29 12.5h143q16 0 28.5 -12.5t12.5 -28.5v-125q0 -41 -11.5 -70.5t-29.5 -56.5l-66 -94q-6 -10 -18 -20.5t-35 -10.5h-18q-29 0 -39 22.5t2 45.5l63 116q6 10 -1 18.5t-17 8.5h-14q-16 0 -28.5 12.5t-12.5 28.5v125z" />
<glyph unicode="&#x21b;" horiz-adv-x="737" d="M10 870v103q0 16 12.5 28.5t28.5 12.5h144q20 0 20 20v318q0 16 12.5 28.5t28.5 12.5h102q16 0 28.5 -12.5t12.5 -28.5v-318q0 -20 21 -20h235q16 0 28.5 -12.5t12.5 -28.5v-103q0 -16 -12 -28.5t-29 -12.5h-235q-20 0 -21 -20v-481q0 -68 35 -109t129 -41h113 q16 0 28.5 -12t12.5 -29v-96q0 -16 -12.5 -28.5t-28.5 -12.5h-113q-160 0 -254 76t-94 252v481q0 20 -20 20h-144q-16 0 -28.5 12.5t-12.5 28.5zM336 -133q0 16 12 28.5t29 12.5h143q16 0 28.5 -12.5t12.5 -28.5v-125q0 -41 -11 -70.5t-30 -56.5l-65 -94q-6 -10 -18.5 -20.5 t-35.5 -10.5h-18q-29 0 -39 22.5t2 45.5l64 116q6 10 -1.5 18.5t-17.5 8.5h-14q-16 0 -28.5 12.5t-12.5 28.5v125z" />
<glyph unicode="&#x2bc;" horiz-adv-x="423" d="M90 923.5q-10 22.5 2 45.5l94 172q6 10 -1 18t-17 8h-35q-16 0 -28.5 12.5t-12.5 28.5v185q0 16 12.5 28.5t28.5 12.5h184q16 0 28.5 -12.5t12.5 -28.5v-185q0 -41 -11 -70.5t-30 -56.5l-106 -149q-6 -10 -18.5 -20.5t-34.5 -10.5h-29q-29 0 -39 22.5z" />
<glyph unicode="&#x2c6;" horiz-adv-x="1044" d="M194.5 1214.5q-6.5 16.5 4.5 26.5l221 229q10 10 21.5 17.5t39.5 7.5h86q27 0 38 -7t22 -18l221 -229q10 -10 4 -26.5t-27 -16.5h-120q-23 0 -38.5 11.5t-25.5 21.5l-104 100q-14 14 -29 0l-102 -100q-10 -10 -25.5 -21.5t-38.5 -11.5h-121q-20 0 -26.5 16.5z" />
<glyph unicode="&#x2c7;" horiz-adv-x="921" d="M133 1478.5q6 16.5 27 16.5h121q23 0 38 -11t25 -22l102 -100q14 -14 29 0l105 100q10 10 25.5 21.5t37.5 11.5h121q20 0 26.5 -16.5t-4.5 -26.5l-221 -229q-10 -10 -21.5 -17.5t-37.5 -7.5h-86q-29 0 -40 7t-22 18l-221 229q-10 10 -4 26.5z" />
<glyph unicode="&#x2d8;" horiz-adv-x="974" d="M197 1460q0 14 10 24.5t24 10.5h88q16 0 25.5 -10t9.5 -25q0 -47 39 -80.5t86 -33.5t85 33.5t38 80.5q0 14 9.5 24.5t25.5 10.5h88q14 0 24.5 -10t10.5 -25q0 -55 -20.5 -102t-58.5 -83t-89 -56.5t-113 -20.5q-61 0 -113.5 20.5t-90 56.5t-58 83t-20.5 102z" />
<glyph unicode="&#x2d9;" horiz-adv-x="477" d="M133 1274v141q0 12 9.5 22.5t23.5 10.5h139q14 0 23.5 -10.5t9.5 -22.5v-141q0 -33 -33 -33h-139q-33 0 -33 33z" />
<glyph unicode="&#x2da;" horiz-adv-x="1060" d="M291 1372q0 47 17.5 88t48 72t71.5 48t88 17t88 -17t72 -48t48 -72t17 -88t-17 -88t-48 -71.5t-72 -48t-88 -17.5t-88 17.5t-71.5 48t-48 71.5t-17.5 88zM434 1372q0 -35 23.5 -58.5t58.5 -23.5t58.5 23.5t23.5 58.5t-23.5 58.5t-58.5 23.5t-58.5 -23.5t-23.5 -58.5z" />
<glyph unicode="&#x2db;" horiz-adv-x="651" d="M123 -152q0 74 31.5 131.5t81 95.5t108.5 58.5t115 20.5q16 0 28.5 -12.5t12.5 -28.5v-72q0 -16 -12.5 -28.5t-28.5 -12.5q-72 0 -119 -37t-47 -104q0 -135 166 -135q16 0 28.5 -12.5t12.5 -28.5v-72q0 -16 -12.5 -28.5t-28.5 -12.5q-147 0 -241.5 69.5t-94.5 208.5z" />
<glyph unicode="&#x2dc;" horiz-adv-x="1032" d="M227 1266v82q0 41 42 72.5t104 31.5q49 0 80.5 -8t59.5 -17.5t60.5 -17.5t85.5 -8q39 0 60.5 13t34.5 30q12 16 31.5 8t19.5 -37v-82q0 -41 -42 -72.5t-104 -31.5q-49 0 -80.5 8t-59 17.5t-61.5 17.5t-85 8q-35 0 -56.5 -11.5t-37.5 -31.5q-12 -14 -32 -7t-20 36z" />
<glyph unicode="&#x2dd;" horiz-adv-x="956" d="M106 1239l156 223q8 10 19.5 21.5t33.5 11.5h162q20 0 26.5 -16.5t-3.5 -26.5l-221 -229q-10 -10 -21.5 -17.5t-40.5 -7.5h-82q-20 0 -28.5 15.5t-0.5 25.5zM454.5 1213.5q-8.5 15.5 0.5 25.5l155 223q8 10 19.5 21.5t34.5 11.5h161q20 0 26.5 -16.5t-3.5 -26.5 l-221 -229q-10 -10 -21.5 -17.5t-40.5 -7.5h-82q-20 0 -28.5 15.5z" />
<glyph unicode="&#x394;" horiz-adv-x="1384" d="M102 41v104q0 16 5.5 34t9.5 26l471 1075q12 31 39 31h131q27 0 39 -31l471 -1075q4 -8 9 -25.5t5 -34.5v-104q0 -16 -12.5 -28.5t-28.5 -12.5h-1098q-16 0 -28.5 12.5t-12.5 28.5zM309 182.5q2 -8.5 15 -8.5h737q12 0 14 8t-2 17l-366 866q-6 12 -13 12h-4q-6 0 -12 -12 l-367 -866q-4 -8 -2 -16.5z" />
<glyph unicode="&#x3a9;" horiz-adv-x="1398" d="M102 782q0 131 44 251t122 210t187.5 143.5t242.5 53.5q131 0 242 -53.5t189.5 -143.5t122.5 -210t44 -251q0 -80 -14 -163.5t-44 -160.5t-74 -142.5t-103 -106.5q-16 -10 -12 -27.5t26 -17.5h137q16 0 28.5 -12.5t12.5 -28.5v-82q0 -16 -12 -28.5t-29 -12.5h-360 q-16 0 -28.5 12.5t-12.5 28.5v121q0 14 7 41.5t44 52.5q35 23 79 67t82 110.5t64.5 153.5t26.5 193q0 94 -29.5 183.5t-84 158t-131 109.5t-171.5 41q-94 0 -170.5 -41t-130 -109.5t-83 -158t-29.5 -183.5q0 -106 26.5 -193t64.5 -153.5t82 -110.5t79 -67q37 -25 44 -52.5 t7 -41.5v-121q0 -16 -12.5 -28.5t-28.5 -12.5h-361q-16 0 -28.5 12.5t-12.5 28.5v82q0 16 12.5 28.5t28.5 12.5h138q23 0 27.5 16.5t-11.5 26.5q-59 41 -104.5 106.5t-75 143.5t-44 161.5t-14.5 163.5z" />
<glyph unicode="&#x3bc;" horiz-adv-x="1069" d="M127 -369v1352q0 16 12.5 28.5t28.5 12.5h102q16 0 28.5 -12.5t12.5 -28.5v-614q0 -90 64.5 -147.5t161.5 -57.5q96 0 160.5 52t64.5 142v625q0 16 12 28.5t29 12.5h102q16 0 28.5 -12.5t12.5 -28.5v-942q0 -16 -12 -28.5t-29 -12.5h-90q-14 0 -29 14q-10 10 -22 21.5 t-29 11.5q-23 0 -38 -10t-36.5 -23.5t-54.5 -23.5t-90 -10q-41 0 -82 17t-78 42q-14 10 -31.5 4t-17.5 -31v-381q0 -16 -12 -28.5t-29 -12.5h-98q-16 0 -28.5 12.5t-12.5 28.5z" />
<glyph unicode="&#x3c0;" horiz-adv-x="1103" d="M31 881v102q0 16 12 28.5t29 12.5h942q16 0 28.5 -12.5t12.5 -28.5v-102q0 -16 -12.5 -28.5t-28.5 -12.5h-174q-20 0 -21 -21v-430q0 -86 59.5 -145.5t145.5 -59.5q16 0 28.5 -12t12.5 -29v-102q0 -16 -12.5 -28.5t-28.5 -12.5q-80 0 -151.5 30.5t-124 83t-83 124 t-30.5 151.5v430q0 20 -17 21h-198q-20 0 -21 -21v-778q0 -16 -12 -28.5t-29 -12.5h-102q-16 0 -28.5 12.5t-12.5 28.5v778q0 20 -20 21h-123q-16 0 -28.5 12t-12.5 29z" />
<glyph unicode="&#x1e80;" horiz-adv-x="1472" d="M12 1393q-4 16 6.5 28.5t34.5 12.5h111q33 0 39 -31l200 -1051q2 -12 13 -12h4q8 0 12 12l176 1051q6 31 39 31h144q33 0 38 -31l193 -1051q2 -12 12 -12h4q8 0 13 12l219 1051q6 31 39 31h110q25 0 35 -12.5t6 -28.5l-291 -1362q-6 -31 -39 -31h-174q-33 0 -38 31 l-189 1022q-2 8 -8 8t-8 -8l-176 -1022q-6 -31 -39 -31h-174q-33 0 -39 31zM434 1816.5q6 16.5 27 16.5h162q23 0 34 -11.5t19 -21.5l155 -223q8 -10 0 -25.5t-28 -15.5h-82q-29 0 -40 7t-22 18l-221 229q-10 10 -4 26.5z" />
<glyph unicode="&#x1e81;" horiz-adv-x="1368" d="M33 977q-4 16 5 31.5t34 15.5h116q31 0 39 -31l158 -663q4 -12 13.5 -12.5t13.5 12.5l180 663q8 31 39 31h106q31 0 39 -31l180 -663q4 -12 13.5 -12.5t13.5 12.5l158 663q8 31 39 31h116q25 0 34 -15.5t5 -31.5l-266 -946q-10 -31 -39 -31h-112q-31 0 -39 31l-187 676 q-2 6 -8 6t-8 -6l-187 -676q-10 -31 -38 -31h-113q-31 0 -39 31zM402 1478.5q6 16.5 26 16.5h162q23 0 34 -11t19 -22l156 -223q8 -10 0 -25.5t-29 -15.5h-82q-29 0 -40 7t-21 18l-221 229q-10 10 -4 26.5z" />
<glyph unicode="&#x1e82;" horiz-adv-x="1472" d="M12 1393q-4 16 6.5 28.5t34.5 12.5h111q33 0 39 -31l200 -1051q2 -12 13 -12h4q8 0 12 12l176 1051q6 31 39 31h144q33 0 38 -31l193 -1051q2 -12 12 -12h4q8 0 13 12l219 1051q6 31 39 31h110q25 0 35 -12.5t6 -28.5l-291 -1362q-6 -31 -39 -31h-174q-33 0 -38 31 l-189 1022q-2 8 -8 8t-8 -8l-176 -1022q-6 -31 -39 -31h-174q-33 0 -39 31zM641 1577l156 223q8 10 19 21.5t34 11.5h162q20 0 26 -16.5t-4 -26.5l-221 -229q-10 -10 -21.5 -17.5t-39.5 -7.5h-82q-20 0 -28.5 15.5t-0.5 25.5z" />
<glyph unicode="&#x1e83;" horiz-adv-x="1368" d="M33 977q-4 16 5 31.5t34 15.5h116q31 0 39 -31l158 -663q4 -12 13.5 -12.5t13.5 12.5l180 663q8 31 39 31h106q31 0 39 -31l180 -663q4 -12 13.5 -12.5t13.5 12.5l158 663q8 31 39 31h116q25 0 34 -15.5t5 -31.5l-266 -946q-10 -31 -39 -31h-112q-31 0 -39 31l-187 676 q-2 6 -8 6t-8 -6l-187 -676q-10 -31 -38 -31h-113q-31 0 -39 31zM567 1239l156 223q8 10 19.5 21.5t33.5 11.5h162q20 0 26.5 -16.5t-3.5 -26.5l-222 -229q-10 -10 -21 -17.5t-40 -7.5h-82q-20 0 -28.5 15.5t-0.5 25.5z" />
<glyph unicode="&#x1e84;" horiz-adv-x="1472" d="M12 1393q-4 16 6.5 28.5t34.5 12.5h111q33 0 39 -31l200 -1051q2 -12 13 -12h4q8 0 12 12l176 1051q6 31 39 31h144q33 0 38 -31l193 -1051q2 -12 12 -12h4q8 0 13 12l219 1051q6 31 39 31h110q25 0 35 -12.5t6 -28.5l-291 -1362q-6 -31 -39 -31h-174q-33 0 -38 31 l-189 1022q-2 8 -8 8t-8 -8l-176 -1022q-6 -31 -39 -31h-174q-33 0 -39 31zM459 1569v141q0 12 9 22.5t24 10.5h139q14 0 23.5 -10.5t9.5 -22.5v-141q0 -33 -33 -33h-139q-33 0 -33 33zM809 1569v141q0 12 9 22.5t24 10.5h139q14 0 23.5 -10.5t9.5 -22.5v-141q0 -33 -33 -33 h-139q-33 0 -33 33z" />
<glyph unicode="&#x1e85;" horiz-adv-x="1368" d="M33 977q-4 16 5 31.5t34 15.5h116q31 0 39 -31l158 -663q4 -12 13.5 -12.5t13.5 12.5l180 663q8 31 39 31h106q31 0 39 -31l180 -663q4 -12 13.5 -12.5t13.5 12.5l158 663q8 31 39 31h116q25 0 34 -15.5t5 -31.5l-266 -946q-10 -31 -39 -31h-112q-31 0 -39 31l-187 676 q-2 6 -8 6t-8 -6l-187 -676q-10 -31 -38 -31h-113q-31 0 -39 31zM406 1274v141q0 12 9 22.5t23 10.5h140q14 0 23 -10.5t9 -22.5v-141q0 -33 -32 -33h-140q-33 0 -32 33zM756 1274v141q0 12 9 22.5t23 10.5h140q14 0 23.5 -10.5t9.5 -22.5v-141q0 -33 -33 -33h-140 q-33 0 -32 33z" />
<glyph unicode="&#x1ef2;" horiz-adv-x="937" d="M25 1376q-10 23 1 40.5t31 17.5h136q29 0 38 -31l232 -637q8 -20 16 0l228 637q10 31 38 31h136q20 0 31.5 -17.5t0.5 -40.5l-344 -882v-453q0 -16 -12 -28.5t-29 -12.5h-114q-16 0 -28.5 12.5t-12.5 28.5v451zM166 1816.5q6 16.5 27 16.5h161q23 0 34 -11.5t20 -21.5 l155 -223q8 -10 0 -25.5t-28 -15.5h-82q-29 0 -40.5 7t-21.5 18l-221 229q-10 10 -4 26.5z" />
<glyph unicode="&#x1ef3;" horiz-adv-x="946" d="M14 977q-6 16 4.5 31.5t34.5 15.5h125q29 0 39 -31l252 -665q8 -20 16 0l238 665q10 31 39 31h121q25 0 35 -15.5t4 -31.5l-521 -1356q-10 -31 -39 -31h-110q-25 0 -35 15.5t-4 32.5l152 417q6 16 2 27zM211 1478.5q6 16.5 27 16.5h161q23 0 34 -11t20 -22l155 -223 q8 -10 0 -25.5t-28 -15.5h-82q-29 0 -40.5 7t-21.5 18l-221 229q-10 10 -4 26.5z" />
<glyph unicode="&#x2000;" horiz-adv-x="1090" />
<glyph unicode="&#x2001;" horiz-adv-x="2181" />
<glyph unicode="&#x2002;" horiz-adv-x="1090" />
<glyph unicode="&#x2003;" horiz-adv-x="2181" />
<glyph unicode="&#x2004;" horiz-adv-x="727" />
<glyph unicode="&#x2005;" horiz-adv-x="545" />
<glyph unicode="&#x2006;" horiz-adv-x="363" />
<glyph unicode="&#x2007;" horiz-adv-x="363" />
<glyph unicode="&#x2008;" horiz-adv-x="272" />
<glyph unicode="&#x2009;" horiz-adv-x="436" />
<glyph unicode="&#x200a;" horiz-adv-x="121" />
<glyph unicode="&#x2010;" horiz-adv-x="927" d="M143 477v139q0 16 12.5 28.5t28.5 12.5h559q16 0 28.5 -12t12.5 -29v-139q0 -16 -12 -28.5t-29 -12.5h-559q-16 0 -28.5 12.5t-12.5 28.5z" />
<glyph unicode="&#x2011;" horiz-adv-x="927" d="M143 477v139q0 16 12.5 28.5t28.5 12.5h559q16 0 28.5 -12t12.5 -29v-139q0 -16 -12 -28.5t-29 -12.5h-559q-16 0 -28.5 12.5t-12.5 28.5z" />
<glyph unicode="&#x2012;" horiz-adv-x="927" d="M143 477v139q0 16 12.5 28.5t28.5 12.5h559q16 0 28.5 -12t12.5 -29v-139q0 -16 -12 -28.5t-29 -12.5h-559q-16 0 -28.5 12.5t-12.5 28.5z" />
<glyph unicode="&#x2013;" horiz-adv-x="1146" d="M143 477v113q0 16 12.5 28.5t28.5 12.5h779q16 0 28.5 -12.5t12.5 -28.5v-113q0 -16 -12.5 -28.5t-28.5 -12.5h-779q-16 0 -28.5 12.5t-12.5 28.5z" />
<glyph unicode="&#x2014;" horiz-adv-x="1454" d="M143 477v113q0 16 12.5 28.5t28.5 12.5h1086q16 0 28.5 -12.5t12.5 -28.5v-113q0 -16 -12.5 -28.5t-28.5 -12.5h-1086q-16 0 -28.5 12.5t-12.5 28.5z" />
<glyph unicode="&#x2018;" horiz-adv-x="423" d="M86 942v184q0 41 11.5 71t29.5 56l106 150q6 10 18.5 20.5t35.5 10.5h28q29 0 39.5 -22.5t-2.5 -45.5l-94 -172q-6 -10 1 -18.5t17 -8.5h35q16 0 28.5 -12t12.5 -29v-184q0 -16 -12 -28.5t-29 -12.5h-184q-16 0 -28.5 12.5t-12.5 28.5z" />
<glyph unicode="&#x2019;" horiz-adv-x="423" d="M90 923.5q-10 22.5 2 45.5l94 172q6 10 -1 18t-17 8h-35q-16 0 -28.5 12.5t-12.5 28.5v185q0 16 12.5 28.5t28.5 12.5h184q16 0 28.5 -12.5t12.5 -28.5v-185q0 -41 -11 -70.5t-30 -56.5l-106 -149q-6 -10 -18.5 -20.5t-34.5 -10.5h-29q-29 0 -39 22.5z" />
<glyph unicode="&#x201a;" horiz-adv-x="550" d="M151 -243.5q-10 22.5 3 44.5l94 172q6 10 -1 18.5t-18 8.5h-34q-16 0 -28.5 12.5t-12.5 28.5v184q0 16 12 28.5t29 12.5h184q16 0 28.5 -12t12.5 -29v-184q0 -41 -11.5 -70.5t-29.5 -56.5l-107 -150q-6 -10 -18 -20t-35 -10h-29q-29 0 -39 22.5z" />
<glyph unicode="&#x201c;" horiz-adv-x="833" d="M86 942v184q0 41 11.5 71t29.5 56l106 150q6 10 18.5 20.5t35.5 10.5h28q29 0 39.5 -22.5t-2.5 -45.5l-94 -172q-6 -10 1 -18.5t17 -8.5h35q16 0 28.5 -12t12.5 -29v-184q0 -16 -12 -28.5t-29 -12.5h-184q-16 0 -28.5 12.5t-12.5 28.5zM496 942v184q0 41 11 71t30 56 l106 150q6 10 18.5 20.5t34.5 10.5h29q29 0 39 -22.5t-2 -45.5l-94 -172q-6 -10 1 -18.5t17 -8.5h35q16 0 28.5 -12t12.5 -29v-184q0 -16 -12.5 -28.5t-28.5 -12.5h-184q-16 0 -28.5 12.5t-12.5 28.5z" />
<glyph unicode="&#x201d;" horiz-adv-x="833" d="M90 923.5q-10 22.5 2 45.5l94 172q6 10 -1 18t-17 8h-35q-16 0 -28.5 12.5t-12.5 28.5v185q0 16 12.5 28.5t28.5 12.5h184q16 0 28.5 -12.5t12.5 -28.5v-185q0 -41 -11 -70.5t-30 -56.5l-106 -149q-6 -10 -18.5 -20.5t-34.5 -10.5h-29q-29 0 -39 22.5zM499.5 923.5 q-10.5 22.5 2.5 45.5l94 172q6 10 -1 18t-17 8h-35q-16 0 -28.5 12.5t-12.5 28.5v185q0 16 12 28.5t29 12.5h184q16 0 28.5 -12.5t12.5 -28.5v-185q0 -41 -11.5 -70.5t-29.5 -56.5l-106 -149q-6 -10 -18.5 -20.5t-35.5 -10.5h-28q-29 0 -39.5 22.5z" />
<glyph unicode="&#x201e;" horiz-adv-x="935" d="M131 -243.5q-10 22.5 2 44.5l94 172q6 10 -1 18.5t-17 8.5h-35q-16 0 -28.5 12.5t-12.5 28.5v184q0 16 12.5 28.5t28.5 12.5h184q16 0 28.5 -12t12.5 -29v-184q0 -41 -11 -70.5t-30 -56.5l-106 -150q-6 -10 -18.5 -20t-34.5 -10h-29q-29 0 -39 22.5zM540.5 -243.5 q-10.5 22.5 2.5 44.5l94 172q6 10 -1 18.5t-18 8.5h-34q-16 0 -28.5 12.5t-12.5 28.5v184q0 16 12 28.5t29 12.5h184q16 0 28.5 -12t12.5 -29v-184q0 -41 -11.5 -70.5t-29.5 -56.5l-106 -150q-6 -10 -18.5 -20t-35.5 -10h-28q-29 0 -39.5 22.5z" />
<glyph unicode="&#x2020;" horiz-adv-x="921" d="M41 860v103q0 16 12.5 28.5t28.5 12.5h266q20 0 21 20v369q0 16 12 28.5t29 12.5h102q16 0 28.5 -12.5t12.5 -28.5v-369q0 -20 20 -20h267q16 0 28.5 -12.5t12.5 -28.5v-103q0 -16 -12.5 -28.5t-28.5 -12.5h-267q-20 0 -20 -20v-1004q0 -16 -12.5 -28.5t-28.5 -12.5h-102 q-16 0 -28.5 12.5t-12.5 28.5v1004q0 20 -21 20h-266q-16 0 -28.5 12.5t-12.5 28.5z" />
<glyph unicode="&#x2021;" horiz-adv-x="958" d="M49 385v98q0 16 12.5 28.5t28.5 12.5h283q20 0 20 21v344q0 20 -20 20h-283q-16 0 -28.5 12.5t-12.5 28.5v99q0 16 12.5 28.5t28.5 12.5h283q20 0 20 20v283q0 16 12.5 28.5t28.5 12.5h90q16 0 28.5 -12.5t12.5 -28.5v-283q0 -20 21 -20h282q16 0 28.5 -12.5t12.5 -28.5 v-99q0 -16 -12 -28.5t-29 -12.5h-282q-20 0 -21 -20v-344q0 -20 21 -21h282q16 0 28.5 -12t12.5 -29v-98q0 -16 -12 -28.5t-29 -12.5h-282q-20 0 -21 -20v-283q0 -16 -12 -28.5t-29 -12.5h-90q-16 0 -28.5 12.5t-12.5 28.5v283q0 20 -20 20h-283q-16 0 -28.5 12.5 t-12.5 28.5z" />
<glyph unicode="&#x2022;" horiz-adv-x="772" d="M172 420v348q0 16 12.5 28.5t28.5 12.5h348q16 0 28.5 -12.5t12.5 -28.5v-348q0 -16 -12 -28.5t-29 -12.5h-348q-16 0 -28.5 12t-12.5 29z" />
<glyph unicode="&#x2026;" horiz-adv-x="1411" d="M109 41v184q0 16 12 28.5t29 12.5h184q16 0 28.5 -12t12.5 -29v-184q0 -16 -12.5 -28.5t-28.5 -12.5h-184q-16 0 -28.5 12.5t-12.5 28.5zM571 41v184q0 16 12.5 28.5t28.5 12.5h185q16 0 28.5 -12t12.5 -29v-184q0 -16 -12.5 -28.5t-28.5 -12.5h-185q-16 0 -28.5 12.5 t-12.5 28.5zM1036 41v184q0 16 12.5 28.5t28.5 12.5h185q16 0 28.5 -12t12.5 -29v-184q0 -16 -12.5 -28.5t-28.5 -12.5h-185q-16 0 -28.5 12.5t-12.5 28.5z" />
<glyph unicode="&#x202f;" horiz-adv-x="436" />
<glyph unicode="&#x2030;" horiz-adv-x="1855" d="M123 1095.5q0 41.5 8 102.5q6 41 23.5 80t47 68.5t69.5 48t91 18.5q92 0 155 -58.5t75 -156.5q8 -61 8 -102t-8 -103q-4 -43 -21.5 -82t-47 -68.5t-69.5 -47t-92 -17.5q-92 0 -155.5 57.5t-75.5 157.5q-8 61 -8 102.5zM147 57l875 1346q18 31 45 31h78q20 0 33.5 -18.5 t-0.5 -39.5l-873 -1345q-18 -31 -43 -31h-82q-20 0 -32.5 17.5t-0.5 39.5zM272 1096q0 -47 4 -88q4 -29 25.5 -53.5t60.5 -24.5q33 0 57.5 21.5t29.5 56.5q6 41 6 88t-6 88q-4 29 -26 51t-61 22q-33 0 -57 -19t-29 -54q-4 -41 -4 -88zM725 338q0 41 8 102q6 41 23.5 80 t47.5 68.5t70 48t91 18.5q92 0 154.5 -58t74.5 -157q8 -61 8 -102t-8 -102q-4 -43 -21.5 -82t-47 -69t-69.5 -47.5t-91 -17.5q-92 0 -156 57.5t-76 158.5q-8 61 -8 102zM874.5 338q-0.5 -47 4.5 -88q4 -29 25.5 -53.5t60.5 -24.5q33 0 57.5 21.5t28.5 56.5q6 41 6 88t-6 88 q-4 29 -25.5 51.5t-60.5 22.5q-33 0 -57.5 -19.5t-28.5 -54.5q-4 -41 -4.5 -88zM1290 338q0 41 8 102q6 41 23.5 80t47.5 68.5t70 48t91 18.5q92 0 154.5 -58t74.5 -157q8 -61 8 -102t-8 -102q-4 -43 -21.5 -82t-47 -69t-69.5 -47.5t-91 -17.5q-92 0 -155.5 57.5 t-76.5 158.5q-8 61 -8 102zM1440 338q0 -47 4 -88q4 -29 25.5 -53.5t60.5 -24.5q33 0 57.5 21.5t28.5 56.5q6 41 6 88t-6 88q-4 29 -25.5 51.5t-60.5 22.5q-33 0 -57.5 -19.5t-28.5 -54.5q-4 -41 -4 -88z" />
<glyph unicode="&#x2039;" horiz-adv-x="643" d="M104.5 532.5q-0.5 12.5 10.5 28.5l196 330q4 8 16.5 19.5t34.5 11.5h93q29 0 40 -17.5t-8 -50.5l-174 -297q-16 -23 0 -49l174 -297q18 -33 7 -50.5t-39 -17.5h-93q-23 0 -35 11.5t-16 19.5l-196 330q-10 16 -10.5 28.5z" />
<glyph unicode="&#x203a;" horiz-adv-x="643" d="M148 160.5q-11 17.5 8 50.5l174 297q16 27 0 49l-174 297q-18 33 -7 50.5t39 17.5h93q23 0 35 -11.5t16 -19.5l196 -330q10 -16 10.5 -28.5t-10.5 -28.5l-196 -330q-4 -8 -16.5 -19.5t-34.5 -11.5h-93q-29 0 -40 17.5z" />
<glyph unicode="&#x2044;" horiz-adv-x="329" d="M-351 17.5q-14 17.5 1 39.5l874 1346q18 31 45 31h78q20 0 33.5 -18.5t-0.5 -39.5l-873 -1345q-18 -31 -43 -31h-81q-20 0 -34 17.5z" />
<glyph unicode="&#x205f;" horiz-adv-x="545" />
<glyph unicode="&#x20ac;" horiz-adv-x="1171" d="M45 532v86q0 16 12.5 28.5t28.5 12.5h80q14 0 15 6.5t1 10.5v117q0 4 -2 9t-12 5h-82q-16 0 -28.5 12t-12.5 29v86q0 16 12.5 28.5t28.5 12.5h90q6 0 12.5 4t6.5 10q0 100 34.5 185.5t96 146.5t146.5 95t187 34q92 0 176.5 -28.5t146.5 -84t100 -134.5t38 -179v-29 q0 -16 -12 -28.5t-29 -12.5h-112q-16 0 -28.5 12.5t-12.5 28.5v29q0 45 -18.5 87t-53.5 74t-84 51t-111 19q-49 0 -98 -13t-87 -45t-61.5 -83t-23.5 -125q0 -14 8 -14h344q16 0 28.5 -12.5t12.5 -28.5v-86q0 -16 -12 -28.5t-29 -12.5h-350q-8 0 -11 -6t-3 -10v-111 q0 -4 3 -12.5t13 -8.5h348q16 0 28.5 -12t12.5 -29v-86q0 -16 -12 -28t-29 -12h-340q-10 0 -12 -7.5t-2 -11.5q0 -63 16.5 -116.5t49 -93.5t84 -62.5t122.5 -22.5q51 0 99.5 15.5t85.5 44t59.5 72.5t22.5 100v28q0 16 12 28.5t29 12.5h112q16 0 28.5 -12t12.5 -29v-28 q0 -86 -33.5 -163t-95 -135.5t-146.5 -93t-186 -34.5q-111 0 -197.5 38.5t-147 105.5t-91 156t-30.5 189q0 4 -3.5 11.5t-17.5 7.5h-86q-16 0 -28.5 12t-12.5 28z" />
<glyph unicode="&#x2113;" horiz-adv-x="1009" d="M61 598v102q0 16 12.5 28.5t28.5 12.5h99v303q0 82 28.5 153t79.5 123t121 83t150 31t147.5 -31t116.5 -83t76.5 -124t27.5 -152q0 -94 -39 -175t-110.5 -142t-174 -102t-229.5 -56v-108q0 -160 73 -228.5t247 -68.5h73q16 0 28.5 -12.5t12.5 -28.5v-103q0 -16 -12 -28 t-29 -12h-73q-139 0 -236.5 29.5t-159 90t-90 149.5t-28.5 208v100h-99q-16 0 -28.5 12.5t-12.5 28.5zM395 752q160 16 259.5 87.5t99.5 204.5q0 82 -45 143.5t-129 61.5t-134.5 -61.5t-50.5 -143.5v-292z" />
<glyph unicode="&#x2116;" horiz-adv-x="2013" d="M133 41v1352q0 16 12.5 28.5t28.5 12.5h170q16 0 25.5 -6.5t17.5 -28.5l404 -1010q4 -6 10 -5t6 9v1000q0 16 12 28.5t29 12.5h104q16 0 28.5 -12.5t12.5 -28.5v-1352q0 -16 -12 -28.5t-29 -12.5h-170q-16 0 -25 6t-18 29l-403 1014q-4 6 -10.5 5t-6.5 -10v-1003 q0 -16 -12 -28.5t-28 -12.5h-105q-16 0 -28.5 12.5t-12.5 28.5zM1147 627q-10 111 0 221q6 74 34.5 137.5t78 110.5t116 74.5t150.5 27.5q82 0 149.5 -27.5t116.5 -74.5t77.5 -110.5t35.5 -137.5q8 -111 0 -221q-6 -74 -35 -137.5t-78 -111.5t-116.5 -76t-149.5 -28 q-84 0 -150.5 28t-116 76t-78 111.5t-34.5 137.5zM1180 41v88q0 16 12 28.5t29 12.5h622q16 0 28.5 -12.5t12.5 -28.5v-88q0 -16 -12 -28.5t-29 -12.5h-622q-16 0 -28.5 12.5t-12.5 28.5zM1323 633q6 -72 58.5 -124t144.5 -52t144 52t59 124q6 104 0 209q-6 72 -58.5 124 t-144.5 52t-144.5 -52t-58.5 -124q-6 -104 0 -209z" />
<glyph unicode="&#x2122;" horiz-adv-x="1499" d="M104 1315v98q0 20 21 21h471q20 0 20 -21v-98q0 -20 -20 -21h-156q-10 0 -10 -10v-547q0 -20 -20 -20h-99q-20 0 -20 20v547q0 10 -10 10h-156q-20 0 -21 21zM678 737v676q0 20 20 21h160q16 0 23 -19l123 -428q2 -4 5 -4t5 4l123 428q2 18 20 19h160q20 0 20 -21v-676 q0 -20 -20 -20h-90q-20 0 -21 20v451q0 4 -4 5t-4 -3l-147 -457q-6 -16 -21 -16h-43q-16 0 -22 16l-146 457q-2 4 -5 3t-3 -5v-451q0 -20 -20 -20h-93q-20 0 -20 20z" />
<glyph unicode="&#x2126;" horiz-adv-x="1398" d="M102 782q0 131 44 251t122 210t187.5 143.5t242.5 53.5q131 0 242 -53.5t189.5 -143.5t122.5 -210t44 -251q0 -80 -14 -163.5t-44 -160.5t-74 -142.5t-103 -106.5q-16 -10 -12 -27.5t26 -17.5h137q16 0 28.5 -12.5t12.5 -28.5v-82q0 -16 -12 -28.5t-29 -12.5h-360 q-16 0 -28.5 12.5t-12.5 28.5v121q0 14 7 41.5t44 52.5q35 23 79 67t82 110.5t64.5 153.5t26.5 193q0 94 -29.5 183.5t-84 158t-131 109.5t-171.5 41q-94 0 -170.5 -41t-130 -109.5t-83 -158t-29.5 -183.5q0 -106 26.5 -193t64.5 -153.5t82 -110.5t79 -67q37 -25 44 -52.5 t7 -41.5v-121q0 -16 -12.5 -28.5t-28.5 -12.5h-361q-16 0 -28.5 12.5t-12.5 28.5v82q0 16 12.5 28.5t28.5 12.5h138q23 0 27.5 16.5t-11.5 26.5q-59 41 -104.5 106.5t-75 143.5t-44 161.5t-14.5 163.5z" />
<glyph unicode="&#x212e;" horiz-adv-x="1216" d="M102 572.5q0 52.5 4.5 102.5t12.5 89q47 219 180 321.5t328 102.5q96 0 184 -23.5t155.5 -82t107.5 -155t40 -243.5v-129q0 -16 -12 -28.5t-29 -12.5h-756q-20 0 -20 -20q4 -37 10 -70t17 -59q25 -59 56.5 -98.5t69 -62t83 -31.5t94.5 -9q113 0 188.5 36t104.5 93 q6 20 19 27.5t28 7.5h94q16 0 26.5 -9.5t8.5 -31.5q-10 -68 -48 -124.5t-99.5 -97t-143.5 -63t-178 -22.5q-195 0 -331 97t-177 304q-8 39 -12.5 89t-4.5 102.5zM299 698q0 -20 20 -20h590q20 0 21 20v43q0 74 -24.5 127.5t-66.5 88t-97.5 51t-118.5 16.5 q-59 0 -113.5 -16.5t-97.5 -50t-73 -87t-36 -129.5z" />
<glyph unicode="&#x2190;" horiz-adv-x="1337" d="M115 496q-25 25 2 55l444 444q18 18 41 7t23 -35v-127q0 -16 -9.5 -25.5l-21.5 -21.5l-182 -183h782q16 -2 27.5 -13t13.5 -28v-96q-2 -16 -13.5 -27.5t-27.5 -13.5h-786l192 -192q25 -29 25 -52v-133q0 -18 -16.5 -27.5t-33.5 7.5z" />
<glyph unicode="&#x2191;" horiz-adv-x="1187" d="M107 632.5q-11 22.5 8 41.5l444 444q31 27 55 2l461 -461q16 -16 7 -32.5t-27 -16.5h-133q-25 0 -52 25l-192 192v-786q0 -16 -12.5 -28.5t-28.5 -12.5h-96q-16 0 -28.5 12.5t-12.5 28.5v782l-183 -182q-12 -12 -21 -21.5t-26 -9.5h-127q-25 0 -36 22.5z" />
<glyph unicode="&#x2192;" horiz-adv-x="1337" d="M102 469v96q0 16 12.5 28.5t28.5 12.5h783l-183 182q-12 12 -21 21.5t-9 26.5v127q0 25 22.5 36t40.5 -8l445 -444q27 -31 2 -55l-461 -461q-16 -16 -32.5 -7t-16.5 27v133q0 23 24 52l193 192h-787q-16 0 -28.5 12.5t-12.5 28.5z" />
<glyph unicode="&#x2193;" horiz-adv-x="1187" d="M108 454.5q11 22.5 35 22.5h127q16 0 25.5 -9t21.5 -22l183 -182v783q0 16 12 28t29 12h96q16 0 28.5 -12t12.5 -28v-787l192 193q27 25 52 24h133q18 0 27.5 -16.5t-7.5 -32.5l-461 -461q-25 -25 -55 2l-444 445q-18 18 -7 40.5z" />
<glyph unicode="&#x2196;" horiz-adv-x="1060" d="M102 264v629q0 41 37 41h652q23 0 27.5 -18.5t-7.5 -30.5l-94 -94q-18 -18 -53 -19l-273 -2l555 -555q25 -29 0 -57l-67 -68q-12 -10 -28.5 -11t-29.5 11l-553 553v-258q0 -16 -1 -30.5t-11 -24.5l-90 -90q-16 -16 -40 -9t-24 33z" />
<glyph unicode="&#x2197;" horiz-adv-x="1060" d="M115 158q-25 29 0 57l555 555l-273 2q-35 0 -53 19l-94 94q-12 12 -7 30.5t27 18.5h652q37 0 36 -41v-629q0 -27 -23.5 -34t-39.5 10l-90 90q-10 10 -11 24.5t-1 30.5v258l-553 -553q-12 -12 -28.5 -11t-29.5 11z" />
<glyph unicode="&#x2198;" horiz-adv-x="1060" d="M115 815q-25 29 0 57l67 68q29 25 58 0l553 -553v258q0 16 1 30.5t11 24.5l90 91q16 16 39.5 9t23.5 -34v-629q0 -41 -36 -41h-652q-23 0 -27.5 18.5t7.5 30.5l94 95q18 18 53 18l273 2z" />
</font>
</defs>
</svg>
