<svg version="1.1" id="Layer_1" xmlns="http://www.w3.org/2000/svg" xmlns:xlink="http://www.w3.org/1999/xlink" x="0px" y="0px" width="128px" height="128px" viewBox="0 0 128 128" style="enable-background:new 0 0 128 128;" xml:space="preserve">
<path id="chrome" d="M-225.4,355.4c29.8-34.6,84.8-27.8,105.4,12.6c-14.5,0-37.2,0-49.6,0c-8.9,0-14.7-0.2-20.9,3.1c-7.3,3.9-12.9,11-14.8,19.4L-225.4,355.4z M-198.2,397c0,11.7,9.5,21.3,21.3,21.3c11.7,0,21.3-9.5,21.3-21.3c0-11.7-9.5-21.3-21.3-21.3S-198.2,385.2-198.2,397z M-168.8,424.8c-11.9,3.5-25.9-.4-33.6-13.6c-5.8-10.1-21.3-37-28.3-49.2c-24.6,37.6-3.4,88.8,41.2,97.6L-168.8,424.8z M-157.3,375.8c9.9,9.2,12.1,24.2,5.4,35.8c-5.1,8.7-21.3,36.1-29.1,49.3c46,2.8,79.4-42.2,64.2-85L-157.3,375.8L-157.3,375.8z"/>
</svg>