<svg version="1.1" id="Layer_1" xmlns="http://www.w3.org/2000/svg" xmlns:xlink="http://www.w3.org/1999/xlink" x="0px" y="0px" viewBox="0 0 612 792" enable-background="new 0 0 612 792" xml:space="preserve">
<path fill="#66D43D" d="M283.7,363.3v-162c0-5.1,4.2-9.3,9.3-9.3h23.4c5.1,0,9.2,4.1,9.3,9.1l2.8,162.3c0.1,5.1,4.2,9.1,9.3,9.1h162.5c5,0,9.1,3.9,9.3,8.9l0.9,24.1c0.2,5.3-4,9.6-9.3,9.6h-164c-5.1,0-9.2,4.1-9.3,9.2l-1.5,166.4c0,5.1-4.2,9.2-9.3,9.2h-22.3c-5.1,0-9.2-4.1-9.3-9.2l-1.7-166.1c-0.1-5.1-4.2-9.2-9.3-9.2l-164,0.3c-5.1,0-9.3-4.1-9.3-9.3v-23.7c0-5.1,4.1-9.2,9.2-9.3l164.1-1.1C279.6,372.5,283.7,368.4,283.7,363.3z"/>
</svg>