<svg version="1.1" xmlns="http://www.w3.org/2000/svg" xmlns:xlink="http://www.w3.org/1999/xlink" x="0px" y="0px" width="128px" height="128px" viewBox="0 0 128 128" enable-background="new 0 0 128 128" xml:space="preserve">
<path id="navigation-8-icon" d="M37,49.5l46.9-17.2L66.5,79.4l-5.7-24L37,49.5z M115.1,52.6c0,28.7-24.8,47.6-51.1,73.8c-26.2-26.3-51.1-45.2-51.1-73.8C12.9,24.4,35.8,1.5,64,1.5S115.1,24.4,115.1,52.6z M101.5,51.1c0-20.7-16.8-37.5-37.5-37.5c-20.7,0-37.5,16.8-37.5,37.5c0,20.7,16.8,37.5,37.5,37.5C84.7,88.5,101.5,71.8,101.5,51.1z"/>
</svg>