<svg version="1.1" id="Layer_1" xmlns="http://www.w3.org/2000/svg" xmlns:xlink="http://www.w3.org/1999/xlink" x="0px" y="0px" width="128px" height="128px" viewbox="0 0 128 128" enable-background="new 0 0 128 128" xml:space="preserve">
<path id="github"  d="M36.6,81c0,0.2-0.2,0.4-0.5,0.4c-0.3,0-0.5-0.2-0.5-0.4c0-0.2,0.2-0.4,0.5-0.4C36.3,80.7,36.6,80.8,36.6,81z M37.3,81.9c-0.3,0-0.6,0.2-0.6,0.4c0,0.2,0.3,0.4,0.6,0.4c0.3,0,0.6-0.2,0.6-0.4C37.9,82.1,37.6,81.9,37.3,81.9z M40.3,84.8c-0.4,0-0.8,0.2-0.8,0.5c0,0.3,0.3,0.5,0.8,0.5c0.4,0,0.8-0.2,0.8-0.5C41.1,85.1,40.8,84.8,40.3,84.8z M33.4,78.8c-0.2,0-0.4,0.1-0.4,0.3c0,0.2,0.2,0.3,0.4,0.3c0.2,0,0.4-0.1,0.4-0.3C33.8,78.9,33.6,78.8,33.4,78.8z M34.7,79.6c-0.3,0-0.5,0.1-0.5,0.3c0,0.2,0.2,0.3,0.5,0.3c0.3,0,0.5-0.1,0.5-0.3C35.2,79.8,35,79.6,34.7,79.6z M38.7,83.4c-0.4,0-0.7,0.2-0.7,0.5c0,0.3,0.3,0.5,0.7,0.5c0.4,0,0.7-0.2,0.7-0.5C39.4,83.6,39.1,83.4,38.7,83.4z M127.5,64c0,35.1-28.4,63.5-63.5,63.5S0.5,99.1,0.5,64S28.9,0.5,64,0.5S127.5,28.9,127.5,64z M94.8,67.3c0.2-0.4,0.4-0.8,0.5-1.3c5-0.4,10.1-0.4,15.2,0.1l0.1-0.8c-5.1-0.5-10.1-0.5-15-0.2c0.8-2.5,1.2-5.4,1.2-8.6c-0.1-6.9-2.4-12.2-6-16.7c0.7-4.2,0.2-8.4-1.1-12.6c-5.1,0.4-9.8,2.1-13.9,5c-7.7-1.6-15.4-1.7-23.1,0c-4.8-3.2-9.5-4.8-14.2-5c-1.4,4.6-1.6,9.2-0.4,13.6c-4.1,4.3-5.6,9.5-5.5,15.3c0,3.3,0.6,6.3,1.5,8.9c-4.8-0.4-9.8-0.3-14.8,0.2l0.1,0.8c5.1-0.5,10.2-0.5,15.1-0.2c0.2,0.4,0.4,0.9,0.6,1.3c-5.3-0.1-10.1,0.3-14.6,1.4l0.2,0.8c4.6-1.1,9.4-1.6,14.9-1.4C39,74.6,46,78.4,56.1,79.6c-2.3,1.9-3.6,4.2-3.9,6.7c0,0-1.1,0-5.4,0c-7.2,0-9.1-9.2-16.6-8.3c7.2,3.6,5.8,15,17.3,15c3.9,0,4.7,0,4.9,0v10.5c0.1,1.7-0.7,2.8-1.9,3.6c4.1,0.4,7.3-1.6,7.3-4.2c0-2.5,0-12.6,0-13.9c0-1.2,1.3-1.3,1.3-1.3V104c0.1,1.6-0.7,2.5-1.6,3.4c3.6,0.1,7.1-0.6,7.2-3.7c0,0,0-14.7,0-15.5c0-0.8,1.3-0.8,1.3,0c0,0.8,0,14.8,0,14.8c0,2.6,2.3,4.7,7.1,4.4c-1.3-1-1.7-2.1-1.7-3.6s0-16,0-16s1.3-0.1,1.3,1.3c0,1.4,0,11.2,0,13.5c0,3,3.6,4.2,7.7,4.1c-1.3-1-2.3-2.2-2.3-3.8V86.7c-0.1-2.4-1.1-4.6-3-6.7c9.2-1.4,15.9-5.1,19.2-11.7c5.5-0.2,10.4,0.3,14.9,1.4l0.2-0.8C105,67.7,100.2,67.2,94.8,67.3z M51,87.2c-0.5,0-0.9,0.3-0.9,0.6c0,0.3,0.4,0.6,0.9,0.6c0.5,0,0.9-0.3,0.9-0.6C51.8,87.4,51.4,87.2,51,87.2z M48.1,87.1c-0.5,0-0.9,0.3-0.9,0.6c0,0.3,0.4,0.6,0.9,0.6c0.5,0,0.9-0.3,0.9-0.6C49,87.4,48.6,87.1,48.1,87.1z M45.3,87c-0.5,0-0.9,0.3-0.9,0.6c0,0.3,0.4,0.6,0.9,0.6c0.5,0,0.9-0.3,0.9-0.6C46.1,87.3,45.7,87,45.3,87z M42.5,86.2c-0.5,0-0.9,0.3-0.9,0.6c0,0.3,0.4,0.6,0.9,0.6c0.5,0,0.9-0.3,0.9-0.6C43.4,86.5,43,86.2,42.5,86.2z"/>
</svg>