<svg version="1.1" id="Layer_1" xmlns="http://www.w3.org/2000/svg" xmlns:xlink="http://www.w3.org/1999/xlink" x="0px" y="0px"
	 width="128px" height="128px" viewbox="0 0 128 128" enable-background="new 0 0 128 128" xml:space="preserve">
<g>
	<circle fill="#F74552" cx="64" cy="64" r="56.7"/>
	<path fill="#FFFFFF" d="M70.1,84.9L70.1,84.9c-0.8,5.1-5,9-10.3,9c-5.3,0-9.7-3.9-10.4-9h-0.1V55.4h20.8V84.9z"/>
	<path fill="#FFFFFF" d="M77,52.8H41.5v-0.1c-4.8-0.6-8.4-4.5-8.5-9.6c-0.1-5,3.7-9.1,8.5-9.7v-0.2H77v0.1c5.3,0.1,9.7,4.4,9.7,9.8
		C86.6,48.4,82.2,52.6,77,52.8L77,52.8z"/>
	<circle fill="#FFFFFF" cx="89.9" cy="83.5" r="10.5"/>
</g>
</svg>
