<svg version="1.1" id="Layer_1" xmlns="http://www.w3.org/2000/svg" xmlns:xlink="http://www.w3.org/1999/xlink" x="0px" y="0px"
	 width="128px" height="128px" viewBox="0 0 128 128" enable-background="new 0 0 128 128" xml:space="preserve">
<path id="navigation-7-icon" d="M44.3,38.1c-24.2,0-43.8,20-43.8,44.7s19.7,44.8,43.8,44.8s43.8-20.1,43.8-44.8S68.5,38.1,44.3,38.1z M47.9,114.9l-6.5-27.6l-26.8-6.9l53-19.9L47.9,114.9z M74.3,0.5c13.6,0,27.2,5.3,37.6,15.9s15.6,24.5,15.6,38.4h-11.7c0-10.9-4-21.7-12.2-29.9S84.9,12.5,74.2,12.5L74.3,0.5L74.3,0.5z M74.3,35c4.9,0,10,1.9,13.7,5.8c3.8,3.8,5.7,9,5.7,14H106c1.4-11.7-2.6-17.8-9.3-22.9c-6.2-6.3-14.3-9.5-22.5-9.5V35L74.3,35z"/>
</svg>
