<?xml version="1.0" encoding="utf-8"?>

<!-- License Agreement at http://iconmonstr.com/license/ -->

<!DOCTYPE svg PUBLIC "-//W3C//DTD SVG 1.1//EN" "http://www.w3.org/Graphics/SVG/1.1/DTD/svg11.dtd">
<svg version="1.1" xmlns="http://www.w3.org/2000/svg" xmlns:xlink="http://www.w3.org/1999/xlink" x="0px" y="0px"
	 width="512px" height="512px" viewBox="0 0 512 512" enable-background="new 0 0 512 512" xml:space="preserve">
<path id="instagram-9-icon" d="M212.551,255.995c0-24.55,19.899-44.443,44.449-44.443c24.549,0,44.453,19.894,44.453,44.443
	c0,24.547-19.904,44.454-44.453,44.454C232.45,300.449,212.551,280.542,212.551,255.995z M328.113,255.995
	c0,39.283-31.838,71.12-71.113,71.12c-39.274,0-71.113-31.837-71.113-71.12c0-6.146,0.869-12.092,2.335-17.783h-20.123v97.793
	c0,4.904,3.981,8.881,8.898,8.881h160.008c4.917,0,8.899-3.977,8.899-8.881v-97.793h-20.123
	C327.248,243.903,328.113,249.849,328.113,255.995z M337.005,167.1h-26.663c-4.911,0-8.889,3.981-8.889,8.89v26.672
	c0,4.906,3.978,8.891,8.889,8.891h26.663c4.917,0,8.899-3.984,8.899-8.891v-26.672C345.904,171.081,341.922,167.1,337.005,167.1z
	 M462,256c0,113.771-92.229,206-206,206S50,369.771,50,256S142.229,50,256,50S462,142.229,462,256z M372.566,167.1
	c0-14.729-11.936-26.665-26.662-26.665H168.099c-14.724,0-26.664,11.936-26.664,26.665v177.786c0,14.736,11.94,26.68,26.664,26.68
	h177.806c14.727,0,26.662-11.943,26.662-26.68V167.1z"/>
</svg>
