<?xml version="1.0" encoding="utf-8"?>
<!-- Generator: Adobe Illustrator 17.1.0, SVG Export Plug-In . SVG Version: 6.00 Build 0)  -->
<!DOCTYPE svg PUBLIC "-//W3C//DTD SVG 1.1//EN" "http://www.w3.org/Graphics/SVG/1.1/DTD/svg11.dtd">
<svg version="1.1" id="Layer_1" xmlns="http://www.w3.org/2000/svg" xmlns:xlink="http://www.w3.org/1999/xlink" x="0px" y="0px"
	 width="128px" height="128px" viewBox="0 0 128 128" enable-background="new 0 0 128 128" xml:space="preserve">
<path id="facebook-circle-icon" fill="#3B5998" d="M64,0.5C28.9,0.5,0.5,28.9,0.5,64s28.4,63.5,63.5,63.5s63.5-28.4,63.5-63.5
	S99.1,0.5,64,0.5z M82.7,37.9c0,0-6.4,0-8.9,0c-3.1,0-3.8,1.3-3.8,4.5c0,2.7,0,7.9,0,7.9h12.7L81.5,64H70.1v41H53.7V64.1h-8.6V50.2
	h8.6c0,0,0-2,0-11c0-10.3,5.5-15.6,17.7-15.6c2,0,11.4,0,11.4,0L82.7,37.9L82.7,37.9z"/>
</svg>
