<?xml version="1.0" encoding="utf-8"?>
<!-- Generator: Adobe Illustrator 17.1.0, SVG Export Plug-In . SVG Version: 6.00 Build 0)  -->
<!DOCTYPE svg PUBLIC "-//W3C//DTD SVG 1.1//EN" "http://www.w3.org/Graphics/SVG/1.1/DTD/svg11.dtd">
<svg version="1.1" id="Layer_1" xmlns="http://www.w3.org/2000/svg" xmlns:xlink="http://www.w3.org/1999/xlink" x="0px" y="0px"
	 width="128px" height="128px" viewBox="0 0 128 128" enable-background="new 0 0 128 128" xml:space="preserve">
<path id="twitter"  d="M64,0.5C28.9,0.5,0.5,28.9,0.5,64s28.4,63.5,63.5,63.5s63.5-28.4,63.5-63.5
	S99.1,0.5,64,0.5z M96,53C96.9,73.8,81.4,96.9,54,96.9c-8.3,0-16.1-2.5-22.6-6.7c7.8,0.9,15.6-1.2,21.8-6.1
	c-6.5-0.1-11.9-4.3-13.8-10.3c2.3,0.4,4.5,0.3,6.7-0.2c-7-1.3-11.8-7.8-11.7-14.6c2,1.1,4.2,1.8,6.7,1.9c-6.6-4.3-8.4-13.1-4.5-19.8
	c7.3,9,18.1,14.8,30.4,15.3c-2.2-9.3,4.8-18,14.3-18c4.2,0,8.1,1.8,10.8,4.6c3.3-0.6,6.6-1.9,9.4-3.5c-1.1,3.4-3.4,6.3-6.5,8.2
	c3-0.3,5.8-1.1,8.5-2.3C101.4,48.4,98.9,50.9,96,53z"/>
</svg>
