<svg version="1.1" id="Layer_1" xmlns="http://www.w3.org/2000/svg" xmlns:xlink="http://www.w3.org/1999/xlink" x="0px" y="0px"
	 width="128px" height="128px" viewBox="0 0 128 128" enable-background="new 0 0 128 128" xml:space="preserve">
<path id="google"  d="M69.2,87c0,6.2-5.1,11.1-15.6,11.1c-8.2,0-14.1-5.2-14.1-11.4
	c0-6.1,7-11.4,15.2-11.3C63.8,75.4,69.2,81.1,69.2,87z M127.5,64c0,35.1-28.4,63.5-63.5,63.5S0.5,99.1,0.5,64S28.9,0.5,64,0.5
	S127.5,28.9,127.5,64z M76.3,86.3c0-5.8-2.2-9.5-8.7-14.4c-6.6-4.8-8.2-7.5-1.9-12.4c3.6-2.7,6-6.4,6-10.9c0-4.9-2-9.4-5.8-11.6h5.4
	l4.6-4.8c0,0-17.2,0-20.4,0c-12.8,0-19,7.6-19,16.1c0,8.6,5.9,15.4,17.4,15.4c-1.8,3.6-1.1,6.9,1.9,9.3c-19.7,0-23.9,8.6-23.9,15.3
	c0,8.6,9.9,13.7,21.8,13.7C69.8,102,76.3,93.4,76.3,86.3z M103,42.6h-9.4v-9.4h-4.7v9.4h-9.4v4.7h9.4v9.4h4.7v-9.4h9.4V42.6z
	 M63.5,48.9c-1-7.2-5.7-13.2-11.2-13.3c-5.5-0.2-9.2,5.4-8.3,12.6c1,7.2,6.2,12.3,11.7,12.5C61.3,60.8,64.5,56.1,63.5,48.9z"/>
</svg>
