<svg version="1.1" id="Layer_1" xmlns="http://www.w3.org/2000/svg" xmlns:xlink="http://www.w3.org/1999/xlink" x="0px" y="0px"
	 width="128px" height="128px" viewbox="0 0 128 128" enable-background="new 0 0 128 128" xml:space="preserve">
<path id="instagram-9-icon" d="M50.6,64c0-7.6,6.1-13.7,13.7-13.7C71.9,50.3,78,56.4,78,64c0,7.6-6.1,13.7-13.7,13.7
	C56.7,77.7,50.6,71.6,50.6,64z M86.2,64c0,12.1-9.8,21.9-21.9,21.9c-12.1,0-21.9-9.8-21.9-21.9c0-1.9,0.3-3.7,0.7-5.5h-6.2v30.1
	c0,1.5,1.2,2.7,2.7,2.7H89c1.5,0,2.7-1.2,2.7-2.7V58.5h-6.2C86,60.3,86.2,62.1,86.2,64z M89,36.6h-8.2c-1.5,0-2.7,1.2-2.7,2.7v8.2
	c0,1.5,1.2,2.7,2.7,2.7H89c1.5,0,2.7-1.2,2.7-2.7v-8.2C91.7,37.8,90.5,36.6,89,36.6z M127.5,64c0,35.1-28.4,63.5-63.5,63.5
	S0.5,99.1,0.5,64S28.9,0.5,64,0.5S127.5,28.9,127.5,64z M99.9,36.6c0-4.5-3.7-8.2-8.2-8.2H36.9c-4.5,0-8.2,3.7-8.2,8.2v54.8
	c0,4.5,3.7,8.2,8.2,8.2h54.8c4.5,0,8.2-3.7,8.2-8.2L99.9,36.6L99.9,36.6z"/>
</svg>
