<?xml version="1.0" encoding="utf-8"?>
<!-- Generator: Adobe Illustrator 17.1.0, SVG Export Plug-In . SVG Version: 6.00 Build 0)  -->
<!DOCTYPE svg PUBLIC "-//W3C//DTD SVG 1.1//EN" "http://www.w3.org/Graphics/SVG/1.1/DTD/svg11.dtd">
<svg version="1.1" id="Layer_1" xmlns="http://www.w3.org/2000/svg" xmlns:xlink="http://www.w3.org/1999/xlink" x="0px" y="0px"
	 width="128px" height="128px" viewBox="0 0 128 128" enable-background="new 0 0 128 128" xml:space="preserve">
	<path d="M107.4,55.3h-9.9c0.7,2.8,1.1,5.7,1.1,8.7c0,19.2-15.6,34.8-34.8,34.8S29,83.2,29,64c0-3,0.4-5.9,1.1-8.7h-9.9v47.9
		c0,2.4,2,4.3,4.4,4.3h78.4c2.4,0,4.4-1.9,4.4-4.3V55.3z M107.4,24.8c0-2.4-2-4.4-4.4-4.4h-13c-2.4,0-4.4,2-4.4,4.4v13.1
		c0,2.4,1.9,4.4,4.4,4.4h13.1c2.4,0,4.4-2,4.4-4.4V24.8H107.4z M64,42.2c-12,0-21.8,9.7-21.8,21.8c0,12,9.7,21.8,21.8,21.8
		S85.8,76.1,85.8,64C85.8,52,75.9,42.2,64,42.2 M107.4,120.6h-87c-7.2,0-13.1-5.8-13.1-13.1v-87c0-7.3,5.8-13.1,13.1-13.1h87.1
		c7.2,0,13.1,5.8,13.1,13.1v87.1C120.6,114.7,114.7,120.6,107.4,120.6"/>
</svg>
