<?xml version="1.0" encoding="utf-8"?>
<!-- Generator: Adobe Illustrator 17.1.0, SVG Export Plug-In . SVG Version: 6.00 Build 0)  -->
<!DOCTYPE svg PUBLIC "-//W3C//DTD SVG 1.1//EN" "http://www.w3.org/Graphics/SVG/1.1/DTD/svg11.dtd">
<svg version="1.1" id="Layer_1" xmlns="http://www.w3.org/2000/svg" xmlns:xlink="http://www.w3.org/1999/xlink" x="0px" y="0px"
	 width="512px" height="128px" viewBox="0 0 512 128" enable-background="new 0 0 512 128" xml:space="preserve">
<g>
	<path fill="#7329B0" d="M0.9,26.6C0.9,16.8,9,8.5,19,8.5h62c9.8,0,17.9,8.3,17.9,18.1c0,10-8.1,18.1-17.9,18.1H19
		C9,44.7,0.9,36.6,0.9,26.6z M31,100.6V50.3h37.8v50.3c0,10.6-8.6,19-19,19S31,111.1,31,100.6z"/>
	<path fill="#7329B0" d="M124,119.6c-10.4,0-18.8-8.4-18.8-19v-73c0-10.4,8.4-19,18.8-19s19,8.6,19,19v73
		C143,111.1,134.5,119.6,124,119.6z M184.6,119.6c-10.4,0-18.8-8.4-18.8-19V81.7h-17.1V46.4h17.1V27.6c0-10.4,8.4-19,18.8-19
		c10.6,0,19,8.6,19,19v73C203.6,111.1,195.2,119.6,184.6,119.6z"/>
	<path fill="#7329B0" d="M215.6,100.6v-73c0-10.4,8.4-19,18.8-19c10.4,0,19,8.6,19,19v73c0,10.6-8.6,19-19,19
		S215.6,111.1,215.6,100.6z"/>
	<path fill="#7329B0" d="M337.8,52.6c-7.9,0-13.1-6.4-21-6.4c-9.8,0-17.7,7.9-17.7,17.7c0,3.7,1.2,7.6,3.6,10.6l-26.8,26.9
		c-9.2-10.3-14.5-23.7-14.5-37.5c0-30.7,24.8-55.4,55.4-55.4c10.7,0,22.7,3.6,31.6,9.7c5,3.4,8.2,9.5,8.2,15.6
		C356.6,44.1,348,52.6,337.8,52.6z M348.4,109.9c-9.2,6.4-20.2,9.7-31.4,9.7c-13.9,0-26.9-5.1-37.2-14.3l26.8-26.8
		c3,2.3,6.7,3.6,10.4,3.6c7.6,0,12.5-6.7,20.9-6.7c10.3,0,18.8,8.6,18.8,18.8C356.6,100.4,353.5,106.2,348.4,109.9z"/>
	<path fill="#7329B0" d="M384.6,119.6c-10.4,0-18.8-8.6-18.8-19v-73c0-10.4,8.4-19,18.8-19s19,8.6,19,19v73
		C403.6,110.9,395,119.6,384.6,119.6z M450.5,119.6c-4.8,0-9.5-1.9-13.4-5.6l-27.9-27.7V42l27.9-27.8c3.7-3.7,8.6-5.6,13.4-5.6
		c10.1,0,19,8.7,19,19c0,5-1.9,9.7-5.6,13.4l-23.2,23l23.2,23.2c3.7,3.7,5.6,8.6,5.6,13.4C469.4,110.8,460.6,119.6,450.5,119.6z"/>
	<path fill="#7329B0" d="M473.2,100.6c0-10.4,8.6-19,19-19s19,8.6,19,19c0,10.4-8.6,19-19,19C481.7,119.6,473.2,110.9,473.2,100.6z"
		/>
</g>
</svg>
