<svg version="1.1" id="Layer_1" xmlns="http://www.w3.org/2000/svg" xmlns:xlink="http://www.w3.org/1999/xlink" x="0px" y="0px" viewBox="-49 141 512 512" enable-background="new -49 141 512 512" xml:space="preserve">
<path fill="#fff5a1" id="magnifier-2-icon" d="M411.4,562.6c0-7.6-106.5-106.5-106.5-106.5c20.1-27.6,32-61.7,31.9-98.4	c-0.2-92.1-75.9-167.2-168-166.7C76.3,191.5,1.4,267.5,2.7,360.3c1.2,89.9,74.2,163.2,164.1,164.7c36,0.6,69.5-10.2,97.1-29.1c0,0,99.4,107.1,107.1,107.1S411.4,570.2,411.4,562.6z M51.7,362c-2.2-68.2,53.7-124.1,121.9-121.9c61.9,2,112.1,52.2,114.1,114.1c2.2,68.2-53.7,124.1-121.9,121.9C103.9,474,53.7,423.8,51.7,362z"/>
</svg>