<svg version="1.1" xmlns="http://www.w3.org/2000/svg" xmlns:xlink="http://www.w3.org/1999/xlink" x="0px" y="0px" width="512px" height="512px" viewBox="0 0 512 512" enable-background="new 0 0 512 512" xml:space="preserve">
<path fill="#66d43d" d="M473,421c-3-10.9-109.1-109.1-109.1-109.1c16-25.1,25.2-54.9,25.2-86.8c0-89.6-72.9-162.5-162.5-162.5c-89.6,0-162.5,72.9-162.5,162.5S137,387.6,226.6,387.6c30.3,0,58.7-8.4,83.1-22.9c0,0,96,105.4,109.8,109.8C438.9,480.8,477.8,438.4,473,421z M124.7,225.1c0-56.2,45.7-101.9,101.9-101.9s101.9,45.7,101.9,101.9S282.8,327,226.6,327C170.4,327,124.7,281.3,124.7,225.1z"/>
</svg>