<svg version="1.1" id="Layer_1" xmlns="http://www.w3.org/2000/svg" xmlns:xlink="http://www.w3.org/1999/xlink" x="0px" y="0px"
	 width="128px" height="128px" viewBox="0 0 128 128" enable-background="new 0 0 128 128" xml:space="preserve">
<path id="navigation-7-icon" d="M44.8,39.2C21.3,39.2,2.1,58.4,2.1,82s19.2,42.7,42.7,42.7S87.6,105.5,87.6,82S68.4,39.2,44.8,39.2zM48.3,112.7L42,86.4L16,79.8l51.6-18.9L48.3,112.7z M74,3.3c13.3,0,26.6,5.1,36.7,15.2c10.1,10.1,15.2,23.4,15.2,36.7h-11.3c0-10.4-4-20.8-11.8-28.6S84.5,14.8,74.1,14.8V3.3H74z M74,36.3c4.8,0,9.7,1.9,13.4,5.6c3.7,3.7,5.6,8.5,5.6,13.4h12c0-8-3.1-15.8-9-21.8c-6-6-14-9-21.8-9L74,36.3L74,36.3z"/>
</svg>
